<svg width="50" height="50" viewBox="0 0 50 50" fill="none" xmlns="http://www.w3.org/2000/svg">
<path d="M14.9816 17.4972C15.444 17.4972 15.8188 17.122 15.8188 16.6592C15.8188 16.1964 15.444 15.8213 14.9816 15.8213C14.5193 15.8213 14.1445 16.1964 14.1445 16.6592C14.1445 17.122 14.5193 17.4972 14.9816 17.4972Z" fill="#153860"/>
<path d="M1.67631 50.0001H28.332C28.7946 50.0001 29.2352 49.8017 29.5436 49.4709C29.852 49.1401 30.0283 48.677 29.9842 48.236C29.852 45.9648 29.4335 42.9658 28.0897 41.5987C26.3934 39.8787 22.0976 38.7761 20.6217 38.4454C20.3793 37.7618 20.2031 37.0561 20.115 36.3505L22.2078 34.5203C22.9127 33.8808 23.3313 32.9767 23.3313 32.0285V30.7054C24.8073 30.3306 25.8427 29.0075 25.8427 27.486C25.8427 25.9645 24.8073 24.6414 23.3313 24.2665V19.9666C23.2652 17.9379 22.384 16.0415 20.864 14.6964C20.2251 14.101 19.4761 13.6379 18.6831 13.2851C17.7358 12.2487 16.414 11.6533 15.0041 11.6533C13.5943 11.6533 12.2725 12.2487 11.3252 13.2851C10.5322 13.6379 9.78316 14.101 9.14431 14.6964C7.62427 16.0415 6.72106 17.9599 6.677 19.9886V24.2665C5.20103 24.6414 4.16564 25.9645 4.16564 27.486C4.16564 29.0075 5.20103 30.3306 6.677 30.7054V32.0285C6.677 32.9767 7.09556 33.8808 7.80051 34.5203L9.87128 36.3505C9.78316 37.0561 9.62896 37.7618 9.3646 38.4454C7.88863 38.7761 3.59288 39.8787 1.89661 41.5987C0.552809 42.9658 0.134248 45.9648 0.00207068 48.236C-0.0199588 48.6991 0.134247 49.1401 0.44266 49.4709C0.751073 49.8017 1.19166 50.0001 1.65428 50.0001H1.67631ZM13.374 38.3351H16.6123C17.3393 38.3351 18.0663 38.0925 18.639 37.6295C18.7492 38.1146 18.8813 38.5777 19.0576 39.0407L17.4274 39.9228C16.9868 40.1653 16.6784 40.5843 16.5903 41.0694L16.4801 41.6648H13.5061L13.374 41.0474C13.2858 40.5623 12.9774 40.1433 12.5368 39.9007L10.9287 39.0187C11.1049 38.5556 11.2371 38.0925 11.3473 37.6074C11.92 38.0705 12.625 38.313 13.374 38.313V38.3351ZM16.1277 43.3407L15.1363 48.3463H14.8279L13.8146 43.3407H16.1056H16.1277ZM10.2678 40.5623L11.7438 41.3781L13.1537 48.3242H12.0963L9.3646 42.4807L10.2678 40.5623ZM16.8326 48.3242L18.1984 41.3781L19.7185 40.5623L20.6437 42.5027L17.89 48.3242H16.8326ZM26.878 42.7674C27.627 43.5391 28.1558 45.5678 28.31 48.3242H24.1464V47.4863C24.1464 47.0232 23.7719 46.6483 23.3093 46.6483C22.8466 46.6483 22.4721 47.0232 22.4721 47.4863V48.3242H19.7405L22.1637 43.2084C22.384 42.7453 22.384 42.2161 22.1637 41.753L21.5028 40.3638C23.3754 40.871 25.9087 41.731 26.9001 42.7453L26.878 42.7674ZM8.32922 20.8266H12.2284C13.9027 21.9291 16.0616 21.9291 17.7358 20.8266H21.635V22.5024H8.30719V20.8266H8.32922ZM21.5689 19.1507H19.3219C19.7625 18.4009 20.0048 17.5189 20.0048 16.6589C20.0048 16.4825 20.0048 16.3281 19.9828 16.1517C20.7979 16.9676 21.3707 18.004 21.5689 19.1507ZM18.3306 16.6589C18.3306 18.4891 16.8326 19.9886 15.0041 19.9886C13.1757 19.9886 11.6777 18.4891 11.6777 16.6589C11.6777 14.8287 13.1757 13.3292 15.0041 13.3292C16.8326 13.3292 18.3306 14.8287 18.3306 16.6589ZM10.0255 16.1517C10.0255 16.3281 10.0035 16.4825 10.0035 16.6589C10.0035 17.541 10.2458 18.4009 10.6864 19.1507H8.43936C8.65966 18.004 9.2104 16.9676 10.0255 16.1517ZM8.32922 32.0285V29.9777C8.32922 29.5147 7.95472 29.1398 7.4921 29.1398C6.56686 29.1398 5.81786 28.3901 5.81786 27.4639C5.81786 26.5378 6.56686 25.788 7.4921 25.788C7.95472 25.788 8.32922 25.4132 8.32922 24.9501V24.1122H21.6571V24.9501C21.6571 25.4132 22.0316 25.788 22.4942 25.788C23.4194 25.788 24.1684 26.5378 24.1684 27.4639C24.1684 28.3901 23.4194 29.1398 22.4942 29.1398C22.0316 29.1398 21.6571 29.5147 21.6571 29.9777V32.0285C21.6571 32.4916 21.4588 32.9546 21.1063 33.2634L17.6917 36.2402C17.3833 36.5049 17.0088 36.6592 16.6123 36.6372H13.396C12.9995 36.6372 12.6029 36.4828 12.3166 36.2182L8.92401 33.2413C8.57154 32.9326 8.35125 32.4695 8.35125 32.0064L8.32922 32.0285ZM3.10823 42.7674C4.09955 41.7751 6.63295 40.893 8.50545 40.3858L7.84457 41.753C7.62427 42.2161 7.60224 42.7453 7.84457 43.2084L10.2678 48.3242H7.51412V47.4863C7.51412 47.0232 7.13962 46.6483 6.677 46.6483C6.21439 46.6483 5.83989 47.0232 5.83989 47.4863V48.3242H1.67631C1.83052 45.5458 2.35923 43.5171 3.10823 42.7674Z" fill="#153860"/>
<path d="M33.3102 14.9832C33.7728 14.9832 34.1473 14.6083 34.1473 14.1452C34.1473 13.2191 34.8963 12.4693 35.8216 12.4693C36.2842 12.4693 36.6587 12.0945 36.6587 11.6314C36.6587 11.1683 36.2842 10.7935 35.8216 10.7935C33.9931 10.7935 32.4951 12.2929 32.4951 14.1232C32.4951 14.5862 32.8696 14.9611 33.3322 14.9611L33.3102 14.9832Z" fill="#153860"/>
<path d="M35.7994 20.8271C39.4783 20.8271 42.4523 17.8502 42.4523 14.1677C42.4523 10.4852 39.4783 7.5083 35.7994 7.5083C32.1205 7.5083 29.1465 10.4852 29.1465 14.1677C29.1465 17.8502 32.1205 20.8271 35.7994 20.8271ZM35.7994 9.16213C38.5531 9.16213 40.8001 11.4113 40.8001 14.1677C40.8001 16.9241 38.5531 19.1733 35.7994 19.1733C33.0457 19.1733 30.7987 16.9241 30.7987 14.1677C30.7987 11.4113 33.0457 9.16213 35.7994 9.16213Z" fill="#153860"/>
<path d="M49.6995 16.9237C50.7129 11.7858 48.8183 6.51557 44.7869 3.20791C40.7555 -0.0997488 35.2041 -0.915638 30.3796 1.06896C25.5552 3.0756 22.2287 7.57402 21.7 12.7781C21.656 13.2191 22.0084 13.616 22.449 13.6601C22.8896 13.7042 23.3082 13.3734 23.3522 12.9324C23.9691 6.27301 29.7187 1.28947 36.3937 1.59818C43.0686 1.9069 48.3116 7.46376 48.2676 14.1452C48.2676 14.6965 48.2235 15.2698 48.1354 15.8211H45.7782C44.7649 15.8211 43.8617 16.4606 43.4872 17.3867C42.1654 20.4739 39.1474 22.5026 35.7769 22.5026C32.4063 22.5026 29.3883 20.4959 28.0665 17.3867C27.67 16.4606 26.7668 15.8432 25.7534 15.8432H25.1366C24.674 15.8432 24.2995 16.218 24.2995 16.6811C24.2995 17.1442 24.674 17.519 25.1366 17.519H25.7534C26.1059 17.519 26.4143 17.7396 26.5465 18.0483C28.1106 21.7528 31.7675 24.1785 35.7989 24.1785C39.8303 24.1785 43.4652 21.7749 45.0513 18.0483C45.1835 17.7396 45.4919 17.519 45.8223 17.519H47.849C46.351 22.9216 41.4164 26.6702 35.8209 26.6702C33.0232 26.6702 30.2915 25.7441 28.0886 23.98C27.7361 23.6933 27.2074 23.7595 26.921 24.1123C26.6346 24.4651 26.7007 24.9944 27.0532 25.281C28.419 26.3615 29.9831 27.1774 31.6573 27.6846V30.8158H29.168C26.4143 30.8158 24.1673 33.065 24.1673 35.8214C24.1673 36.7476 24.9163 37.4973 25.8416 37.4973H45.7342C46.6594 37.4973 47.4084 36.7476 47.4084 35.8214C47.4084 33.065 45.1614 30.8158 42.4077 30.8158H40.0065V27.6846C44.9852 26.1631 48.7082 22.0175 49.7436 16.9237H49.6995ZM45.7122 35.8214H25.8195C25.8195 33.9912 27.3175 32.4917 29.146 32.4917H42.3857C44.2142 32.4917 45.7122 33.9912 45.7122 35.8214ZM38.3102 30.8379H33.3096V28.1256C34.1246 28.28 34.9618 28.3461 35.7989 28.3461C36.636 28.3461 37.4731 28.28 38.2882 28.1256V30.8599L38.3102 30.8379Z" fill="#153860"/>
</svg>
