<svg width="44" height="50" viewBox="0 0 44 50" fill="none" xmlns="http://www.w3.org/2000/svg">
<path d="M12.0836 32.9207C8.20364 32.9207 5.07324 36.0762 5.07324 39.9379C5.42596 49.2279 18.7632 49.2279 19.116 39.9379C19.116 36.0541 15.9635 32.9207 12.1056 32.9207H12.0836ZM12.0836 45.1897C5.16142 44.9691 5.18347 34.9287 12.0836 34.7301C19.0057 34.9508 18.9837 44.9911 12.0836 45.1897Z" fill="#153860"/>
<path d="M12.0838 13.2588C10.3863 13.2588 9.01953 14.6269 9.01953 16.3261C9.01953 18.0252 10.3863 19.3933 12.0838 19.3933C13.7813 19.3933 15.1481 18.0252 15.1481 16.3261C15.1481 14.6269 13.7813 13.2588 12.0838 13.2588ZM12.0838 17.6059C11.3784 17.6059 10.8052 17.0322 10.8052 16.3261C10.8052 15.6199 11.3784 15.0462 12.0838 15.0462C12.7892 15.0462 13.3624 15.6199 13.3624 16.3261C13.3624 17.0322 12.7892 17.6059 12.0838 17.6059Z" fill="#153860"/>
<path d="M42.7042 44.1304H41.5137C40.0147 44.1304 38.6258 43.336 37.8542 42.0341L31.0203 30.4711C29.5432 27.9776 26.8537 26.4329 23.9438 26.4329H20.9236V19.4599H22.2904C23.3265 19.4599 24.1642 18.5993 24.1642 17.5401C24.1642 17.1208 24.0099 16.7236 23.7674 16.3926L14.1558 4.30007C13.2519 3.15261 11.5765 2.95401 10.4302 3.88081C10.2758 4.01321 10.1436 4.14561 10.0113 4.30007L0.421686 16.2823C-0.239666 17.0987 -0.107396 18.2903 0.708273 18.9303C1.03895 19.1951 1.45781 19.3495 1.89871 19.3495H3.24346V30.3387C2.60415 30.7139 2.22938 31.3979 2.22938 32.1261V47.7052C2.22938 48.8527 3.15528 49.8015 4.32367 49.8015H19.8875C21.0338 49.8015 21.9818 48.8747 21.9818 47.7052V32.1261C21.9818 32.1261 21.9818 31.9275 21.9597 31.8172H22.7974C24.3406 31.8172 25.7735 32.6337 26.5672 33.9577L33.6657 45.8957C35.1868 48.4334 37.9204 50.0001 40.8744 50.0001H42.7262C43.2112 50.0001 43.6301 49.6029 43.6301 49.0954V44.991C43.6301 44.5055 43.2332 44.0863 42.7262 44.0863L42.7042 44.1304ZM15.1478 30.0739H9.06336V22.2403H15.1478V30.0739ZM16.0296 20.4529H8.15951C7.67452 20.4529 7.25566 20.8501 7.25566 21.3576V30.0739H5.02911V18.8199L12.0394 10.6111L19.138 18.9082V30.0739H16.9114V21.3355C16.9114 20.8501 16.5146 20.4308 16.0076 20.4308L16.0296 20.4529ZM1.89871 17.6063C1.89871 17.6063 1.78848 17.5621 1.78848 17.4959C1.78848 17.4739 1.78848 17.4518 1.81053 17.4297L11.3781 5.44754C11.6867 5.07241 12.2158 5.02828 12.5906 5.31514C12.6347 5.35928 12.6788 5.40341 12.7228 5.44754L22.3345 17.5401C22.3345 17.5401 22.3565 17.6283 22.3345 17.6725C22.3345 17.6725 22.2904 17.6945 22.2684 17.6945H20.4166L13.3622 9.46368C12.7449 8.73548 11.6426 8.64721 10.9151 9.26508C10.849 9.33128 10.7829 9.37541 10.7388 9.44161L3.68436 17.5842H1.85462L1.89871 17.6063ZM20.1741 47.7493C20.1741 47.9259 20.0418 48.0583 19.8655 48.0583H4.30162C4.12526 48.0583 3.99299 47.9259 3.99299 47.7493V32.1703C3.99299 31.9937 4.12526 31.8613 4.30162 31.8613H19.8655C20.0418 31.8613 20.1741 31.9937 20.1741 32.1703V47.7493ZM41.8003 48.2569C39.1549 48.5437 36.5536 47.308 35.1647 45.0351L28.0662 33.0971C26.9419 31.2214 24.9358 30.096 22.7754 30.0739H20.9457V28.2203H23.9658C26.2365 28.2203 28.3528 29.434 29.4992 31.3759L36.3331 42.9388C37.4795 44.8586 39.5738 46.0061 41.8224 45.9178V48.2348L41.8003 48.2569Z" fill="#153860"/>
<path d="M26.2367 9.66213C26.4131 9.83867 26.6335 9.92693 26.876 9.92693H38.7143C39.7724 9.79453 40.2354 8.3602 40.2574 7.4334C40.2574 5.977 39.2874 4.7192 37.8765 4.34406C37.4356 1.5416 34.7902 -0.378201 31.9905 0.0631324C29.786 0.416199 28.0665 2.1374 27.7138 4.34406C25.9942 4.82953 25.0022 6.59487 25.4652 8.31607C25.5974 8.8236 25.862 9.287 26.2367 9.66213ZM28.5294 6.02113C29.0144 6.02113 29.4333 5.62393 29.4333 5.1164C29.4333 3.2628 30.9323 1.7402 32.8062 1.76227C34.658 1.76227 36.157 3.2628 36.157 5.1164C36.157 5.60187 36.5538 6.02113 37.0609 6.02113C37.8545 6.02113 38.4718 6.66107 38.4718 7.4334C38.4718 7.67613 38.4056 7.91887 38.2734 8.13953H27.2949C26.8981 7.45547 27.1406 6.59486 27.824 6.19767C28.0444 6.08733 28.2649 6.02113 28.5074 6.02113H28.5294Z" fill="#153860"/>
</svg>
