<svg width="52" height="40" viewBox="0 0 52 40" fill="none" xmlns="http://www.w3.org/2000/svg">
<path d="M45.5179 25.8244C45.363 25.2436 45.1501 24.6435 44.8597 24.0434C43.6982 21.6429 41.1041 19.9587 40.3879 17.3259C39.8845 15.4675 40.775 13.7445 41.0267 11.9442C41.2977 9.91152 40.7944 8.11116 39.6135 6.44632C38.0842 4.27814 35.7224 2.8456 33.2639 1.9551C32.0249 1.50985 30.7279 1.20011 29.4115 1.00652C28.0951 0.812937 26.7787 0.793579 25.4429 0.793579C17.7963 0.793579 9.91728 3.23277 4.69044 9.0791C0.450886 13.822 -1.25268 20.3459 0.992929 26.4438C3.97417 34.5358 13.8277 38.7366 21.8422 39.7239C27.0304 40.3627 32.7218 39.9368 37.6002 37.9816C42.498 36.0264 46.8924 31.2448 45.5179 25.8437V25.8244ZM35.3159 31.148C33.2639 30.8383 31.8507 28.9218 32.1604 26.8697C32.4701 24.8177 34.3867 23.4045 36.4387 23.7143C38.4907 24.024 39.9039 25.9405 39.5941 27.9925C39.2844 30.0446 37.3679 31.4577 35.3159 31.148Z" fill="#8C5F44"/>
<path d="M45.6341 25.0308C45.4792 24.45 45.2663 23.8499 44.9759 23.2498C43.8144 20.8493 41.2203 19.1651 40.5041 16.5323C40.0007 14.6739 40.8912 12.951 41.1429 11.1506C41.4139 9.11794 40.9106 7.31758 39.7297 5.65274C38.2004 3.48456 35.8386 2.05202 33.3801 1.16152C32.1411 0.716272 30.8441 0.406533 29.5277 0.212946C28.2113 0.0193589 26.8949 0 25.5592 0C17.9125 0 10.0335 2.43919 4.80665 8.28552C0.567096 13.0284 -1.13647 19.5523 1.10914 25.6503C4.09038 33.7422 13.9439 37.943 21.9584 38.9303C27.1466 39.5692 32.838 39.1433 37.7164 37.188C42.6142 35.2328 47.0086 30.4512 45.6341 25.0501V25.0308ZM35.4514 30.3544C33.3994 30.0447 31.9862 28.1282 32.296 26.0762C32.6057 24.0241 34.5222 22.6109 36.5743 22.9207C38.6263 23.2304 40.0395 25.1469 39.7297 27.199C39.42 29.251 37.5035 30.6642 35.4514 30.3544Z" fill="#CB9B6B"/>
<path d="M9.78146 19.5717C9.78146 19.5717 9.70403 19.4555 9.64595 19.3975C9.43301 19.1458 9.2007 18.8748 9.12327 18.5457C9.02648 18.1392 9.2007 17.7326 9.22006 17.3261C9.22006 16.6679 8.7361 16.2033 8.15533 15.9323C7.63265 15.7 6.83894 15.487 6.33562 15.8935C6.14203 16.0484 6.00652 16.2614 5.89037 16.4743C5.7355 16.726 5.65806 16.6485 5.38704 16.6679C5.23217 16.6679 5.0773 16.7066 4.92243 16.7647C4.63205 16.8615 4.38039 17.0357 4.20616 17.2874C4.07065 17.4616 4.01257 17.6939 3.97386 17.9068C3.93514 18.1198 3.89642 18.3327 3.78027 18.507C3.66412 18.6812 3.45117 18.7973 3.27694 18.9135C3.12208 19.0103 2.96721 19.1264 2.8317 19.2426C2.69619 19.3588 2.59939 19.5136 2.52196 19.6685C2.44452 19.8621 2.44452 20.075 2.46388 20.288C2.5026 20.6558 2.65747 21.0042 2.92849 21.2559C3.18015 21.4688 3.52861 21.585 3.85771 21.6237C4.03193 21.6237 4.22552 21.6237 4.39975 21.6237C4.61269 21.6044 4.82564 21.5463 5.03859 21.5076C5.27089 21.4495 5.50319 21.4301 5.71614 21.5656C5.90973 21.6818 6.02588 21.856 6.16139 22.0109C6.2969 22.1658 6.45177 22.3013 6.64536 22.3787C6.81958 22.4368 6.99381 22.4755 7.1874 22.5142C7.96175 22.611 8.79417 22.3593 9.37493 21.8367C9.68467 21.5656 9.89762 21.2365 9.99441 20.83C10.1106 20.3848 9.99441 19.9589 9.74275 19.5717H9.78146Z" fill="#6B489D"/>
<g style="mix-blend-mode:multiply" opacity="0.42">
<path d="M9.78134 19.5717C9.78134 19.5717 9.70391 19.4555 9.64583 19.3974C9.43289 19.1458 9.20058 18.8747 9.12315 18.5456C9.02636 18.1391 9.20058 17.7326 9.21994 17.326C9.21994 16.6679 8.73598 16.2032 8.15522 15.9322C8.1165 15.9322 8.07778 15.8935 8.03906 15.8741C8.15521 15.9322 8.25201 16.0097 8.3488 16.1064C8.58111 16.3388 8.77469 16.6485 8.79405 16.9776C8.79405 17.3067 8.6779 17.6164 8.52303 17.9068C8.38752 18.1585 8.21329 18.4295 8.23265 18.7199C8.23265 18.9715 8.40688 19.1651 8.56175 19.3394C8.77469 19.5717 9.04571 19.7652 9.2393 20.0363C9.43289 20.2686 9.5684 20.5589 9.58776 20.8687C9.58776 21.1591 9.52968 21.4688 9.35545 21.7205C9.25866 21.8753 9.14251 21.9915 9.007 22.1076C9.14251 22.0302 9.27802 21.9334 9.41353 21.8173C9.72327 21.5462 9.93621 21.2171 10.033 20.8106C10.1492 20.3654 10.033 19.9395 9.78134 19.5523V19.5717Z" fill="#6B489D"/>
</g>
<g style="mix-blend-mode:multiply" opacity="0.42">
<path d="M6.74215 22.3012C6.60664 22.2044 6.50985 22.0689 6.41305 21.9334C6.21947 21.643 6.10331 21.3139 5.87101 21.0623C5.75486 20.9461 5.63871 20.8493 5.48384 20.7913C5.32897 20.7332 5.1741 20.7332 5.01923 20.7525C4.845 20.7525 4.67077 20.83 4.49654 20.8687C4.32231 20.9268 4.14809 20.9655 3.97386 21.0042C3.64476 21.0816 3.27695 21.0816 2.96721 20.8687C2.71554 20.6945 2.58003 20.4234 2.52196 20.1331C2.5026 19.9782 2.5026 19.8233 2.52196 19.6685C2.44452 19.862 2.44452 20.075 2.46388 20.2686C2.5026 20.6364 2.65747 20.9848 2.92849 21.2365C3.18015 21.4495 3.52861 21.5656 3.85771 21.6043C4.03193 21.6043 4.22552 21.6043 4.39975 21.6043C4.61269 21.585 4.82564 21.5269 5.03859 21.4882C5.27089 21.4301 5.50319 21.4107 5.71614 21.5463C5.90973 21.6624 6.02588 21.8366 6.16139 21.9915C6.2969 22.1464 6.45177 22.2819 6.64536 22.3593C6.76151 22.398 6.8583 22.4368 6.97445 22.4561C6.87766 22.4174 6.78087 22.3593 6.68407 22.3012H6.74215Z" fill="#6B489D"/>
</g>
<path d="M11.0976 17.9842C10.9621 17.81 10.7685 17.7132 10.5556 17.6745C10.2845 17.6358 9.95544 17.6745 9.7425 17.8681C9.54891 18.023 9.45212 18.294 9.49083 18.5456C9.56827 19.0683 10.2845 19.4555 10.7491 19.2038C10.9621 19.0877 11.1363 18.8747 11.1944 18.6424C11.2525 18.4295 11.2331 18.1585 11.0976 17.9842Z" fill="#6B489D"/>
<g style="mix-blend-mode:screen">
<path d="M10.2839 17.9262C10.2839 17.9262 10.2065 17.8681 10.1484 17.8488C10.0903 17.8488 10.0129 17.8488 9.95483 17.8875C9.91611 17.9262 9.87739 17.9843 9.89675 18.0423C9.91611 18.1585 10.0903 18.2553 10.1871 18.1972C10.2452 18.1779 10.2839 18.1198 10.3033 18.0617C10.3033 18.0036 10.3033 17.9455 10.2839 17.9068V17.9262Z" fill="#6B489D"/>
</g>
<g style="mix-blend-mode:multiply" opacity="0.61">
<path d="M11.0976 17.9842C10.9621 17.81 10.7685 17.7132 10.5556 17.6745C10.2845 17.6358 9.95544 17.6745 9.7425 17.8681C9.54891 18.023 9.45212 18.294 9.49083 18.5456C9.56827 19.0683 10.2845 19.4555 10.7491 19.2038C10.9621 19.0877 11.1363 18.8747 11.1944 18.6424C11.2525 18.4295 11.2331 18.1585 11.0976 17.9842ZM10.7491 18.3714C10.7104 18.5069 10.6136 18.6424 10.4781 18.7199C10.1877 18.8747 9.7425 18.6424 9.70378 18.3133C9.68442 18.1585 9.7425 17.9842 9.85865 17.8874C9.99416 17.7713 10.1877 17.7326 10.362 17.7713C10.4975 17.7907 10.6136 17.8487 10.6911 17.9649C10.7685 18.081 10.7879 18.2359 10.7491 18.3714Z" fill="#6B489D"/>
</g>
<g style="mix-blend-mode:screen">
<path d="M2.90895 19.7653C2.90895 19.7653 3.00574 19.746 3.0251 19.7072C3.10254 19.6492 3.12189 19.5717 3.17997 19.4943C3.21869 19.4362 3.29612 19.3975 3.3542 19.3588C3.48971 19.3007 3.64458 19.262 3.79945 19.2233C3.87688 19.2039 3.95432 19.1652 4.01239 19.1071C4.08983 19.049 4.14791 18.9716 4.18662 18.8942C4.26406 18.72 4.28342 18.5457 4.28342 18.3521C4.28342 18.1779 4.32213 17.9843 4.38021 17.8101C4.41893 17.7327 4.43829 17.6552 4.49636 17.5778C4.53508 17.5004 4.59315 17.4423 4.63187 17.3842C4.67059 17.3261 4.70931 17.2293 4.63187 17.21C4.55444 17.1906 4.49636 17.2487 4.43829 17.3068C4.2447 17.5197 4.12855 17.7907 4.07047 18.0618C3.99304 18.3715 3.99304 18.6038 3.70266 18.7974C3.5865 18.8748 3.47035 18.9329 3.3542 18.991C3.12189 19.1265 2.71536 19.3975 2.87023 19.7266C2.87023 19.7266 2.88959 19.7266 2.90895 19.7266V19.7653Z" fill="#6B489D"/>
</g>
<g style="mix-blend-mode:screen">
<path d="M5.03867 17.0744C5.05803 17.1712 5.25162 17.1712 5.3097 17.1712C5.44521 17.1712 5.56136 17.1712 5.69687 17.1518C5.94853 17.1131 6.21955 17.0357 6.41314 16.8808C6.52929 16.8034 6.62609 16.6872 6.70352 16.5711C6.74224 16.513 6.78096 16.4356 6.80031 16.3775C6.81967 16.3 6.83903 16.242 6.85839 16.1645C6.85839 16.1065 6.85839 16.0677 6.81967 16.029C6.78096 15.9903 6.74224 15.9709 6.70352 15.9709C6.6648 15.9709 6.62609 15.9709 6.56801 15.9709C6.41314 16.029 6.31635 16.1839 6.25827 16.3388C6.2002 16.4936 6.16148 16.6485 6.02597 16.7453C5.89046 16.8421 5.73559 16.8808 5.58072 16.9002C5.48392 16.9002 5.01932 16.9582 5.03867 17.0938V17.0744Z" fill="#6B489D"/>
</g>
<g style="mix-blend-mode:screen">
<path d="M3.29591 20.3655C3.29591 20.3655 3.25719 20.1913 3.19912 20.1332C3.14104 20.0751 3.06361 20.017 2.98617 20.0364C2.87002 20.0364 2.77322 20.1332 2.75387 20.23C2.71515 20.3268 2.75387 20.4623 2.81194 20.5397C2.8313 20.5784 2.85066 20.5978 2.88938 20.6172C2.98617 20.6752 3.10232 20.6172 3.17976 20.5784C3.25719 20.5204 3.29591 20.4236 3.29591 20.3268V20.3655Z" fill="#6B489D"/>
</g>
<path d="M9.78135 28.4766C9.58776 28.07 9.10379 27.9152 8.83277 27.5667C8.50367 27.1602 8.6779 26.7924 8.69726 26.3471C8.69726 25.8825 8.3488 25.5728 7.96163 25.3792C7.59381 25.205 7.05177 25.0694 6.70332 25.3405C6.5678 25.4566 6.47101 25.5921 6.39358 25.747C6.29678 25.9212 6.21935 25.8631 6.04512 25.8825C5.92897 25.8825 5.83217 25.9212 5.71602 25.9406C5.52244 26.018 5.32885 26.1342 5.2127 26.3084C5.1159 26.4439 5.07719 26.5794 5.05783 26.7343C5.01911 26.8698 4.99975 27.0247 4.92232 27.1602C4.84488 27.2763 4.70937 27.3731 4.57386 27.4506C4.30284 27.6441 4.05117 27.8377 4.01246 28.1862C3.9931 28.4185 4.05117 28.6508 4.16733 28.8637C4.26412 29.038 4.39963 29.1735 4.57386 29.2703C4.96103 29.4832 5.36757 29.3477 5.7741 29.4445C5.96768 29.4832 6.1032 29.6381 6.25806 29.7736C6.43229 29.9285 6.62588 30.0446 6.83883 30.1221C7.03241 30.1801 7.226 30.2188 7.43894 30.1801C7.65189 30.1608 7.82612 30.0446 8.03906 29.9865C8.31009 29.9091 8.58111 29.9865 8.85213 29.9478C9.45225 29.8704 10.0524 29.2703 9.87814 28.6314C9.87814 28.5734 9.83942 28.5346 9.82006 28.4766H9.78135Z" fill="#44B9E9"/>
<g style="mix-blend-mode:multiply" opacity="0.51">
<path d="M9.8392 28.6317C9.8392 28.6317 9.80048 28.5349 9.78113 28.4768C9.58754 28.0703 9.10357 27.9154 8.83255 27.5669C8.50345 27.1604 8.67768 26.7926 8.69704 26.3473C8.69704 26.0957 8.60025 25.8827 8.44538 25.7085C8.48409 25.8634 8.44538 26.0376 8.3873 26.1925C8.30987 26.3861 8.155 26.5409 8.03884 26.7151C7.90333 26.9087 7.80654 27.141 7.92269 27.3733C8.00013 27.5476 8.19371 27.6637 8.36794 27.7605C8.52281 27.838 8.69704 27.896 8.87127 27.9735C9.16165 28.0896 9.52946 28.2832 9.56818 28.6317C9.58754 28.8446 9.5101 29.0575 9.39395 29.2318C9.25844 29.406 9.08421 29.5609 8.87127 29.6383C8.75512 29.6964 8.63896 29.7157 8.52281 29.7157C8.42602 29.7157 8.30987 29.6964 8.21307 29.677C8.11628 29.6577 8.00013 29.6383 7.88397 29.677C7.78718 29.6964 7.70975 29.7545 7.65167 29.8125C7.57424 29.8706 7.4968 29.9287 7.41937 29.9674C7.32257 30.0255 7.24514 30.0448 7.12899 30.0448C6.89668 30.0448 6.66438 29.948 6.50951 29.7738C6.374 29.619 6.31592 29.406 6.19977 29.2318C6.14169 29.135 6.0449 29.0575 5.94811 29.0188C5.83195 28.9801 5.7158 28.9801 5.59965 28.9801C5.36734 28.9995 5.13504 29.0769 4.90274 29.1156C4.70915 29.135 4.4962 29.1156 4.32198 28.9801C4.22518 28.922 4.14775 28.8252 4.07031 28.7285C4.08967 28.7672 4.10903 28.8059 4.12839 28.864C4.22518 29.0382 4.36069 29.1737 4.53492 29.2705C4.92209 29.4834 5.32863 29.3479 5.73516 29.4447C5.92875 29.4834 6.06426 29.6383 6.21913 29.7738C6.39336 29.9287 6.58694 30.0448 6.79989 30.1223C6.99347 30.1804 7.18706 30.2191 7.40001 30.1804C7.61295 30.161 7.78718 30.0448 8.00013 29.9868C8.27115 29.9093 8.54217 29.9868 8.81319 29.948C9.41331 29.8706 10.0134 29.2705 9.8392 28.6317Z" fill="#44B9E9"/>
</g>
<path d="M9.9933 26.8119C9.8965 26.6957 9.76099 26.6183 9.62548 26.5989C9.43189 26.5602 9.19959 26.5989 9.06408 26.7345C8.92857 26.8506 8.85113 27.0248 8.88985 27.2184C8.94793 27.5862 9.43189 27.8379 9.76099 27.683C9.91586 27.6056 10.032 27.4507 10.0707 27.2959C10.1094 27.141 10.1094 26.9668 10.0127 26.8313L9.9933 26.8119Z" fill="#44B9E9"/>
<g style="mix-blend-mode:screen">
<path d="M9.43291 26.773C9.43291 26.773 9.37484 26.7343 9.33612 26.715C9.2974 26.715 9.23933 26.715 9.20061 26.7537C9.16189 26.773 9.14253 26.8311 9.16189 26.8698C9.16189 26.9473 9.2974 27.0247 9.37484 26.986C9.41355 26.986 9.43291 26.9279 9.45227 26.8892C9.45227 26.8505 9.45227 26.8118 9.45227 26.773H9.43291Z" fill="#44B9E9"/>
</g>
<g style="mix-blend-mode:multiply" opacity="0.51">
<path d="M9.9933 26.8119C9.8965 26.6957 9.76099 26.6183 9.62548 26.5989C9.43189 26.5602 9.19959 26.5989 9.06408 26.7345C8.92857 26.8506 8.85113 27.0248 8.88985 27.2184C8.94793 27.5862 9.43189 27.8379 9.76099 27.683C9.91586 27.6056 10.032 27.4507 10.0707 27.2959C10.1094 27.141 10.1094 26.9668 10.0127 26.8313L9.9933 26.8119ZM9.76099 27.0829C9.72227 27.1797 9.6642 27.2765 9.5674 27.3152C9.37382 27.412 9.06408 27.2571 9.02536 27.0442C9.02536 26.928 9.04472 26.8119 9.14151 26.7538C9.23831 26.6764 9.37382 26.657 9.48997 26.6764C9.58676 26.6764 9.6642 26.7345 9.72227 26.8119C9.78035 26.8893 9.78035 27.0055 9.76099 27.1023V27.0829Z" fill="#44B9E9"/>
</g>
<g style="mix-blend-mode:screen">
<path d="M4.32185 28.0313C4.32185 28.0313 4.37992 28.0313 4.39928 27.9926C4.438 27.9539 4.47672 27.8958 4.51543 27.8571C4.55415 27.8184 4.59287 27.7797 4.65094 27.7603C4.74774 27.7216 4.86389 27.7022 4.96068 27.6635C5.01876 27.6635 5.05747 27.6248 5.09619 27.5861C5.15427 27.5474 5.19299 27.4893 5.21235 27.4312C5.27042 27.3151 5.27042 27.1796 5.28978 27.0634C5.30914 26.9473 5.30914 26.8117 5.36721 26.6956C5.38657 26.6375 5.40593 26.5794 5.44465 26.5407C5.48337 26.4827 5.50273 26.4439 5.54144 26.4052C5.58016 26.3665 5.59952 26.3084 5.54144 26.2891C5.48337 26.2891 5.44465 26.3084 5.40593 26.3471C5.27042 26.502 5.19299 26.6762 5.15427 26.8698C5.11555 27.0828 5.09619 27.257 4.90261 27.3731C4.82517 27.4312 4.74774 27.4699 4.6703 27.5087C4.51543 27.6055 4.22505 27.799 4.3412 28.012C4.3412 28.012 4.34121 28.012 4.36056 28.012L4.32185 28.0313Z" fill="#44B9E9"/>
</g>
<g style="mix-blend-mode:screen">
<path d="M5.79395 26.1729C5.79395 26.1729 5.92946 26.2503 5.98753 26.2503C6.08432 26.2503 6.16176 26.2503 6.25855 26.231C6.43278 26.2116 6.60701 26.1535 6.76188 26.0374C6.83931 25.9793 6.89739 25.9019 6.95547 25.8244C6.97482 25.7857 6.99418 25.7277 7.01354 25.6889C7.01354 25.6502 7.05226 25.5921 7.05226 25.5341C7.05226 25.4954 7.05226 25.4566 7.0329 25.4373C7.01354 25.4179 6.97482 25.3986 6.95547 25.3986C6.93611 25.3986 6.89739 25.3986 6.85867 25.3986C6.76188 25.4373 6.68444 25.5534 6.64573 25.6502C6.60701 25.747 6.56829 25.8632 6.49086 25.9212C6.39406 25.9793 6.29727 26.018 6.18112 26.0374C6.12304 26.0374 5.79395 26.0761 5.8133 26.1729H5.79395Z" fill="#44B9E9"/>
</g>
<g style="mix-blend-mode:screen">
<path d="M4.59284 28.4573C4.59284 28.4573 4.55412 28.3411 4.5154 28.3024C4.47669 28.2637 4.41861 28.225 4.36053 28.225C4.2831 28.225 4.22502 28.3024 4.18631 28.3605C4.16695 28.4379 4.1863 28.5154 4.22502 28.5734C4.22502 28.5928 4.26374 28.6122 4.2831 28.6315C4.34118 28.6702 4.41861 28.6315 4.47669 28.6122C4.53476 28.5734 4.55412 28.5154 4.55412 28.4379L4.59284 28.4573Z" fill="#44B9E9"/>
</g>
<path d="M14.5433 10.5892C14.5433 10.5892 14.4465 10.4537 14.4078 10.3956C14.1949 10.1246 13.9432 9.85356 13.8658 9.52446C13.769 9.09857 13.9626 8.67268 13.9626 8.24679C13.9626 7.54988 13.4593 7.08527 12.8591 6.81425C12.3171 6.56258 11.504 6.34964 10.9813 6.77553C10.7878 6.9304 10.6522 7.14334 10.5167 7.37565C10.3619 7.64667 10.2651 7.54988 9.99405 7.56923C9.83918 7.56923 9.66495 7.60795 9.51008 7.66603C9.2197 7.76282 8.94868 7.95641 8.75509 8.20807C8.61958 8.40166 8.5615 8.6146 8.50343 8.84691C8.46471 9.05985 8.42599 9.29216 8.29048 9.46639C8.17433 9.65997 7.96138 9.77613 7.7678 9.89228C7.61293 10.0084 7.4387 10.1052 7.30319 10.2407C7.16768 10.3569 7.05153 10.5118 6.99345 10.686C6.91602 10.8989 6.89666 11.1119 6.93537 11.3248C6.97409 11.712 7.12896 12.0798 7.41934 12.3121C7.69036 12.5444 8.03882 12.6606 8.38728 12.6799C8.58086 12.6799 8.77445 12.6799 8.94868 12.6799C9.18098 12.6606 9.39393 12.6025 9.60687 12.5638C9.85854 12.5057 10.0908 12.4863 10.3231 12.6219C10.5167 12.738 10.6522 12.9122 10.7878 13.0865C10.9233 13.2413 11.0975 13.3962 11.2911 13.4736C11.4653 13.5511 11.6589 13.5898 11.8525 13.6091C12.6462 13.7059 13.5173 13.4543 14.1174 12.9122C14.4272 12.6412 14.6595 12.2928 14.7563 11.8862C14.8724 11.4216 14.7563 10.9764 14.4853 10.5892H14.5433Z" fill="#3E64AF"/>
<g style="mix-blend-mode:multiply" opacity="0.42">
<path d="M14.5435 10.5891C14.5435 10.5891 14.4467 10.4536 14.408 10.3955C14.1951 10.1245 13.9434 9.85349 13.866 9.5244C13.7692 9.09851 13.9628 8.67261 13.9628 8.24672C13.9628 7.54981 13.4594 7.0852 12.8593 6.81418C12.8206 6.81418 12.7819 6.77546 12.7432 6.7561C12.8593 6.83354 12.9561 6.91097 13.0529 6.98841C13.3046 7.24007 13.4982 7.54981 13.5175 7.89827C13.5369 8.24672 13.4014 8.57582 13.2465 8.8662C13.0916 9.11786 12.9174 9.40825 12.9367 9.71798C12.9561 9.96965 13.111 10.1826 13.2852 10.3762C13.5175 10.6278 13.7885 10.8214 13.9821 11.0925C14.1757 11.3441 14.3112 11.6345 14.3306 11.9442C14.3306 12.254 14.2531 12.5637 14.0983 12.8154C14.0015 12.9702 13.8853 13.1058 13.7498 13.2219C13.9047 13.1445 14.0402 13.0283 14.1757 12.9315C14.4854 12.6605 14.7177 12.312 14.8145 11.9055C14.9307 11.4409 14.8145 10.9957 14.5435 10.6085V10.5891Z" fill="#6B489D"/>
</g>
<g style="mix-blend-mode:multiply" opacity="0.42">
<path d="M11.3884 13.3961C11.2529 13.2993 11.1367 13.1638 11.0399 13.0283C10.8464 12.7379 10.7108 12.3895 10.4785 12.1378C10.3624 12.0023 10.2269 11.9055 10.072 11.8474C9.91714 11.7893 9.74292 11.7893 9.58805 11.8087C9.39446 11.8281 9.22023 11.8861 9.046 11.9442C8.87177 12.0023 8.69755 12.0604 8.50396 12.0991C8.1555 12.1765 7.76833 12.1765 7.47795 11.9636C7.22629 11.7893 7.07142 11.499 7.0327 11.2086C7.01334 11.0537 7.01334 10.8795 7.0327 10.7246C6.95526 10.9182 6.95526 11.1311 6.97462 11.3441C7.01334 11.7313 7.16821 12.0991 7.45859 12.3314C7.72961 12.5637 8.07807 12.6798 8.42652 12.6992C8.62011 12.6992 8.8137 12.6992 8.98793 12.6992C9.22023 12.6798 9.43318 12.6218 9.64612 12.583C9.89778 12.525 10.1301 12.5056 10.3624 12.6411C10.556 12.7573 10.6915 12.9315 10.827 13.1057C10.9625 13.2606 11.1367 13.4155 11.3303 13.4929C11.4465 13.5316 11.5626 13.5703 11.6788 13.5897C11.582 13.551 11.4658 13.4929 11.3884 13.4155V13.3961Z" fill="#6B489D"/>
</g>
<path d="M15.8996 8.92438C15.7641 8.73079 15.5705 8.634 15.3382 8.59528C15.0478 8.55656 14.7187 8.59528 14.4864 8.78886C14.2735 8.96309 14.1767 9.23411 14.2154 9.50514C14.2928 10.0472 15.0285 10.4344 15.5124 10.1827C15.7447 10.0665 15.8996 9.85359 15.977 9.60193C16.0545 9.36963 16.0351 9.11796 15.8802 8.90502L15.8996 8.92438Z" fill="#3E64AF"/>
<g style="mix-blend-mode:screen">
<path d="M15.0663 8.86638C15.0663 8.86638 14.9889 8.8083 14.9308 8.78894C14.8534 8.78894 14.7759 8.78894 14.7372 8.82766C14.6791 8.86638 14.6598 8.94381 14.6791 9.00189C14.6985 9.1374 14.8727 9.23419 14.9889 9.15676C15.0469 9.1374 15.0857 9.07932 15.105 9.02124C15.105 8.96317 15.105 8.90509 15.0857 8.86638H15.0663Z" fill="#3E64AF"/>
</g>
<g style="mix-blend-mode:multiply" opacity="0.42">
<path d="M15.8996 8.92438C15.7641 8.73079 15.5705 8.634 15.3382 8.59528C15.0478 8.55656 14.7187 8.59528 14.4864 8.78886C14.2735 8.96309 14.1767 9.23411 14.2154 9.50514C14.2928 10.0472 15.0285 10.4344 15.5124 10.1827C15.7447 10.0665 15.8996 9.85359 15.977 9.60193C16.0545 9.36963 16.0351 9.11796 15.8802 8.90502L15.8996 8.92438ZM15.5511 9.33091C15.5124 9.48578 15.3963 9.62129 15.2608 9.67936C14.951 9.83423 14.5058 9.60193 14.4477 9.25347C14.4283 9.0986 14.4864 8.92438 14.6219 8.80822C14.7574 8.69207 14.9704 8.65335 15.1446 8.69207C15.2801 8.71143 15.4156 8.76951 15.4931 8.88566C15.5899 9.00181 15.5899 9.17604 15.5511 9.31155V9.33091Z" fill="#6B489D"/>
</g>
<g style="mix-blend-mode:screen">
<path d="M7.43838 10.7634C7.43838 10.7634 7.53518 10.7441 7.57389 10.7053C7.65133 10.6473 7.67069 10.5698 7.72876 10.4924C7.78684 10.4343 7.84492 10.3956 7.92235 10.3569C8.05786 10.2794 8.23209 10.2601 8.38696 10.2214C8.46439 10.202 8.54183 10.1633 8.5999 10.1052C8.67734 10.0471 8.73542 9.9697 8.77413 9.87291C8.85157 9.69868 8.87093 9.5051 8.89028 9.31151C8.89028 9.11792 8.929 8.94369 8.98708 8.75011C9.0258 8.67267 9.06451 8.59524 9.10323 8.5178C9.14195 8.44037 9.20002 8.38229 9.2581 8.30486C9.29682 8.24678 9.33554 8.14999 9.2581 8.13063C9.18067 8.11127 9.10323 8.16935 9.06451 8.22742C8.85157 8.44037 8.75477 8.73075 8.67734 9.02113C8.5999 9.35023 8.59991 9.58253 8.29017 9.79548C8.17401 9.87291 8.05786 9.93099 7.94171 9.98906C7.7094 10.1246 7.28351 10.415 7.43838 10.7441C7.43838 10.7441 7.45774 10.7441 7.4771 10.7441L7.43838 10.7634Z" fill="#3E64AF"/>
</g>
<g style="mix-blend-mode:screen">
<path d="M9.64607 7.97568C9.66543 8.07247 9.85902 8.07247 9.93645 8.09183C10.072 8.09183 10.2075 8.09183 10.343 8.05311C10.614 8.0144 10.8657 7.93696 11.098 7.76273C11.2141 7.6853 11.3109 7.56915 11.3884 7.453C11.4271 7.39492 11.4658 7.31748 11.4851 7.24005C11.5045 7.16261 11.5432 7.08518 11.5432 7.00774C11.5432 6.94967 11.5432 6.89159 11.5045 6.85288C11.4658 6.81416 11.4271 6.7948 11.3884 6.7948C11.3496 6.7948 11.2916 6.7948 11.2528 6.7948C11.098 6.85288 11.0012 7.0271 10.9237 7.16261C10.8657 7.31748 10.827 7.47235 10.6721 7.58851C10.5366 7.6853 10.3817 7.72402 10.2075 7.76273C10.1107 7.78209 9.62671 7.82081 9.64607 7.95632V7.97568Z" fill="#3E64AF"/>
</g>
<g style="mix-blend-mode:screen">
<path d="M7.82584 11.4024C7.82584 11.4024 7.78712 11.2282 7.72904 11.1508C7.67097 11.0927 7.59353 11.0346 7.49674 11.054C7.38059 11.054 7.28379 11.1508 7.24508 11.2669C7.20636 11.3637 7.24508 11.4992 7.30315 11.596C7.32251 11.6347 7.36123 11.6541 7.38059 11.6928C7.47738 11.7509 7.59353 11.7122 7.67097 11.6541C7.7484 11.596 7.78712 11.4992 7.78712 11.4024H7.82584Z" fill="#3E64AF"/>
</g>
<path d="M36.1861 13.6865C36.0893 13.7059 35.9732 13.7253 35.857 13.7059C35.6828 13.6865 35.5279 13.6478 35.3537 13.6478C35.1795 13.6478 35.0053 13.7059 34.9278 13.8608C34.773 14.1124 34.9278 14.4222 34.9278 14.6738C34.9278 14.9061 34.8697 15.1384 34.6568 15.2352C34.5019 15.2933 34.3277 15.2933 34.1728 15.274C33.6308 15.1965 33.1081 14.9449 32.7403 14.519C32.5273 14.2673 32.3725 13.9963 32.0627 13.8608C31.7143 13.7059 31.2884 13.7446 30.9012 13.8221C30.0301 13.9769 29.1009 14.0544 28.6169 13.1445C28.3265 12.6025 28.4233 11.8862 28.8298 11.4216C29.2557 10.9376 30.1462 10.5698 29.701 9.79545C29.5655 9.56315 29.3719 9.33084 29.4106 9.04046C29.5461 8.03381 31.1529 9.09854 31.6949 8.88559C32.6822 8.47906 33.1275 7.43369 34.2696 7.3369C34.773 7.29818 35.315 7.43369 35.7215 7.74343C36.0119 7.93702 36.2442 8.2274 36.341 8.57585C36.4572 9.00175 36.1668 9.3502 36.0313 9.73737C35.857 10.202 36.0313 10.5504 36.3604 10.8989C36.7669 11.3248 37.0766 11.9055 37.0379 12.5057C36.9992 13.009 36.6507 13.5704 36.1474 13.7059L36.1861 13.6865Z" fill="#19BEC9"/>
<g style="mix-blend-mode:multiply">
<path d="M29.3147 11.1894C29.4696 11.1314 29.6438 11.0733 29.7987 10.9959C30.0697 10.8797 30.3795 10.7055 30.3795 10.357C30.3795 10.2409 30.3407 10.1247 30.244 10.0279C30.1665 9.93113 30.0504 9.87305 29.9536 9.81497C29.8568 9.7569 29.7406 9.69882 29.6438 9.64075C29.6825 9.69882 29.7019 9.73754 29.7406 9.79562C30.1665 10.5312 29.3535 10.9184 28.9082 11.3637C29.0244 11.2862 29.1792 11.2282 29.3147 11.1701V11.1894Z" fill="#19BEC9"/>
</g>
<g style="mix-blend-mode:multiply">
<path d="M37.0771 12.4864C37.1158 11.8863 36.8254 11.2862 36.3996 10.8796C36.0705 10.5312 35.8962 10.2021 36.0705 9.71811C36.206 9.33093 36.4963 8.98247 36.3802 8.55658C36.3028 8.30492 36.1479 8.07262 35.9543 7.87903C35.9737 7.91775 36.0124 7.97582 36.0317 8.01454C36.1092 8.16941 36.1285 8.34364 36.1285 8.49851C36.1285 8.69209 36.0511 8.86632 35.9349 9.02119C35.8769 9.11798 35.7994 9.19542 35.7414 9.29221C35.6833 9.36965 35.6252 9.44708 35.5865 9.54388C35.5091 9.69875 35.4316 9.85362 35.4123 10.0278C35.3542 10.3957 35.5671 10.7054 35.8382 10.9377C35.993 11.0732 36.1479 11.1894 36.2834 11.3249C36.4189 11.4604 36.5544 11.5959 36.6512 11.7508C36.8642 12.0605 36.9416 12.4477 36.7867 12.8155C36.6512 13.1446 36.3221 13.4543 35.9349 13.4156C35.7994 13.4156 35.6639 13.3575 35.5478 13.2995C35.3929 13.2414 35.2574 13.164 35.1025 13.1252C34.967 13.0865 34.8121 13.0478 34.6766 13.0865C34.5218 13.1252 34.425 13.2801 34.3863 13.4156C34.3475 13.5898 34.425 13.7641 34.483 13.9383C34.5605 14.1125 34.6379 14.2868 34.6573 14.461C34.6573 14.5965 34.6573 14.7514 34.5992 14.8675C34.5605 14.945 34.5218 15.0224 34.4443 15.0805C34.3088 15.1773 34.154 15.1192 34.0184 15.0611C33.8249 14.9643 33.67 14.7901 33.5151 14.6352C33.3409 14.4416 33.186 14.248 33.0311 14.0545C32.8956 13.8802 32.7795 13.7254 32.644 13.5511C32.6053 13.5124 32.5665 13.4543 32.5278 13.4156C32.5085 13.3963 32.4891 13.3769 32.4504 13.3575C32.3536 13.2995 32.2568 13.2414 32.1406 13.222C31.7148 13.1252 31.2889 13.2801 30.9017 13.435C30.7081 13.5124 30.5145 13.5898 30.3016 13.6286C30.1467 13.6673 29.9725 13.6866 29.8176 13.706C29.5272 13.706 29.2175 13.6866 28.9658 13.5511C29.4885 14.0157 30.2241 13.9383 30.921 13.8028C31.2889 13.7254 31.7148 13.6866 32.0826 13.8415C32.3923 13.977 32.5472 14.2674 32.7601 14.4997C33.1279 14.9256 33.6313 15.1773 34.1927 15.2547C34.3475 15.274 34.5218 15.274 34.6766 15.216C34.9089 15.1192 34.9477 14.8869 34.9477 14.6546C34.9477 14.3835 34.7734 14.0738 34.9477 13.8415C35.0444 13.706 35.2187 13.6479 35.3735 13.6286C35.5478 13.6286 35.7026 13.6673 35.8769 13.6866C35.993 13.6866 36.0898 13.6866 36.206 13.6673C36.7093 13.5318 37.0578 12.9704 37.0965 12.467L37.0771 12.4864Z" fill="#19BEC9"/>
</g>
<path d="M37.1741 14.6351C37.1161 14.3448 36.9031 14.0931 36.5934 14.0737C36.303 14.0544 35.9545 14.1705 35.7609 14.4028C35.6061 14.5964 35.548 14.8674 35.6061 15.0997C35.6448 15.274 35.7609 15.4482 35.9158 15.545C36.4579 15.8741 37.2322 15.3127 37.1741 14.7126C37.1741 14.6932 37.1741 14.6739 37.1741 14.6545V14.6351Z" fill="#19BEC9"/>
<g style="mix-blend-mode:multiply">
<path d="M37.1927 14.7125C37.1927 14.7125 37.1927 14.6738 37.1927 14.6544C37.1346 14.364 36.9217 14.1124 36.6119 14.093C36.3215 14.0737 35.9731 14.1898 35.7795 14.4221C35.6246 14.6157 35.5666 14.8867 35.6246 15.119C35.6633 15.2933 35.7795 15.4675 35.9344 15.5643C36.4764 15.8934 37.2508 15.332 37.1927 14.7319V14.7125ZM35.9537 15.1384C35.9537 15.1384 35.7989 15.0029 35.7795 14.8867C35.7408 14.7512 35.7795 14.5963 35.8763 14.4996C35.9731 14.364 36.1667 14.306 36.3409 14.3253C36.5151 14.3253 36.6313 14.4802 36.6506 14.6351C36.6506 14.6351 36.6506 14.6544 36.6506 14.6738C36.6894 15.0029 36.2635 15.3126 35.9537 15.1384Z" fill="#19BEC9"/>
</g>
<path d="M37.735 13.4736C37.735 13.3768 37.6576 13.2994 37.5414 13.2607C37.4059 13.222 37.1929 13.2607 37.1349 13.3962C37.0574 13.5317 37.1349 13.7059 37.2897 13.764C37.3672 13.8027 37.4446 13.8221 37.5414 13.8027C37.6769 13.764 37.7737 13.6285 37.7543 13.4736H37.735Z" fill="#19BEC9"/>
<path d="M29.1396 10.0279C29.1396 9.8537 29.0816 9.64075 28.9267 9.5246C28.675 9.33101 28.2685 9.4278 28.0362 9.60203C27.8813 9.71818 27.8039 9.8537 27.8232 10.0473C27.8232 10.2215 27.8813 10.4151 28.0168 10.5506C28.2491 10.8216 28.6944 10.8216 28.9267 10.5506C29.0622 10.4151 29.1396 10.2022 29.1396 10.0086V10.0279Z" fill="#19BEC9"/>
<g style="mix-blend-mode:multiply">
<path d="M29.1396 10.0279C29.1396 9.8537 29.0816 9.64075 28.9267 9.5246C28.675 9.33101 28.2685 9.4278 28.0362 9.60203C27.8813 9.71818 27.8039 9.8537 27.8232 10.0473C27.8232 10.2215 27.8813 10.4151 28.0168 10.5506C28.2491 10.8216 28.6944 10.8216 28.9267 10.5506C29.0622 10.4151 29.1396 10.2022 29.1396 10.0086V10.0279ZM28.6169 10.2989C28.4621 10.4538 28.1911 10.4538 28.0555 10.2989C27.9781 10.2215 27.9394 10.1054 27.9394 9.98921C27.9394 9.87305 27.9781 9.77626 28.0749 9.71819C28.2104 9.60203 28.4621 9.56331 28.6169 9.67947C28.7137 9.7569 28.7525 9.87305 28.7331 9.98921C28.7331 10.1054 28.6944 10.2409 28.5976 10.3183L28.6169 10.2989Z" fill="#19BEC9"/>
</g>
<g style="mix-blend-mode:screen">
<path d="M33.2248 8.34357C33.2248 8.34357 33.0506 8.26613 32.9731 8.32421C32.8763 8.38229 32.7989 8.47908 32.7408 8.55651C32.6634 8.61459 32.6053 8.65331 32.5472 8.71138C32.4117 8.82754 32.2762 8.92433 32.1214 8.98241C31.9665 9.05984 31.7923 9.09856 31.618 9.09856C31.4438 9.09856 31.2502 9.05984 31.0953 8.98241C30.9792 8.92433 30.8437 8.84689 30.7082 8.86625C30.6114 8.86625 30.5146 8.92433 30.4759 9.00177C30.3984 9.15664 30.592 9.33086 30.6888 9.42766C30.805 9.54381 30.9405 9.65996 31.076 9.71804C31.347 9.83419 31.6567 9.85355 31.9471 9.79547C32.2375 9.7374 32.5085 9.60188 32.7215 9.4083C32.8183 9.3115 32.9151 9.21471 32.9925 9.09856C33.0699 8.98241 33.1667 8.84689 33.2054 8.71138C33.2442 8.59523 33.3022 8.44036 33.2054 8.32421L33.2248 8.34357Z" fill="#19BEC9"/>
</g>
<g style="mix-blend-mode:screen">
<path d="M33.979 7.78229C33.9403 7.68549 33.8242 7.62742 33.7274 7.64678C33.6886 7.64678 33.6693 7.64678 33.6306 7.66613C33.5725 7.66613 33.5144 7.70485 33.4757 7.74357C33.4176 7.80165 33.3789 7.89844 33.3789 7.99523C33.3789 8.03395 33.3983 8.09203 33.437 8.11139C33.4757 8.1501 33.5338 8.1501 33.5725 8.1501C33.6693 8.1501 33.7854 8.09203 33.8435 8.03395C33.9209 7.97587 33.979 7.87908 33.9597 7.78229H33.979Z" fill="#19BEC9"/>
</g>
<path d="M30.6301 35.6587C30.4946 35.6974 30.3591 35.6974 30.2236 35.678C30.0106 35.6587 29.7977 35.6006 29.5848 35.6006C29.3718 35.6006 29.1395 35.678 29.0234 35.8716C28.8298 36.1813 29.0234 36.5879 29.0427 36.917C29.0427 37.2074 28.9846 37.5171 28.6943 37.6333C28.5007 37.7107 28.2877 37.7107 28.0748 37.6913C27.3779 37.5945 26.7003 37.2654 26.2357 36.7234C25.9647 36.4137 25.7711 36.0458 25.3839 35.8716C24.9193 35.6587 24.3773 35.7361 23.9127 35.8135C22.8092 36.0265 21.5896 36.1233 20.9895 34.9424C20.6217 34.2455 20.7378 33.3356 21.2605 32.7549C21.8026 32.1354 22.9447 31.6708 22.3833 30.6641C22.2091 30.3544 21.9574 30.064 22.0155 29.6768C22.2091 28.3798 24.2611 29.7543 24.9387 29.4832C26.197 28.9606 26.7777 27.6248 28.249 27.4893C28.9072 27.4312 29.5848 27.6248 30.1268 27.9926C30.4946 28.2443 30.8044 28.6121 30.9205 29.0574C31.0754 29.6188 30.7076 30.0446 30.514 30.548C30.301 31.1481 30.514 31.5933 30.9399 32.0192C31.4626 32.5613 31.8497 33.3163 31.7916 34.0906C31.7529 34.7294 31.2883 35.4651 30.6495 35.6393L30.6301 35.6587Z" fill="#F6CB44"/>
<g style="mix-blend-mode:multiply">
<path d="M21.8227 32.4453C22.0356 32.3679 22.2486 32.2904 22.4421 32.213C22.7906 32.0581 23.1778 31.8258 23.1778 31.3999C23.1778 31.245 23.1197 31.1095 23.0035 30.9934C22.8874 30.8772 22.7519 30.7804 22.6357 30.703C22.5002 30.6256 22.3647 30.5481 22.2486 30.4707C22.2873 30.5288 22.326 30.6062 22.3647 30.6643C22.9067 31.6129 21.8614 32.0968 21.3193 32.6776C21.4742 32.5808 21.6484 32.5034 21.8227 32.4453Z" fill="#F6CB44"/>
</g>
<g style="mix-blend-mode:multiply">
<path d="M31.7731 34.11C31.8312 33.3356 31.444 32.5806 30.9213 32.0386C30.4954 31.5933 30.2825 31.1674 30.4954 30.5673C30.6696 30.0834 31.0375 29.6381 30.9019 29.0767C30.8052 28.7476 30.6116 28.4572 30.3599 28.2056C30.3986 28.2636 30.418 28.3217 30.4567 28.3798C30.5535 28.5734 30.5922 28.7863 30.5728 28.9993C30.5728 29.2509 30.4567 29.4832 30.3405 29.6768C30.2631 29.793 30.1663 29.9091 30.0889 30.0253C30.0114 30.1221 29.9534 30.2382 29.8759 30.335C29.7598 30.5286 29.6823 30.7222 29.6436 30.9545C29.5856 31.4191 29.8566 31.8256 30.1857 32.1354C30.3793 32.3096 30.5728 32.4645 30.7664 32.6387C30.9407 32.8129 31.1149 32.9872 31.2504 33.2001C31.5021 33.6066 31.6182 34.11 31.4246 34.5552C31.2504 34.9811 30.8245 35.3683 30.3405 35.3296C30.1663 35.3296 29.9921 35.2521 29.8372 35.1747C29.6436 35.0973 29.4694 35.0005 29.2758 34.9424C29.1016 34.8843 28.908 34.8456 28.7338 34.9037C28.5402 34.9618 28.4047 35.136 28.366 35.3296C28.3272 35.5619 28.4047 35.7942 28.5015 35.9878C28.5983 36.2007 28.6951 36.433 28.7338 36.6653C28.7531 36.8395 28.7338 37.0331 28.6563 37.188C28.6176 37.2848 28.5595 37.3816 28.4627 37.459C28.2885 37.5752 28.0949 37.5171 27.9207 37.4203C27.669 37.2848 27.4755 37.0718 27.2819 36.8783C27.0496 36.646 26.856 36.3943 26.643 36.1233C26.4688 35.9103 26.3139 35.6974 26.1591 35.4844C26.1204 35.4264 26.0623 35.3489 26.0042 35.3102C25.9848 35.2908 25.9461 35.2715 25.9074 35.2521C25.7913 35.1747 25.6557 35.1166 25.5009 35.0779C24.9588 34.9424 24.4168 35.1553 23.9135 35.3489C23.6618 35.4457 23.4101 35.5425 23.1585 35.6006C22.9455 35.6587 22.7519 35.678 22.539 35.6974C22.1712 35.6974 21.784 35.6587 21.4355 35.5038C22.0937 36.0846 23.0423 35.9878 23.9328 35.8329C24.4168 35.7361 24.9588 35.678 25.4041 35.891C25.7913 36.0652 26.0042 36.433 26.2559 36.7427C26.7205 37.2848 27.3787 37.6139 28.0949 37.7107C28.3079 37.73 28.5208 37.7494 28.7144 37.6526C29.0048 37.5171 29.0822 37.2267 29.0629 36.9363C29.0629 36.6072 28.8499 36.2007 29.0435 35.891C29.1597 35.7167 29.392 35.6393 29.6049 35.6199C29.8179 35.6199 30.0308 35.678 30.2437 35.6974C30.3793 35.6974 30.5341 35.6974 30.6503 35.678C31.2891 35.5038 31.7537 34.7875 31.7924 34.1293L31.7731 34.11Z" fill="#F6CB44"/>
</g>
<path d="M31.9082 36.8784C31.8308 36.5105 31.5597 36.1814 31.1726 36.1621C30.7854 36.1427 30.3595 36.2782 30.1078 36.588C29.9143 36.8396 29.8175 37.1881 29.8949 37.4978C29.953 37.7301 30.0885 37.9431 30.2821 38.0592C30.979 38.4851 31.9856 37.7689 31.9082 36.9752C31.9082 36.9558 31.9082 36.9171 31.9082 36.8977V36.8784Z" fill="#F6CB44"/>
<g style="mix-blend-mode:multiply">
<path d="M31.9082 36.9751C31.9082 36.9751 31.9082 36.917 31.9082 36.8976C31.8308 36.5298 31.5597 36.2007 31.1726 36.1814C30.7854 36.162 30.3595 36.2975 30.1078 36.6073C29.9143 36.8589 29.8175 37.2074 29.8949 37.5171C29.953 37.7494 30.0885 37.9624 30.2821 38.0785C30.979 38.5044 31.9856 37.7881 31.9082 36.9944V36.9751ZM30.3401 37.4978C30.224 37.4397 30.1466 37.3042 30.1272 37.188C30.0885 37.0138 30.1272 36.8202 30.2433 36.6847C30.3789 36.5105 30.6112 36.433 30.8241 36.4524C31.0371 36.4524 31.1919 36.646 31.2306 36.8589V36.8976C31.2694 37.3235 30.7273 37.7301 30.3401 37.4978Z" fill="#F6CB44"/>
</g>
<path d="M32.6053 35.3878C32.6053 35.2523 32.4891 35.1555 32.3536 35.1167C32.1794 35.0587 31.9084 35.1167 31.8309 35.291C31.7341 35.4652 31.8309 35.6782 32.0245 35.7749C32.1213 35.833 32.2375 35.8524 32.3343 35.833C32.5085 35.7943 32.644 35.6007 32.6053 35.4071V35.3878Z" fill="#F6CB44"/>
<path d="M21.59 30.9546C21.59 30.7223 21.5125 30.4706 21.3189 30.3158C20.9898 30.0641 20.4865 30.1803 20.1768 30.4126C19.9832 30.5674 19.8864 30.7417 19.9058 30.9933C19.9058 31.2256 19.9832 31.4579 20.1381 31.6515C20.4284 31.9806 20.9898 31.9806 21.2996 31.6709C21.4738 31.4773 21.5706 31.2256 21.5706 30.974L21.59 30.9546Z" fill="#F6CB44"/>
<g style="mix-blend-mode:multiply">
<path d="M21.59 30.9546C21.59 30.7223 21.5125 30.4706 21.3189 30.3158C20.9898 30.0641 20.4865 30.1803 20.1768 30.4126C19.9832 30.5674 19.8864 30.7417 19.9058 30.9933C19.9058 31.2256 19.9832 31.4579 20.1381 31.6515C20.4284 31.9806 20.9898 31.9806 21.2996 31.6709C21.4738 31.4773 21.5706 31.2256 21.5706 30.974L21.59 30.9546ZM20.9318 31.3224C20.7382 31.516 20.3897 31.516 20.2155 31.3224C20.1187 31.2063 20.08 31.0707 20.0606 30.9352C20.0606 30.7804 20.0993 30.6642 20.2348 30.5868C20.4284 30.4513 20.7382 30.3738 20.9318 30.5287C21.0479 30.6255 21.0866 30.7804 21.0866 30.9159C21.0866 31.0707 21.0286 31.2256 20.9124 31.3418L20.9318 31.3224Z" fill="#F6CB44"/>
</g>
<g style="mix-blend-mode:screen">
<path d="M26.8171 28.7864C26.7397 28.6703 26.6041 28.6896 26.488 28.7477C26.3718 28.8252 26.2751 28.9413 26.1783 29.0575C26.0815 29.1155 26.004 29.193 25.9266 29.2704C25.7524 29.4253 25.5781 29.5221 25.3845 29.6189C25.191 29.7157 24.978 29.7737 24.7457 29.7737C24.5134 29.7737 24.2811 29.7157 24.0682 29.6189C23.9133 29.5608 23.7391 29.464 23.5648 29.464C23.4487 29.464 23.3132 29.5221 23.2551 29.6382C23.1583 29.8318 23.41 30.0641 23.5261 30.1803C23.681 30.3351 23.8359 30.4706 24.0294 30.5674C24.3779 30.7223 24.7844 30.7417 25.1522 30.6642C25.5201 30.5868 25.8685 30.4319 26.1589 30.1803C26.2944 30.0641 26.3912 29.9286 26.5074 29.7931C26.6235 29.6382 26.7203 29.4833 26.7977 29.3091C26.8558 29.1542 26.9139 28.9607 26.8171 28.8058V28.7864Z" fill="#F6CB44"/>
</g>
<g style="mix-blend-mode:screen">
<path d="M27.8036 28.0896C27.7649 27.9541 27.6101 27.896 27.4745 27.9154C27.4358 27.9154 27.3971 27.9154 27.3584 27.9541C27.281 27.9541 27.2035 28.0122 27.1648 28.0509C27.0874 28.1283 27.0293 28.2638 27.0293 28.38C27.0293 28.4381 27.068 28.4961 27.1067 28.5349C27.1648 28.5736 27.2229 28.5929 27.3003 28.5929C27.4358 28.5929 27.552 28.5349 27.6488 28.4381C27.7456 28.3606 27.823 28.2445 27.8036 28.109V28.0896Z" fill="#F6CB44"/>
</g>
<path d="M17.6601 34.1295C17.6601 34.1295 17.5052 34.1489 17.4278 34.1295C17.3116 34.1295 17.1955 34.0908 17.0793 34.0908C16.9632 34.0908 16.847 34.1295 16.7696 34.2263C16.6534 34.4005 16.7696 34.6135 16.7696 34.807C16.7696 34.9619 16.7309 35.1361 16.576 35.1942C16.4792 35.2329 16.3437 35.2329 16.2275 35.2329C15.8404 35.1749 15.4726 35.0006 15.2209 34.7103C15.0854 34.536 14.9692 34.3424 14.7563 34.2456C14.5046 34.1295 14.2142 34.1682 13.9432 34.2069C13.3431 34.3231 12.6655 34.3812 12.3364 33.723C12.1429 33.3358 12.2009 32.8518 12.4913 32.5227C12.7817 32.1936 13.4205 31.9226 13.1108 31.3806C13.014 31.2063 12.8785 31.0515 12.8978 30.8385C12.9946 30.1222 14.1174 30.8772 14.5046 30.7224C15.1822 30.432 15.5113 29.6964 16.3243 29.6383C16.6921 29.5996 17.06 29.7157 17.3503 29.9093C17.5439 30.0448 17.7182 30.2578 17.7956 30.4901C17.873 30.7998 17.6794 31.0321 17.5826 31.3031C17.4665 31.6322 17.5826 31.8645 17.815 32.1162C18.1053 32.4066 18.3183 32.8325 18.2796 33.239C18.2602 33.5875 18.0085 33.994 17.6601 34.0908V34.1295Z" fill="#D13D2A"/>
<g style="mix-blend-mode:multiply">
<path d="M12.8392 32.3678C12.9554 32.3291 13.0715 32.2904 13.1877 32.2323C13.3813 32.1549 13.5942 32.0194 13.5942 31.7871C13.5942 31.6903 13.5555 31.6322 13.4974 31.5548C13.4393 31.4967 13.3619 31.4386 13.2845 31.3999C13.207 31.3612 13.1489 31.3225 13.0715 31.2644C13.0909 31.3031 13.1102 31.3418 13.1296 31.3612C13.42 31.8839 12.8586 32.1549 12.5488 32.4646C12.6263 32.4066 12.7231 32.3679 12.8199 32.3291L12.8392 32.3678Z" fill="#D13D2A"/>
</g>
<g style="mix-blend-mode:multiply">
<path d="M18.2793 33.2776C18.3181 32.8517 18.1051 32.4452 17.8147 32.1548C17.5824 31.9225 17.4663 31.6709 17.5824 31.3418C17.6792 31.0707 17.8728 30.8384 17.7954 30.5287C17.7567 30.3545 17.6405 30.1802 17.4856 30.0641C17.4856 30.1028 17.5244 30.1222 17.5437 30.1609C17.6018 30.277 17.6211 30.3932 17.6018 30.5093C17.6018 30.6448 17.5437 30.761 17.4663 30.8772C17.4276 30.9352 17.3695 30.9933 17.3308 31.0707C17.2921 31.1288 17.2533 31.1869 17.2146 31.245C17.1565 31.3418 17.0985 31.4579 17.0985 31.5741C17.0597 31.8257 17.2146 32.058 17.3888 32.2129C17.4856 32.3097 17.6018 32.3871 17.6986 32.4839C17.7954 32.5807 17.8922 32.6775 17.9502 32.7937C18.0858 33.0066 18.1438 33.297 18.047 33.5293C17.9502 33.7616 17.7179 33.9745 17.4469 33.9552C17.3501 33.9552 17.2533 33.9165 17.1759 33.8777C17.0791 33.839 16.963 33.781 16.8662 33.7422C16.7694 33.7035 16.6726 33.6842 16.5758 33.7229C16.479 33.7616 16.4016 33.8584 16.3628 33.9552C16.3435 34.0713 16.3822 34.2068 16.4403 34.323C16.479 34.4391 16.5371 34.5553 16.5564 34.6908C16.5564 34.7876 16.5564 34.8844 16.5177 34.9812C16.4983 35.0393 16.4596 35.0973 16.4209 35.1167C16.3241 35.1748 16.208 35.1554 16.1305 35.1167C15.995 35.0393 15.8789 34.9231 15.7821 34.8263C15.6659 34.6908 15.5498 34.5553 15.4336 34.4198C15.3368 34.3036 15.2594 34.1875 15.1626 34.0713C15.1432 34.0326 15.1045 33.9939 15.0852 33.9745C15.0852 33.9745 15.0464 33.9552 15.0464 33.9358C14.9884 33.8971 14.9109 33.8584 14.8335 33.839C14.5431 33.7616 14.2334 33.8777 13.9624 33.9939C13.8268 34.052 13.6913 34.0907 13.5365 34.1294C13.4203 34.1488 13.3042 34.1681 13.188 34.1875C12.9944 34.1875 12.7815 34.1875 12.5879 34.0713C12.9557 34.3811 13.4784 34.3424 13.9624 34.2456C14.214 34.1875 14.5238 34.1681 14.7754 34.2843C14.9884 34.3811 15.1045 34.5747 15.24 34.7489C15.4917 35.0393 15.8595 35.2329 16.2467 35.2716C16.3628 35.2716 16.479 35.2716 16.5951 35.2329C16.75 35.1554 16.7887 35.0006 16.7887 34.8457C16.7887 34.6521 16.6726 34.4392 16.7887 34.2649C16.8468 34.1681 16.9823 34.1294 17.0985 34.1294C17.2146 34.1294 17.3308 34.1488 17.4469 34.1681C17.5244 34.1681 17.6018 34.1681 17.6792 34.1681C18.0277 34.0713 18.2793 33.6842 18.2987 33.3163L18.2793 33.2776Z" fill="#D13D2A"/>
</g>
<path d="M18.3572 34.7876C18.3185 34.594 18.1636 34.4004 17.9507 34.4004C17.7377 34.4004 17.5054 34.4585 17.3699 34.6327C17.2538 34.7682 17.2151 34.9618 17.2538 35.136C17.2925 35.2522 17.3506 35.3877 17.4667 35.4458C17.8539 35.6781 18.3959 35.2909 18.3572 34.865V34.8263V34.7876Z" fill="#D13D2A"/>
<g style="mix-blend-mode:multiply">
<path d="M18.3572 34.8456V34.8068C18.3185 34.6133 18.1636 34.4197 17.9507 34.4197C17.7377 34.4197 17.5054 34.4778 17.3699 34.652C17.2538 34.7875 17.2151 34.9811 17.2538 35.1553C17.2925 35.2715 17.3506 35.407 17.4667 35.465C17.8539 35.6973 18.3959 35.3102 18.3572 34.8843V34.8456ZM17.5054 35.1359C17.5054 35.1359 17.4086 35.0392 17.3893 34.9617C17.3699 34.8649 17.3893 34.7681 17.4474 34.6907C17.5248 34.5939 17.6603 34.5552 17.7765 34.5552C17.8926 34.5552 17.97 34.6713 17.9894 34.7681C17.9894 34.7681 17.9894 34.7681 17.9894 34.7875C18.0088 35.0198 17.7184 35.2327 17.5054 35.1166V35.1359Z" fill="#D13D2A"/>
</g>
<path d="M18.744 33.9745C18.744 33.9745 18.6859 33.839 18.6085 33.8196C18.5117 33.7809 18.3762 33.8196 18.3181 33.9164C18.26 34.0132 18.3181 34.1294 18.4149 34.1681C18.473 34.1875 18.531 34.2068 18.5891 34.1875C18.6859 34.1681 18.7633 34.052 18.744 33.9552V33.9745Z" fill="#D13D2A"/>
<path d="M12.7233 31.5547C12.7233 31.4192 12.6846 31.2837 12.5878 31.2063C12.4136 31.0708 12.1232 31.1288 11.9683 31.2644C11.8522 31.3418 11.8135 31.4386 11.8135 31.5741C11.8135 31.7096 11.8522 31.8258 11.949 31.9225C12.1039 32.0968 12.4136 32.0968 12.5878 31.9225C12.6846 31.8258 12.7233 31.6709 12.7427 31.5354L12.7233 31.5547Z" fill="#D13D2A"/>
<g style="mix-blend-mode:multiply">
<path d="M12.7233 31.5547C12.7233 31.4192 12.6846 31.2837 12.5878 31.2063C12.4136 31.0708 12.1232 31.1288 11.9683 31.2644C11.8522 31.3418 11.8135 31.4386 11.8135 31.5741C11.8135 31.7096 11.8522 31.8258 11.949 31.9225C12.1039 32.0968 12.4136 32.0968 12.5878 31.9225C12.6846 31.8258 12.7233 31.6709 12.7427 31.5354L12.7233 31.5547ZM12.3555 31.7483C12.2587 31.8451 12.0651 31.8451 11.9683 31.7483C11.9103 31.6902 11.8909 31.6128 11.8909 31.5354C11.8909 31.4579 11.9103 31.3999 11.9877 31.3418C12.0845 31.2644 12.2587 31.2256 12.3749 31.3031C12.433 31.3611 12.4717 31.4386 12.4717 31.516C12.4717 31.5935 12.433 31.6902 12.3749 31.7483H12.3555Z" fill="#D13D2A"/>
</g>
<g style="mix-blend-mode:screen">
<path d="M15.5691 30.3739C15.5691 30.3739 15.4529 30.3158 15.3949 30.3545C15.3368 30.3932 15.2787 30.4513 15.2206 30.5287C15.1819 30.5674 15.1238 30.6062 15.0851 30.6449C14.9883 30.7223 14.8915 30.7804 14.7947 30.8385C14.6786 30.8772 14.5624 30.9159 14.4463 30.9159C14.3301 30.9159 14.1946 30.8772 14.0785 30.8385C14.001 30.7997 13.9042 30.7417 13.8074 30.761C13.7494 30.761 13.6719 30.7997 13.6332 30.8578C13.5751 30.974 13.7106 31.0901 13.7881 31.1482C13.8655 31.2256 13.9623 31.3031 14.0591 31.3611C14.2527 31.4386 14.4656 31.4579 14.6786 31.4192C14.8722 31.3805 15.0658 31.2837 15.2206 31.1482C15.2981 31.0901 15.3561 31.0127 15.4142 30.9353C15.4723 30.8578 15.5304 30.761 15.5691 30.6642C15.6078 30.5868 15.6272 30.4706 15.5691 30.3932V30.3739Z" fill="#D13D2A"/>
</g>
<g style="mix-blend-mode:screen">
<path d="M16.1124 29.9867C16.1124 29.9867 16.0156 29.8705 15.9382 29.8899C15.9188 29.8899 15.8995 29.8899 15.8801 29.8899C15.8414 29.8899 15.8027 29.9286 15.764 29.9479C15.7252 29.9867 15.6865 30.0641 15.6865 30.1222C15.6865 30.1609 15.6865 30.1803 15.7252 30.1996C15.764 30.219 15.7833 30.2383 15.822 30.219C15.8995 30.219 15.9575 30.1803 16.0156 30.1415C16.0737 30.1028 16.1124 30.0254 16.0931 29.9673L16.1124 29.9867Z" fill="#D13D2A"/>
</g>
<path d="M21.6673 24.2564C22.5578 23.9466 23.2741 22.7077 22.4804 21.9333C21.919 21.3719 21.164 21.701 20.4864 21.7591C19.6346 21.8365 20.1573 20.8299 20.196 20.3846C20.196 20.1523 20.138 19.8813 19.9637 19.7264C19.2088 19.0102 18.899 20.675 18.2795 20.5201C18.2215 20.5201 18.2021 20.4621 18.1634 20.4233C17.6794 19.6296 17.2535 18.8359 16.1501 19.1263C15.5887 19.2812 15.2402 19.7845 15.3951 20.3653C15.4725 20.6363 15.5112 20.946 15.2789 21.159C14.8337 21.5849 14.1174 21.4493 13.556 21.5655C13.2463 21.6236 12.9365 21.7591 12.7042 21.9527C12.259 22.3398 12.0848 22.9206 12.1428 23.5014C12.1815 23.7917 12.259 24.0821 12.3945 24.3532C12.5494 24.6435 12.743 24.9533 12.5881 25.2824C12.5106 25.4566 12.3558 25.5921 12.2396 25.747C12.1235 25.9018 12.0267 26.0567 11.9492 26.2503C11.8331 26.5988 11.8912 27.0053 12.0848 27.315C12.4332 27.8958 13.1882 28.1862 13.8464 28.1087C14.1949 28.07 14.5239 27.9345 14.8337 27.7796C15.1241 27.6441 15.4338 27.4699 15.7629 27.4118C15.9371 27.3731 16.1307 27.3925 16.3049 27.4312C16.4985 27.4893 16.6534 27.5861 16.8083 27.7216C16.9631 27.8571 17.118 27.9926 17.2729 28.1087C17.4471 28.2249 17.6213 28.341 17.8149 28.4185C18.144 28.554 18.5118 28.6314 18.8603 28.554C19.17 28.4959 19.4604 28.341 19.6153 28.07C19.7314 27.8764 19.7508 27.6441 19.7314 27.4312C19.7314 27.2376 19.6346 26.8891 19.7702 26.7343C19.9831 26.4632 20.5058 26.6956 20.7768 26.6568C21.1253 26.6181 21.2995 26.5213 21.435 26.2116C21.7254 25.5534 20.6413 24.6242 21.6286 24.2951L21.6673 24.2564Z" fill="#9FCC3B"/>
<g style="mix-blend-mode:multiply">
<path d="M21.6675 24.2564C22.558 23.9466 23.2742 22.7077 22.4805 21.9333C21.9191 21.3719 21.1642 21.701 20.4866 21.7591C19.6348 21.8365 20.1575 20.8299 20.1962 20.3846C20.1962 20.1523 20.1381 19.8813 19.9639 19.7264C19.2089 19.0102 18.8992 20.675 18.2797 20.5201C18.2216 20.5201 18.2023 20.4621 18.1636 20.4233C17.6796 19.6296 17.2537 18.8359 16.1503 19.1263C15.7244 19.2425 15.434 19.5522 15.3759 19.9394C15.4146 19.8813 15.4533 19.8232 15.4921 19.7845C15.705 19.5328 15.9954 19.3586 16.3051 19.3005C16.5955 19.2618 16.9052 19.3005 17.1182 19.5135C17.3118 19.7071 17.3892 19.9974 17.4473 20.2491C17.486 20.404 17.5441 20.5588 17.6796 20.6556C17.7764 20.7331 17.9119 20.7718 18.028 20.7912C18.3184 20.7912 18.5894 20.6556 18.8024 20.4621C18.996 20.2878 19.1702 20.0555 19.3832 19.92C19.4799 19.8619 19.5961 19.8232 19.7123 19.8426C19.8284 19.8426 19.9252 19.9394 19.9833 20.0168C20.0801 20.1523 20.0994 20.3265 20.0607 20.4814C20.022 20.675 19.9446 20.8492 19.8478 21.0235C19.7703 21.1783 19.6929 21.3526 19.6542 21.5268C19.6348 21.6623 19.6542 21.7978 19.7703 21.8752C19.7897 21.8752 19.8284 21.914 19.8671 21.914C19.9252 21.914 20.0026 21.914 20.0607 21.914C20.3704 21.914 20.6995 21.8172 21.0093 21.7591C21.1448 21.7204 21.2803 21.701 21.4158 21.6817C21.6094 21.6817 21.803 21.6817 21.9966 21.7784C22.1708 21.8365 22.3257 21.9527 22.4418 22.0882C22.558 22.2431 22.6354 22.4173 22.6548 22.6109C22.6548 22.8238 22.6354 23.0368 22.5386 23.2303C22.4418 23.4046 22.3063 23.5207 22.1514 23.6175C21.9772 23.7143 21.803 23.7917 21.6094 23.8498C21.5126 23.8692 21.4158 23.9079 21.319 23.9273C21.2222 23.9466 21.1061 23.966 21.0093 24.0047C20.8351 24.0628 20.6608 24.1789 20.6028 24.3725C20.5447 24.5661 20.6028 24.779 20.6995 24.9726C20.777 25.1469 20.9125 25.3017 21.0286 25.476C21.1448 25.6308 21.2416 25.8051 21.2416 25.9986C21.2416 26.1729 21.1835 26.3665 21.0286 26.4632C20.9125 26.5407 20.7576 26.5213 20.6221 26.4632C20.5253 26.4245 20.4479 26.3858 20.3704 26.3471C20.1575 26.2697 19.9639 26.1148 19.7316 26.0761C19.4799 26.0374 19.2864 26.2116 19.1896 26.4245C19.1896 26.5407 19.1896 26.6568 19.2476 26.773C19.3057 26.9279 19.3638 27.0827 19.4219 27.2376C19.4993 27.4118 19.538 27.5861 19.5187 27.7796C19.4412 28.1862 19.0153 28.4185 18.6282 28.4185C18.2216 28.4185 17.8538 28.2249 17.5828 27.9539C17.3892 27.7603 17.2343 27.5473 17.0988 27.315C16.9827 27.1214 16.8665 26.9085 16.6536 26.7923C16.3632 26.6181 15.9954 26.6956 15.705 26.7923C15.3759 26.9085 15.0855 27.1021 14.7758 27.2763C14.4854 27.4505 14.1757 27.6054 13.8272 27.6828C13.5368 27.7409 13.2077 27.7409 12.9174 27.6828C12.6463 27.6054 12.3753 27.4699 12.2011 27.2182C12.0269 26.9472 11.9494 26.5988 12.0656 26.289C12.1817 25.9986 12.414 25.7857 12.6463 25.5728C12.7818 25.4566 12.898 25.3598 13.0141 25.2243C13.1303 25.0888 13.2271 24.9339 13.2464 24.7597C13.2464 24.6048 13.1884 24.4693 13.1109 24.3338C13.0141 24.1789 12.898 24.0628 12.7818 23.9273C12.6657 23.7918 12.5495 23.6562 12.4721 23.5014C12.3947 23.3659 12.3366 23.211 12.2979 23.0561C12.2592 22.8819 12.2592 22.7077 12.2785 22.5334C12.1817 22.8045 12.143 23.1142 12.1624 23.4239C12.2011 23.7143 12.2785 24.0047 12.414 24.2757C12.5689 24.5661 12.7625 24.8758 12.6076 25.2049C12.5302 25.3792 12.3753 25.5147 12.2592 25.6695C12.143 25.8244 12.0462 25.9793 11.9688 26.1729C11.8526 26.5213 11.9107 26.9279 12.1043 27.2376C12.4527 27.8184 13.2077 28.1087 13.8659 28.0313C14.2144 27.9926 14.5435 27.8571 14.8532 27.7022C15.1436 27.5667 15.4533 27.3925 15.7824 27.3344C15.9567 27.2957 16.1503 27.315 16.3245 27.3538C16.5181 27.4118 16.6729 27.5086 16.8278 27.6441C16.9827 27.7796 17.1375 27.9151 17.2924 28.0313C17.4666 28.1475 17.6409 28.2636 17.8345 28.341C18.1636 28.4766 18.5314 28.554 18.8798 28.4766C19.1896 28.4185 19.4799 28.2636 19.6348 27.9926C19.751 27.799 19.7703 27.5667 19.751 27.3538C19.751 27.1602 19.6542 26.8117 19.7897 26.6568C20.0026 26.3858 20.5253 26.6181 20.7963 26.5794C21.1448 26.5407 21.319 26.4439 21.4545 26.1342C21.7449 25.476 20.6608 24.5467 21.6481 24.2176L21.6675 24.2564Z" fill="#9FCC3B"/>
</g>
<path d="M22.0159 20.4041C22.0159 20.2105 21.8997 20.0169 21.6481 19.9395C21.2996 19.8233 20.9705 20.0556 20.7576 20.346C20.6801 20.4622 20.622 20.5977 20.6608 20.7332C20.7188 21.0042 21.0286 21.1591 21.2802 21.1591C21.4738 21.1591 21.6674 21.0623 21.8029 20.9268C21.9578 20.7719 22.0352 20.5783 22.0159 20.4041Z" fill="#9FCC3B"/>
<path d="M22.5004 24.779C22.5004 24.779 22.3261 24.6629 22.2293 24.6435C21.8615 24.5855 21.6292 24.9726 21.8228 25.2824C22.0164 25.5921 22.4423 25.534 22.5972 25.2243C22.6746 25.0501 22.6359 24.8952 22.5197 24.779H22.5004Z" fill="#9FCC3B"/>
<path d="M23.2163 24.1597C23.2163 24.1597 23.255 24.0629 23.2163 24.0242C23.2163 24.0242 23.197 24.0048 23.1776 23.9855C23.0227 23.9274 22.6355 24.0436 22.8098 24.2565C22.8485 24.3146 22.9453 24.3339 23.0227 24.3146C23.0808 24.3146 23.1776 24.2178 23.2163 24.1403V24.1597Z" fill="#9FCC3B"/>
<g style="mix-blend-mode:screen">
<path d="M15.6092 21.3139C15.493 21.3139 15.3769 21.4107 15.2994 21.4688C15.2607 21.5075 15.222 21.5269 15.1833 21.5656C14.9703 21.6624 14.7187 21.7204 14.4864 21.7592C14.1766 21.7979 13.8669 21.8172 13.5572 21.8947C13.2861 21.9721 12.9958 22.0883 12.8022 22.2818C12.6086 22.4754 12.5118 22.7658 12.5892 23.0368C12.6473 23.2498 12.8796 23.6757 13.1506 23.4434C13.2474 23.3659 13.2668 23.2304 13.3055 23.1336C13.3055 23.0756 13.3442 23.0368 13.3636 22.9788C13.3636 22.9788 13.3829 22.9594 13.4023 22.9207C13.441 22.882 13.4797 22.8433 13.5184 22.8239C13.7895 22.6109 14.1766 22.5916 14.4864 22.4948C14.68 22.4367 14.8542 22.3593 15.0478 22.2818C15.2027 22.2044 15.3575 22.127 15.493 22.0108C15.6285 21.8947 15.7253 21.7398 15.7834 21.5462C15.8221 21.4301 15.7834 21.2946 15.6479 21.2946L15.6092 21.3139Z" fill="#9FCC3B"/>
</g>
<g style="mix-blend-mode:screen">
<path d="M16.0926 20.9655C16.0926 20.9655 16.0926 20.9461 16.0926 20.9267C16.0926 20.9267 16.0926 20.888 16.0926 20.8687C16.0926 20.8687 16.0926 20.8299 16.0926 20.8106C16.0926 20.8106 16.0732 20.7719 16.0539 20.7719C16.0345 20.7719 16.0151 20.7525 15.9958 20.7332C15.9764 20.7332 15.9377 20.7332 15.9184 20.7332C15.8796 20.7332 15.8409 20.7719 15.8022 20.8106C15.8022 20.8106 15.7828 20.8299 15.7635 20.8493C15.7635 20.8493 15.7635 20.8493 15.7635 20.8687C15.7635 20.9074 15.7441 20.9267 15.7635 20.9655C15.7635 21.0042 15.7635 21.0235 15.8022 21.0429C15.8022 21.0623 15.8409 21.0816 15.8796 21.0816C15.9184 21.0816 15.9571 21.0816 15.9958 21.0429C16.0151 21.0429 16.0345 21.0235 16.0539 21.0042C16.0926 20.9848 16.1119 20.9461 16.1119 20.9074L16.0926 20.9655Z" fill="#9FCC3B"/>
</g>
<path d="M26.4299 6.91106C27.2817 6.62068 27.9593 5.4398 27.2043 4.70417C26.6622 4.18149 25.946 4.49123 25.3071 4.52994C24.4747 4.60738 24.9974 3.63944 25.0167 3.21355C25.0167 2.98125 24.978 2.72958 24.8038 2.57471C24.0875 1.89716 23.7971 3.48457 23.1777 3.3297C23.1389 3.3297 23.1002 3.27163 23.0809 3.23291C22.6163 2.47792 22.2097 1.70357 21.145 1.9746C20.603 2.11011 20.2739 2.61343 20.4287 3.15548C20.5062 3.4265 20.5255 3.71688 20.3126 3.92982C19.8867 4.33636 19.2091 4.2202 18.6671 4.317C18.3767 4.37507 18.0863 4.49123 17.854 4.70417C17.4281 5.07199 17.2539 5.63339 17.312 6.17543C17.3313 6.46581 17.4281 6.73683 17.5636 6.9885C17.6992 7.25952 17.8927 7.5499 17.7572 7.87899C17.6798 8.05322 17.5443 8.16938 17.4281 8.32425C17.312 8.47912 17.2152 8.63398 17.1571 8.80821C17.041 9.13731 17.099 9.52448 17.2733 9.81486C17.6024 10.3569 18.338 10.6473 18.9575 10.5892C19.2866 10.5505 19.5963 10.415 19.906 10.2795C20.1964 10.144 20.4868 9.96973 20.7965 9.93102C20.9708 9.91166 21.145 9.91166 21.3192 9.95038C21.5128 9.98909 21.6483 10.1052 21.8032 10.2214C21.9581 10.3375 22.0936 10.4731 22.2484 10.5892C22.4033 10.7054 22.5775 10.8022 22.7711 10.8796C23.0809 11.0151 23.4293 11.0732 23.7778 11.0151C24.0682 10.957 24.3392 10.8022 24.5134 10.5505C24.6296 10.3569 24.6296 10.144 24.6296 9.93102C24.6296 9.73743 24.5328 9.42769 24.6683 9.27282C24.8619 9.02116 25.3652 9.2341 25.6362 9.19539C25.9653 9.15667 26.1395 9.05987 26.2557 8.76949C26.5267 8.15002 25.5007 7.24016 26.4299 6.93042V6.91106Z" fill="#FAA540"/>
<g style="mix-blend-mode:multiply">
<path d="M26.4297 6.91106C27.2815 6.62068 27.9591 5.4398 27.2041 4.70417C26.6621 4.18149 25.9458 4.49123 25.3069 4.52994C24.4745 4.60738 24.9972 3.63944 25.0166 3.21355C25.0166 2.98125 24.9778 2.72958 24.8036 2.57471C24.0873 1.89716 23.797 3.48457 23.1775 3.3297C23.1388 3.3297 23.1001 3.27163 23.0807 3.23291C22.6161 2.47792 22.2096 1.70357 21.1448 1.9746C20.7383 2.07139 20.4673 2.38113 20.3898 2.74894C20.4286 2.69087 20.4673 2.63279 20.506 2.59407C20.6996 2.36177 20.9706 2.18754 21.2803 2.12947C21.5514 2.09075 21.8611 2.12946 22.0547 2.34241C22.2289 2.536 22.3063 2.80702 22.3644 3.05868C22.4031 3.21355 22.4612 3.34906 22.5774 3.44586C22.6742 3.52329 22.7903 3.56201 22.9258 3.56201C23.1968 3.56201 23.4679 3.4265 23.6615 3.25227C23.8357 3.07804 24.0099 2.8651 24.2229 2.72958C24.3197 2.67151 24.4358 2.63279 24.5326 2.65215C24.6294 2.65215 24.7262 2.72958 24.7843 2.82638C24.8811 2.96189 24.8811 3.11676 24.8617 3.27163C24.823 3.44586 24.7455 3.62008 24.6681 3.79431C24.5907 3.94918 24.5132 4.10405 24.4745 4.27828C24.4552 4.41379 24.4745 4.5493 24.5907 4.62674C24.61 4.62674 24.6487 4.66545 24.6681 4.66545C24.7262 4.66545 24.8036 4.66545 24.8617 4.66545C25.1714 4.66545 25.4618 4.58802 25.7522 4.51058C25.8683 4.49122 26.0039 4.45251 26.1394 4.45251C26.333 4.45251 26.5072 4.45251 26.7008 4.52994C26.875 4.58802 27.0105 4.70417 27.1267 4.83968C27.2428 4.97519 27.3202 5.14942 27.3202 5.34301C27.3202 5.53659 27.3009 5.74954 27.2041 5.92377C27.1267 6.07864 26.9911 6.21415 26.8363 6.31094C26.6814 6.40774 26.5072 6.46581 26.333 6.52389C26.2362 6.54325 26.1394 6.58196 26.0619 6.60132C25.9651 6.62068 25.849 6.64004 25.7522 6.67876C25.578 6.73683 25.4231 6.85298 25.365 7.02721C25.3069 7.2208 25.365 7.41439 25.4425 7.58861C25.5199 7.76284 25.6554 7.91771 25.7522 8.07258C25.849 8.22745 25.9458 8.40168 25.9651 8.57591C25.9651 8.73078 25.9071 8.92436 25.7716 9.02116C25.6554 9.09859 25.5005 9.07923 25.3844 9.02116C25.3069 8.98244 25.2102 8.94372 25.1327 8.90501C24.9198 8.84693 24.7455 8.6727 24.5132 8.63398C24.2809 8.59527 24.0873 8.7695 23.9906 8.96308C23.9906 9.07923 23.9906 9.19539 24.0486 9.29218C24.0873 9.44705 24.1648 9.58256 24.2229 9.73743C24.2809 9.91166 24.339 10.0859 24.3003 10.2601C24.2229 10.6473 23.8163 10.8602 23.4485 10.8796C23.0613 10.8796 22.7129 10.7054 22.4419 10.4343C22.2483 10.2601 22.0934 10.0472 21.9966 9.81486C21.8805 9.62128 21.7643 9.42769 21.5707 9.31154C21.2997 9.15667 20.9319 9.21475 20.6609 9.31154C20.3511 9.42769 20.0607 9.60192 19.7704 9.77615C19.48 9.93102 19.1896 10.0859 18.8605 10.1633C18.5701 10.2214 18.2797 10.2214 17.9894 10.1633C17.7183 10.1052 17.4667 9.95038 17.3118 9.71807C17.1376 9.46641 17.0795 9.11795 17.1957 8.84693C17.2924 8.57591 17.5248 8.36296 17.7571 8.16938C17.8732 8.05322 18.0087 7.95643 18.1249 7.84028C18.241 7.72413 18.3378 7.56926 18.3572 7.39503C18.3572 7.25952 18.2991 7.10465 18.2217 6.9885C18.1249 6.85299 18.0281 6.71747 17.9119 6.60132C17.7958 6.46581 17.699 6.34966 17.6022 6.19479C17.5248 6.05928 17.4667 5.90441 17.428 5.7689C17.3892 5.61403 17.3892 5.4398 17.4086 5.26557C17.3118 5.53659 17.2731 5.82697 17.2924 6.11735C17.3118 6.40773 17.4086 6.67876 17.5441 6.93042C17.6796 7.20144 17.8732 7.49182 17.7377 7.82092C17.6603 7.99515 17.5248 8.1113 17.4086 8.26617C17.2924 8.42104 17.1957 8.57591 17.1376 8.73078C17.0214 9.05988 17.0795 9.44705 17.2537 9.73743C17.5828 10.2795 18.3185 10.5699 18.9379 10.5118C19.267 10.4731 19.5768 10.3375 19.8865 10.202C20.1769 10.0665 20.4673 9.8923 20.777 9.85358C20.9512 9.83422 21.1255 9.83422 21.2997 9.87294C21.4933 9.91166 21.6288 10.0278 21.7837 10.144C21.9385 10.2601 22.074 10.3956 22.2289 10.5118C22.3838 10.6279 22.558 10.7247 22.7516 10.8022C23.0613 10.9377 23.4098 10.9957 23.7583 10.9377C24.0486 10.8796 24.3197 10.7247 24.4939 10.4731C24.61 10.2795 24.61 10.0665 24.61 9.85358C24.61 9.65999 24.5132 9.35026 24.6487 9.19539C24.8423 8.94372 25.3457 9.15667 25.6167 9.11795C25.9458 9.07923 26.12 8.98244 26.2362 8.69206C26.5072 8.07258 25.4812 7.16272 26.4104 6.85298L26.4297 6.91106Z" fill="#FAA540"/>
</g>
<path d="M26.7578 3.21346C26.7578 3.01987 26.6417 2.84564 26.39 2.76821C26.0416 2.65206 25.7318 2.88436 25.5383 3.15538C25.4608 3.27153 25.4221 3.40705 25.4415 3.5232C25.4995 3.79422 25.7899 3.92973 26.0416 3.92973C26.2352 3.92973 26.4094 3.83294 26.5449 3.69743C26.6804 3.56192 26.7578 3.36833 26.7578 3.1941V3.21346Z" fill="#FAA540"/>
<path d="M27.2245 7.41432C27.2245 7.41432 27.0696 7.29817 26.9534 7.27881C26.605 7.22074 26.3727 7.58855 26.5663 7.87893C26.7405 8.16931 27.1664 8.1306 27.3019 7.82086C27.3793 7.64663 27.3213 7.51112 27.2245 7.39497V7.41432Z" fill="#FAA540"/>
<path d="M27.9203 6.83366C27.9203 6.83366 27.959 6.73686 27.9203 6.69815C27.9203 6.69815 27.9009 6.67879 27.8816 6.65943C27.7267 6.60135 27.3589 6.71751 27.5331 6.93045C27.5718 6.98853 27.6686 7.00789 27.7267 6.98853C27.7848 6.98853 27.8622 6.89173 27.9009 6.8143L27.9203 6.83366Z" fill="#FAA540"/>
<g style="mix-blend-mode:screen">
<path d="M20.6217 4.08472C20.5056 4.08472 20.4088 4.16215 20.312 4.23959C20.2733 4.25894 20.2345 4.29766 20.2152 4.33638C20.0022 4.43317 19.7699 4.49125 19.5376 4.52997C19.2472 4.56868 18.9375 4.58804 18.6471 4.66548C18.3761 4.72355 18.1244 4.83971 17.9115 5.03329C17.7179 5.22688 17.6405 5.47854 17.6985 5.74956C17.7566 5.96251 17.9696 6.34968 18.2406 6.13674C18.318 6.0593 18.3567 5.94315 18.3955 5.827C18.3955 5.78828 18.4148 5.73021 18.4535 5.69149C18.4535 5.69149 18.4729 5.67213 18.4923 5.65277C18.531 5.61405 18.5503 5.59469 18.5891 5.55598C18.8601 5.36239 19.2085 5.34303 19.5183 5.24624C19.6925 5.18816 19.8861 5.11073 20.041 5.03329C20.1958 4.95586 20.3313 4.87842 20.4668 4.78163C20.6024 4.66548 20.6991 4.51061 20.7379 4.33638C20.7766 4.22023 20.7379 4.08472 20.6024 4.10408L20.6217 4.08472Z" fill="#9FCC3B"/>
</g>
<g style="mix-blend-mode:screen">
<path d="M21.0877 3.75562C21.0877 3.75562 21.0877 3.73626 21.0877 3.7169C21.0877 3.7169 21.0877 3.67819 21.0877 3.65883C21.0877 3.65883 21.0877 3.62011 21.0877 3.60075C21.0877 3.60075 21.0683 3.56203 21.049 3.56203C21.0296 3.56203 21.0103 3.54267 20.9909 3.52332C20.9716 3.52332 20.9328 3.52332 20.9135 3.52332C20.8748 3.52332 20.836 3.56203 20.7973 3.60075C20.7973 3.60075 20.778 3.62011 20.7586 3.63947C20.7586 3.63947 20.7586 3.63947 20.7586 3.65883C20.7586 3.69754 20.7392 3.7169 20.7586 3.75562C20.7586 3.79434 20.7586 3.8137 20.7973 3.83305C20.7973 3.85241 20.836 3.87177 20.8748 3.87177C20.9135 3.87177 20.9522 3.87177 20.9909 3.85241C21.0103 3.85241 21.0296 3.85241 21.049 3.8137C21.0877 3.79434 21.1071 3.75562 21.1071 3.7169L21.0877 3.75562Z" fill="#9FCC3B"/>
</g>
<g style="mix-blend-mode:multiply">
<path d="M40.6587 17.0357C40.5426 16.7453 40.4651 16.4162 40.4264 16.1064C40.3877 16.1064 40.3683 16.1452 40.3296 16.1452C39.8263 16.3775 39.3036 16.6098 38.7422 16.8614C38.626 16.9195 38.5099 16.9776 38.3937 17.0163C38.2195 17.0937 38.0453 17.1712 37.8904 17.2486C37.542 17.4035 37.1935 17.5777 36.845 17.7326C36.574 17.8487 36.303 17.9842 36.032 18.1004C35.6642 18.2746 35.2964 18.4295 34.9285 18.6037C34.8317 18.6424 34.735 18.6812 34.6575 18.7392C34.4059 18.8554 34.1736 18.9715 33.9219 19.0877C33.6896 19.1845 33.4766 19.3006 33.2443 19.3974C33.1475 19.4361 33.0507 19.4942 32.954 19.5329C32.2958 19.8427 31.6182 20.1524 30.96 20.4622C30.8632 20.5009 30.7664 20.5589 30.6696 20.5977C30.3599 20.7525 30.0308 20.888 29.7211 21.0429C29.5275 21.1397 29.3339 21.2171 29.1403 21.3139C28.6757 21.5269 28.2304 21.7398 27.7658 21.9528C27.669 21.9915 27.5722 22.0496 27.4754 22.0883C26.9721 22.3206 26.4688 22.5529 25.9848 22.7852C25.8493 22.8433 25.6944 22.9207 25.5589 22.9788C25.4428 23.0369 25.3266 23.0949 25.2105 23.1337C25.133 23.1724 25.0362 23.2111 24.9588 23.2498C23.9909 23.6951 23.1004 24.1209 22.2873 24.5081C22.2099 24.5468 22.1324 24.5856 22.0744 24.6049C21.7646 24.7598 21.4549 24.8953 21.1645 25.0308C21.0871 25.0695 21.0096 25.1082 20.9322 25.147C19.6352 25.7471 18.7447 26.173 18.4349 26.3085L15.7634 27.4313C15.7634 27.4313 15.7634 27.3926 15.7634 27.3732C15.7054 27.3926 15.6473 27.4313 15.5892 27.4506C15.415 27.5281 15.2408 27.5861 15.0665 27.6442C14.7181 27.7604 14.3696 27.8765 14.0212 28.012C13.6533 28.1475 13.3049 28.3218 12.9564 28.4573C12.7822 28.5347 12.5886 28.6122 12.4144 28.6702C12.2982 28.709 12.2014 28.7477 12.1046 28.8251C12.0466 28.8638 12.0079 28.9219 11.9691 28.98L11.7949 29.0574C11.64 29.0381 11.4852 29.0187 11.3303 29.0187C10.9431 29.0187 10.556 29.0574 10.1688 29.1348C9.91711 29.1929 9.66545 29.251 9.41379 29.3478C9.35571 29.3671 9.27828 29.4059 9.2202 29.4252C9.18148 29.4252 9.14277 29.4252 9.10405 29.4252C9.10405 29.4252 9.06533 29.4252 9.04597 29.4252C8.9879 29.4252 8.92982 29.4446 8.8911 29.4639C8.85239 29.4639 8.81367 29.4833 8.79431 29.5027C8.63944 29.5801 8.48457 29.6769 8.34906 29.7737C8.27162 29.8318 8.21355 29.8898 8.15547 29.9479C8.0974 30.006 8.03932 30.0641 7.96189 30.1221C7.90381 30.1802 7.82637 30.2576 7.7683 30.3157C7.67151 30.4125 7.57471 30.5093 7.49728 30.6061C7.40048 30.7029 7.32305 30.819 7.24562 30.9158C7.03267 31.2062 6.83908 31.4966 6.66485 31.787C6.49063 32.058 6.3164 32.3484 6.04538 32.542C6.02602 32.542 5.9873 32.5807 5.96794 32.6C5.89051 32.6581 5.81307 32.6968 5.73564 32.7549C5.73564 32.7549 5.71628 32.7549 5.69692 32.7743C5.69692 32.7743 5.69692 32.7743 5.69692 32.7936C5.69692 32.7936 5.69692 32.7936 5.69692 32.813C5.67756 32.8711 5.6582 32.9098 5.6582 32.9872C5.69692 33.1421 5.87115 33.1808 6.00666 33.1615C6.18089 33.1421 6.35512 33.084 6.52934 33.0259C6.70357 32.9872 6.8778 32.9485 7.05203 32.9291C7.2069 32.9291 7.36177 32.9291 7.51664 32.9485C7.82637 32.9872 8.11676 33.0647 8.42649 33.1615C8.73623 33.2389 9.04597 33.3357 9.35571 33.3938C9.66545 33.4518 9.99455 33.4518 10.3043 33.4131C10.6334 33.3744 10.9431 33.3163 11.2335 33.1808C11.3884 33.1034 11.5239 33.0259 11.6788 32.9098C11.6981 32.9098 11.7175 32.8711 11.7368 32.8711C11.7368 32.8711 11.7562 32.8517 11.7755 32.8324C11.7755 32.8324 11.8143 32.813 11.8336 32.7936C11.8336 32.7936 11.853 32.7743 11.8723 32.7549C11.8723 32.7549 11.9111 32.7162 11.9304 32.6968C11.9304 32.6968 11.9498 32.6968 11.9691 32.6775C11.9885 32.6581 12.0272 32.6194 12.0466 32.6C12.0659 32.5613 12.1046 32.542 12.124 32.5033C12.1434 32.4645 12.1821 32.4452 12.2014 32.4065C12.2595 32.3871 12.2982 32.3484 12.3176 32.2903C12.3176 32.2903 12.3176 32.2903 12.3176 32.271V32.2516C12.3176 32.2322 12.3176 32.2129 12.2789 32.1935C12.3563 32.1161 12.4337 32.0386 12.5112 31.9612C12.5305 31.9419 12.5499 31.9031 12.5886 31.8838C12.6273 31.8451 12.6467 31.8063 12.6854 31.787C12.7435 31.7289 12.8016 31.6515 12.8403 31.5934C12.879 31.5353 12.9371 31.4772 12.9758 31.4192L13.7501 31.0514H13.7889L19.4029 28.1282C20.758 27.4894 33.8832 21.3914 41.2395 17.8681C41.0072 17.5777 40.8329 17.2486 40.6974 16.9002L40.6587 17.0357Z" fill="#CB9B6B"/>
</g>
<path d="M7.61305 28.7477C7.43882 28.8832 7.26459 29.0381 7.10972 29.2123C6.52896 29.8705 6.10307 30.6449 5.52231 31.3224C5.42552 31.4386 5.32872 31.5547 5.21257 31.6515C5.17385 31.6902 4.8254 32 4.92219 32.0193C4.98027 32.0193 5.01898 31.9419 5.03834 31.9225C5.6191 31.4192 6.66447 31.8451 7.30331 32.0193C8.0583 32.2129 8.79393 32.3097 9.54892 32.1548C10.091 32.0387 10.6136 31.8064 11.0395 31.4773C11.0976 31.4386 11.1363 31.3998 11.1944 31.3611C11.4848 31.1288 11.7364 30.8384 11.9688 30.5481C12.0462 30.4513 12.1236 30.3738 12.1817 30.277C12.2204 30.219 12.2398 30.1802 12.2591 30.1222C12.2591 30.1222 12.2785 30.1222 12.2978 30.1222C12.3366 30.0641 12.3753 30.006 12.3946 29.9286C12.3946 29.8318 12.3946 29.735 12.3946 29.6382C12.3946 29.4446 12.3366 29.2704 12.2591 29.0962C12.1817 28.9219 12.0849 28.7477 11.9881 28.5928C11.8913 28.438 11.7752 28.3025 11.6203 28.1863C11.5622 28.1282 11.4848 28.0895 11.4073 28.0508C11.3299 28.0121 11.2331 27.9927 11.1557 27.9734C10.9621 27.9346 10.7685 27.9153 10.5556 27.9153C9.52956 27.9153 8.46483 28.1863 7.63241 28.8058L7.61305 28.7477Z" fill="#896049"/>
<path d="M5.94824 31.5547C6.45157 31.516 6.93554 31.6902 7.40014 31.787C7.88411 31.9032 8.36808 31.9613 8.85205 31.9225C9.2973 31.9032 9.72319 31.787 10.1297 31.6128C10.5363 31.4386 10.9041 31.2063 11.2332 30.9159C11.5623 30.6255 11.8333 30.2771 12.0462 29.8899C12.0656 29.8318 12.1043 29.7931 12.1237 29.735C12.1237 29.7157 12.0849 29.6963 12.0849 29.7157C11.872 30.1028 11.6203 30.4706 11.3106 30.761C11.0009 31.0708 10.633 31.3031 10.2459 31.4967C9.8587 31.6902 9.43281 31.8064 8.98756 31.8451C8.50359 31.9032 8.01962 31.8451 7.55501 31.7483C7.0904 31.6515 6.6258 31.4967 6.14183 31.516C6.08375 31.516 6.02568 31.516 5.9676 31.516L5.94824 31.5547Z" fill="#6B4B38"/>
<path d="M12.1622 29.4252C12.1622 29.4252 12.0654 29.522 12.0267 29.58C11.988 29.6381 11.9299 29.6768 11.8912 29.7349C11.7944 29.8317 11.6976 29.9285 11.6008 30.0253C11.4072 30.1995 11.1943 30.3737 10.9813 30.548C10.5554 30.8577 10.1102 31.1287 9.6262 31.3223C9.35517 31.4385 9.06479 31.5159 8.77441 31.5546C9.04544 31.5159 9.2971 31.4578 9.54876 31.3804C9.80042 31.303 10.0521 31.1868 10.2844 31.0513C10.5167 30.9351 10.7296 30.7803 10.9426 30.6254C11.1555 30.4705 11.3685 30.2963 11.5814 30.1221C11.6976 30.0253 11.8137 29.9091 11.9105 29.793C11.9686 29.7349 12.0073 29.6768 12.0654 29.6188C12.1235 29.5607 12.1622 29.5026 12.2009 29.4252C12.2009 29.4252 12.1815 29.3865 12.1622 29.4058V29.4252Z" fill="#6B4B38"/>
<path d="M5.63861 31.4385C5.63861 31.4385 5.56118 31.4966 5.52246 31.5353C5.69669 31.3998 5.89028 31.2837 6.08386 31.1869C6.27745 31.0901 6.4904 30.9933 6.68398 30.9158C7.09052 30.761 7.51641 30.6255 7.9423 30.5287C8.38755 30.4125 8.85216 30.3157 9.31676 30.1996C9.78137 30.1028 10.2266 29.9866 10.6719 29.8511C10.8848 29.7737 11.1171 29.7156 11.3107 29.5994C11.4849 29.5027 11.6592 29.3865 11.814 29.2316C11.8528 29.1929 11.8915 29.1542 11.9108 29.1155C11.9108 29.1155 11.8915 29.0768 11.8721 29.0961C11.7172 29.2316 11.5624 29.3865 11.3881 29.4833C11.1946 29.5994 10.9816 29.6769 10.7687 29.7543C10.3234 29.9092 9.85881 30.006 9.3942 30.1221C8.92959 30.2189 8.48434 30.3157 8.03909 30.4319C7.6132 30.548 7.18731 30.6642 6.76142 30.819C6.35489 30.9739 5.94835 31.1675 5.61925 31.4385H5.63861Z" fill="#6B4B38"/>
<path d="M12.1241 29.0381C12.0467 29.1349 11.9693 29.251 11.8725 29.3478C11.7757 29.4446 11.6789 29.522 11.5821 29.5995C11.3692 29.7543 11.1562 29.8898 10.9239 30.0254C10.3819 30.3351 9.80111 30.548 9.22035 30.7029C8.89125 30.7997 8.54279 30.8578 8.19434 30.9159V30.9352C8.50407 30.8965 8.81381 30.8578 9.12355 30.7803C9.43329 30.7029 9.72367 30.6255 10.0334 30.5093C10.3238 30.3932 10.6142 30.277 10.8852 30.1221C11.1175 30.006 11.3498 29.8705 11.5627 29.7156C11.6595 29.6382 11.7757 29.5607 11.8725 29.464C11.8725 29.464 11.8531 29.5027 11.8338 29.5027C11.737 29.6382 11.6015 29.7543 11.4853 29.8511C11.2336 30.0641 10.9433 30.2577 10.6335 30.4125C10.4593 30.5093 10.2851 30.5868 10.1108 30.6642V30.6836C10.4399 30.5674 10.7497 30.4319 11.0401 30.2383C11.3304 30.0641 11.6015 29.8511 11.8338 29.5801C11.9499 29.4446 12.0467 29.2897 12.1241 29.1349C12.1241 29.1349 12.1241 29.1349 12.1241 29.1155C12.1241 29.0961 12.1435 29.0768 12.1629 29.0574C12.1629 29.0381 12.1242 28.9993 12.1048 29.0187L12.1241 29.0381Z" fill="#6B4B38"/>
<path d="M6.9943 29.9478C6.82007 30.064 6.62649 30.1995 6.47162 30.3543C6.31675 30.5092 6.18124 30.7028 6.02637 30.8577C6.18124 30.7222 6.31675 30.5673 6.45226 30.4318C6.58777 30.2963 6.74264 30.1801 6.91687 30.064C7.26532 29.8317 7.61378 29.5994 7.98159 29.4251C8.34941 29.2509 8.71722 29.096 9.1044 28.9605C9.49157 28.8444 9.8981 28.7669 10.3046 28.7089C10.5369 28.6895 10.7499 28.6701 10.9822 28.6701C11.1951 28.6701 11.4274 28.6895 11.6404 28.6701C11.6791 28.6701 11.6404 28.6314 11.621 28.6314C11.4081 28.6314 11.2145 28.6314 11.0015 28.6121C10.808 28.6121 10.595 28.6121 10.4014 28.6121C9.9949 28.6508 9.60772 28.7282 9.22055 28.8444C8.42684 29.0767 7.67186 29.4445 6.9943 29.9091V29.9478Z" fill="#6B4B38"/>
<path d="M7.4977 30.1607C7.80744 30.0832 8.09782 30.0445 8.40756 29.9865C8.7173 29.9284 9.00768 29.8703 9.31742 29.8122C9.91754 29.6961 10.5177 29.5606 11.0984 29.3476C11.2533 29.2895 11.4275 29.2315 11.5824 29.154C11.6598 29.1153 11.7373 29.0766 11.8147 29.0379C11.8921 28.9992 11.9696 28.9604 12.0276 28.9024C12.047 28.9024 12.0276 28.8636 11.9889 28.8636C11.9115 28.883 11.8534 28.9217 11.776 28.9604C11.7179 28.9992 11.6405 29.0185 11.563 29.0572C11.4275 29.1153 11.292 29.1734 11.1371 29.2315C10.8468 29.3476 10.5564 29.425 10.266 29.5025C9.66587 29.6574 9.06576 29.7735 8.46564 29.8897C8.29141 29.9284 8.13654 29.9477 7.96231 29.9865C7.78808 30.0252 7.63321 30.0639 7.45898 30.1026V30.122L7.4977 30.1607Z" fill="#6B4B38"/>
<path d="M9.54864 28.0895C9.81966 28.0702 10.11 28.0508 10.3811 28.0702C10.6521 28.0702 10.9037 28.1282 11.1554 28.2057C11.2328 28.225 11.3103 28.2444 11.3877 28.2831C11.3877 28.2831 11.3877 28.2831 11.3684 28.2831C11.2716 28.2831 11.1554 28.2444 11.0586 28.225C10.8263 28.1863 10.594 28.1863 10.3423 28.2057C10.11 28.2057 9.85838 28.2444 9.62607 28.2831C9.39377 28.3218 9.16147 28.3799 8.92916 28.438C8.79365 28.4767 8.6775 28.5348 8.56135 28.5928C8.4452 28.6509 8.32904 28.7284 8.21289 28.8058C8.21289 28.8058 8.21289 28.8252 8.23225 28.8058C8.42584 28.6896 8.65814 28.5928 8.89044 28.5154C9.12275 28.438 9.33569 28.3993 9.568 28.3412C10.0132 28.2637 10.4972 28.225 10.9425 28.2637C11.0586 28.2637 11.1748 28.3025 11.2909 28.3218C11.3877 28.3218 11.5039 28.3412 11.6007 28.3993C11.62 28.3993 11.6587 28.3993 11.62 28.3605C11.62 28.3605 11.5813 28.3412 11.5619 28.3218C11.4651 28.2444 11.349 28.2057 11.2328 28.167C11.1167 28.1282 10.9812 28.1089 10.865 28.0702C10.594 28.0121 10.3036 28.0121 10.0326 28.0121C9.87774 28.0121 9.72287 28.0314 9.568 28.0702V28.0895H9.54864Z" fill="#6B4B38"/>
<g style="mix-blend-mode:multiply" opacity="0.49">
<path d="M7.61256 28.7476C7.43833 28.8831 7.2641 29.038 7.10923 29.2122C6.52847 29.8704 6.10258 30.6448 5.52182 31.3223C5.42503 31.4385 5.32823 31.5546 5.21208 31.6514C5.17337 31.6901 4.9217 31.9031 4.90234 31.9805C5.0185 31.8837 5.13465 31.8063 5.27016 31.7482C5.42503 31.6514 5.59926 31.5546 5.75413 31.4578C6.16066 31.2255 6.56719 31.032 6.99308 30.8964C7.41897 30.7416 7.86422 30.6254 8.30947 30.5093C8.50306 30.4512 8.69665 30.4125 8.89023 30.3544C9.10318 30.2963 9.31612 30.2576 9.54843 30.1995C9.78073 30.1608 10.013 30.1221 10.2453 30.1027C10.3421 30.1027 10.4389 30.1027 10.5357 30.1027C10.6132 30.1027 10.6712 30.1221 10.7293 30.1608C10.8842 30.277 10.768 30.4899 10.6519 30.5867C10.5551 30.6835 10.4389 30.7609 10.3228 30.8384C10.2066 30.8964 10.0905 30.9545 9.99368 31.0126C9.81945 31.09 9.64522 31.1675 9.47099 31.2255C9.33548 31.2643 9.18061 31.303 9.0451 31.361C9.1419 31.361 9.25805 31.3417 9.35484 31.3223C9.68394 31.2643 10.0324 31.1675 10.3421 31.032C10.497 30.9545 10.6712 30.8771 10.8261 30.7803C10.9035 30.7416 10.981 30.6835 11.0584 30.6254C11.1358 30.5673 11.1939 30.5286 11.2714 30.4899C11.2714 30.4899 11.3101 30.4899 11.3101 30.5093C11.3101 30.6448 11.2133 30.7803 11.1165 30.8771C10.9229 31.1094 10.6519 31.303 10.4002 31.4385C10.1098 31.5934 9.78073 31.7095 9.47099 31.8257C9.54843 31.8257 9.62586 31.7869 9.72266 31.7676C10.3228 31.6127 10.8842 31.3223 11.3294 30.8964C11.3488 30.8771 11.3875 30.8964 11.3681 30.9352C11.252 31.1481 11.0778 31.3223 10.8842 31.4578C10.71 31.5934 10.5357 31.7095 10.3421 31.8063C10.2647 31.845 10.1873 31.8837 10.0905 31.9224C10.4389 31.7869 10.768 31.6127 11.0584 31.3998C11.1165 31.361 11.1552 31.3223 11.2133 31.2836C11.5037 31.0513 11.7553 30.7609 11.9876 30.4705C12.0651 30.3738 12.1425 30.2963 12.2006 30.1995C12.2393 30.1415 12.2586 30.1027 12.278 30.0447C12.278 30.0447 12.2974 30.0447 12.3167 30.0447C12.3554 29.9866 12.3942 29.9285 12.4135 29.8511C12.4135 29.7543 12.4135 29.6575 12.4135 29.5607C12.4135 29.3671 12.3554 29.1929 12.278 29.0186C12.2006 28.8444 12.1038 28.6702 12.007 28.5153C11.9102 28.3605 11.794 28.2249 11.6392 28.1088C11.5811 28.0507 11.5037 28.012 11.4262 27.9733C11.3488 27.9346 11.252 27.9152 11.1746 27.8958C10.981 27.8571 10.7874 27.8378 10.5744 27.8378C9.54843 27.8378 8.4837 28.1088 7.65128 28.7283L7.61256 28.7476Z" fill="#896049"/>
</g>
<g style="mix-blend-mode:multiply" opacity="0.49">
<path d="M7.61256 28.7476C7.43833 28.8831 7.2641 29.038 7.10923 29.2122C6.52847 29.8704 6.10258 30.6448 5.52182 31.3223C5.42503 31.4385 5.32823 31.5546 5.21208 31.6514C5.17337 31.6902 4.9217 31.9031 4.90234 31.9805C5.0185 31.8837 5.13465 31.8063 5.27016 31.7482C5.36695 31.6708 5.46375 31.5934 5.54118 31.5159C5.909 31.1675 6.23809 30.7803 6.58655 30.4125C6.76078 30.2383 6.93501 30.0834 7.14795 29.9479C7.38026 29.793 7.63192 29.6575 7.88358 29.5413C8.38691 29.3284 8.94831 29.2316 9.49035 29.1542C9.74202 29.1154 9.99368 29.0961 10.2453 29.1155C10.4776 29.1155 10.7099 29.1348 10.9423 29.1929C10.9616 29.1929 10.9616 29.2316 10.9423 29.251C10.6712 29.3478 10.4002 29.3671 10.1292 29.4445C9.87753 29.5026 9.62586 29.5801 9.3742 29.6575C9.12254 29.7349 8.89023 29.8124 8.63857 29.9092C8.21268 30.064 7.80615 30.2189 7.41897 30.4706C7.90294 30.2963 8.36755 30.0834 8.85152 29.9479C9.08382 29.8704 9.31612 29.8124 9.56779 29.7736C9.80009 29.7156 10.0518 29.6769 10.3034 29.6381C10.497 29.6188 10.7099 29.5994 10.9035 29.5801C11.039 29.5801 11.1746 29.5413 11.3101 29.5801C11.4262 29.5801 11.5424 29.6381 11.6005 29.7543C11.6585 29.8898 11.6005 30.0447 11.523 30.1608C11.5037 30.1995 11.4649 30.2383 11.4456 30.277C11.5424 30.1995 11.6392 30.1415 11.7553 30.0834C11.7553 30.0834 11.794 30.0834 11.794 30.1027C11.8134 30.2383 11.8134 30.3738 11.794 30.4899C11.7553 30.6641 11.6972 30.819 11.6198 30.9545C11.736 30.8384 11.8328 30.7029 11.9489 30.5674C12.0263 30.4706 12.1038 30.3931 12.1619 30.2963C12.2006 30.2383 12.2199 30.1995 12.2393 30.1415C12.2393 30.1415 12.2586 30.1415 12.278 30.1415C12.3167 30.0834 12.3554 30.0253 12.3748 29.9479C12.3748 29.8511 12.3748 29.7543 12.3748 29.6575C12.3748 29.4639 12.3167 29.2897 12.2393 29.1155C12.1619 28.9412 12.0651 28.767 11.9683 28.6121C11.8715 28.4573 11.7553 28.3217 11.6005 28.2056C11.5424 28.1475 11.4649 28.1088 11.3875 28.0701C11.3101 28.0314 11.2133 28.012 11.1358 27.9926C10.9423 27.9539 10.7487 27.9346 10.5357 27.9346C9.50971 27.9346 8.44498 28.2056 7.61256 28.8251V28.7476ZM9.29677 28.4766C9.41292 28.4766 9.52907 28.4766 9.64522 28.4766C9.74202 28.4766 9.85817 28.4766 9.95496 28.4766C10.1485 28.4766 10.3615 28.5153 10.5164 28.6315V28.6702C10.3228 28.7476 10.1098 28.767 9.91624 28.7864C9.74202 28.8057 9.54843 28.8251 9.3742 28.8638C9.19997 28.9025 9.00639 28.9606 8.83216 28.9993C8.79344 28.9993 8.75472 29.0187 8.69665 29.038C8.54178 29.0767 8.40627 29.1154 8.2514 29.1735C7.90294 29.2897 7.55448 29.4445 7.22539 29.6188C7.20603 29.6188 7.16731 29.6188 7.18667 29.5801C7.3609 29.3478 7.5932 29.1542 7.84486 28.9993C8.29011 28.7283 8.79344 28.5153 9.31612 28.4573L9.29677 28.4766Z" fill="#896049"/>
</g>
<g style="mix-blend-mode:screen">
<path d="M6.99367 30.9351C6.85815 30.9738 6.72264 30.9931 6.58713 31.0319H6.54841C6.43226 31.0706 6.31611 31.1093 6.19996 31.1674C6.10317 31.2061 6.00637 31.2448 5.90958 31.3029C5.87086 31.3222 5.83214 31.361 5.79343 31.3803C5.79343 31.3997 5.73535 31.4384 5.73535 31.4771C5.73535 31.4965 5.79343 31.5158 5.81279 31.5158C5.81279 31.5158 5.83214 31.5158 5.8515 31.5158C5.8515 31.5158 5.89022 31.5158 5.90958 31.5158C5.90958 31.5158 5.92894 31.5158 5.9483 31.5158C6.06445 31.5158 6.1806 31.5352 6.29675 31.5545C6.56778 31.5933 6.81944 31.6707 7.0711 31.7481C7.26469 31.8062 7.43892 31.8643 7.6325 31.903C7.9616 31.9804 8.2907 32.0385 8.6198 32.0579C8.8521 32.0579 9.10376 32.0579 9.33607 32.0579C9.45222 32.0579 9.56837 32.0192 9.68452 31.9804C9.76196 31.9611 9.85875 31.903 9.87811 31.8256C9.87811 31.8256 9.87811 31.8062 9.87811 31.7869C9.7426 31.6901 9.54901 31.7094 9.39414 31.7094C9.31671 31.7094 9.21991 31.7288 9.14248 31.7288C9.04569 31.7288 8.94889 31.7288 8.8521 31.7288C8.6198 31.7288 8.36813 31.6901 8.15519 31.6126C8.11647 31.6126 8.07775 31.5933 8.03903 31.5545C8.03903 31.5545 8.00032 31.5352 8.00032 31.5158C8.00032 31.4771 8.00032 31.4384 8.01968 31.419C8.07775 31.3222 8.17455 31.2642 8.23262 31.1674C8.2907 31.0706 8.2907 30.9351 8.1939 30.877C8.13583 30.8189 8.03903 30.7996 7.9616 30.7996C7.86481 30.7996 7.78737 30.7996 7.69058 30.7996C7.59378 30.7996 7.49699 30.7996 7.41956 30.7996C7.28405 30.7996 7.14854 30.8576 7.01302 30.877L6.99367 30.9351Z" fill="#896049"/>
</g>
<g style="mix-blend-mode:screen">
<path d="M6.47095 30.432C6.33544 30.5094 6.21929 30.6062 6.18057 30.7611C6.16122 30.8385 6.18057 30.9353 6.27737 30.9547C6.3548 30.9547 6.4516 30.9547 6.50967 30.9159C6.56775 30.9159 6.60646 30.8966 6.64518 30.8772C6.76133 30.8385 6.89685 30.7804 7.013 30.7224C7.10979 30.6643 7.20658 30.6256 7.28402 30.5481C7.32274 30.5094 7.36145 30.4513 7.36145 30.3933C7.36145 30.3352 7.32274 30.2965 7.28402 30.2771C7.16787 30.1997 7.03236 30.219 6.9162 30.2384C6.76133 30.2771 6.60646 30.3352 6.47095 30.4126V30.432Z" fill="#896049"/>
</g>
<path d="M8.94905 29.3286C9.2975 29.1931 9.66532 29.0963 10.0331 29.0189C10.3816 28.9414 10.73 28.8833 11.0785 28.8446C11.1753 28.8446 11.2721 28.8253 11.3689 28.8253C11.427 28.8253 11.4657 28.8253 11.5238 28.8253C11.5818 28.8253 11.6205 28.8253 11.6786 28.8253C11.698 28.8253 11.6786 28.7866 11.6786 28.7866C11.6012 28.7672 11.5044 28.7866 11.427 28.7866C11.3302 28.7866 11.2527 28.7866 11.1559 28.7866C10.9817 28.7866 10.8075 28.8253 10.6139 28.864C10.2461 28.9221 9.87826 28.9995 9.52981 29.0963C9.31686 29.1544 9.12327 29.2318 8.92969 29.3286V29.348L8.94905 29.3286Z" fill="#6B4B38"/>
<path d="M9.54963 29.3865C9.87873 29.3865 10.1885 29.3478 10.4982 29.2897C10.8079 29.2317 11.137 29.1349 11.4274 29.0381C11.5049 28.9993 11.5823 28.98 11.6791 28.9413C11.7565 28.9219 11.834 28.8832 11.892 28.8251C11.9114 28.8058 11.8533 28.767 11.834 28.7864C11.7759 28.8251 11.6984 28.8638 11.6404 28.8832C11.5629 28.9026 11.5049 28.9413 11.4274 28.9606C11.2726 29.0187 11.1177 29.0768 10.9628 29.1155C10.6724 29.2123 10.3627 29.2704 10.053 29.3284C9.87873 29.3478 9.7045 29.3672 9.53027 29.3865V29.4059L9.54963 29.3865Z" fill="#6B4B38"/>
<path d="M17.5049 25.1663L17.8921 25.9988L18.0082 26.2698L18.3954 27.1022C18.3954 27.1022 40.2901 16.9195 44.5683 14.732C44.5683 14.732 51.4407 11.3442 50.9954 10.686C50.7825 9.9117 43.7746 13.0091 43.7746 13.0091C39.3608 14.8869 17.5049 25.147 17.5049 25.147V25.1663Z" fill="#CF3928"/>
<path d="M17.5049 25.1664L17.9501 26.0956L50.9954 10.6473C50.5889 10.0085 43.794 13.0091 43.794 13.0091C39.3802 14.8869 17.5242 25.147 17.5242 25.147L17.5049 25.1664Z" fill="#982920"/>
<path d="M11.3878 28.8058L11.6975 29.464L12.1041 30.3738L18.5312 27.0441L18.2214 26.4053L17.931 25.7471L17.6213 25.1083L10.9619 27.9153L11.3878 28.8058Z" fill="#A3A5A8"/>
<path d="M11.9301 27.5088L11.7559 27.5669L12.8787 29.9673L13.0529 29.8899L11.9301 27.5088Z" fill="#6C6D70"/>
<g style="mix-blend-mode:screen">
<path d="M17.3312 27.0246C17.0602 27.1601 13.1691 29.1735 12.6464 29.4445C12.3948 29.58 12.1431 29.6961 11.8914 29.8123C11.8914 29.8123 11.8914 29.8123 11.8721 29.8123L11.9882 30.0446C12.356 29.851 12.7239 29.6381 13.111 29.4638C13.3627 29.3477 13.6337 29.2122 13.8854 29.096C14.137 28.9605 16.6537 27.6441 16.9053 27.5086C17.157 27.3731 17.4087 27.2569 17.6603 27.1021C17.912 26.9666 18.1443 26.8311 18.3959 26.6955L18.3185 26.502C17.9894 26.6568 17.6797 26.8117 17.3506 26.9666L17.3312 27.0246Z" fill="#A3A5A8"/>
</g>
<g style="mix-blend-mode:multiply">
<path d="M11.1361 28.2831C11.5233 28.1089 11.8911 27.9346 12.2783 27.7604C12.8203 27.5281 13.3624 27.3152 13.9238 27.0829C14.4658 26.8506 15.0079 26.6183 15.5306 26.386C15.8016 26.2698 16.0726 26.1536 16.3436 26.0375C16.6147 25.9213 16.8663 25.8052 17.1373 25.689C17.3503 25.5922 17.5439 25.4955 17.7568 25.3987L17.6213 25.1083L10.9619 27.9153L11.1361 28.3025V28.2831Z" fill="#A3A5A8"/>
</g>
<g style="mix-blend-mode:screen">
<path d="M18.6866 26.657C18.6866 26.657 43.698 14.7902 45.2661 14.19C46.8535 13.5706 49.6992 11.6541 49.6992 11.6541L18.4736 26.2505L18.6672 26.6764L18.6866 26.657Z" fill="#CF3928"/>
</g>
<path d="M7.16762 28.9994C6.91595 29.2511 6.64493 29.5028 6.45135 29.7931C6.2384 30.0835 6.04481 30.3739 5.87058 30.6643C5.69636 30.9353 5.52213 31.2257 5.25111 31.4193C5.15431 31.4967 5.03816 31.5548 4.94137 31.6322C4.84457 31.7096 4.74778 31.8258 4.76714 31.9613C4.80586 32.1162 4.98008 32.1549 5.1156 32.1355C5.28982 32.1162 5.46405 32.0581 5.63828 32C5.81251 31.9613 5.98674 31.9226 6.16096 31.9032C6.31583 31.9032 6.4707 31.9032 6.62557 31.9226C6.93531 31.9613 7.22569 32.0387 7.53543 32.1355C7.84517 32.213 8.15491 32.3098 8.46465 32.3678C8.77439 32.4259 9.10349 32.4259 9.41322 32.3872C9.74232 32.3485 10.0521 32.2904 10.3424 32.1549C10.4973 32.0775 10.6328 32 10.7877 31.8839C10.9232 31.7871 11.0587 31.6903 11.1555 31.5741C11.2136 31.5161 11.2523 31.4386 11.3104 31.3806C11.3685 31.3612 11.4072 31.3225 11.4265 31.2644C11.4459 31.2644 11.4265 31.2257 11.4265 31.2063C11.4265 31.1676 11.3878 31.1289 11.3685 31.1289C11.1168 30.9934 10.8651 31.1289 10.6522 31.2644C10.5554 31.3225 10.4586 31.3806 10.3424 31.3806C10.1876 31.3999 10.1101 31.3225 10.0714 31.187C10.0327 31.0321 10.0133 30.8966 9.93591 30.7611C9.87783 30.6643 9.78104 30.5868 9.68425 30.5288C9.49066 30.4126 9.239 30.3739 9.02605 30.2771C8.81311 30.1997 8.61952 30.0642 8.56144 29.8125C8.50337 29.5415 8.65824 29.3479 8.79375 29.1349C8.92926 28.922 9.04541 28.6316 8.83246 28.438C8.60016 28.2057 8.27106 28.2638 8.00004 28.38C7.6903 28.5155 7.41928 28.7671 7.16762 28.9994Z" fill="#07B1D2"/>
<g style="mix-blend-mode:multiply">
<path d="M7.16806 28.9994C6.91639 29.251 6.64537 29.5027 6.45178 29.7931C6.23884 30.0835 6.04525 30.3738 5.87102 30.6642C5.69679 30.9353 5.52257 31.2256 5.25155 31.4192C5.15475 31.4967 5.0386 31.5547 4.9418 31.6322C4.86437 31.6902 4.76758 31.787 4.76758 31.9032C4.96117 31.8257 5.13539 31.7096 5.30962 31.5934C5.48385 31.4386 5.65808 31.2643 5.81295 31.0901C5.96782 30.8965 6.12269 30.7029 6.29691 30.5287C6.37435 30.4513 6.45178 30.3545 6.52922 30.2771C6.56794 30.2383 6.62601 30.1996 6.68409 30.1609C6.8196 30.0641 6.95511 29.9673 7.09062 29.8899C7.22613 29.8124 7.381 29.7544 7.53587 29.7157C7.65202 29.6963 7.80689 29.7157 7.90369 29.7931C8.01984 29.8899 8.05855 30.0641 8.0392 30.219C8.0392 30.2771 8.01984 30.3545 8.0392 30.4126C8.05855 30.4513 8.09727 30.49 8.13599 30.5094C8.19407 30.5481 8.23278 30.5674 8.29086 30.5868C8.5038 30.6449 8.73611 30.5868 8.94905 30.5868C9.14264 30.5868 9.37495 30.6062 9.52982 30.761C9.64597 30.8772 9.66533 31.032 9.68469 31.1676C9.68469 31.3031 9.70404 31.4579 9.8202 31.5354C9.93635 31.6322 10.0719 31.6128 10.2074 31.5934C10.3429 31.5547 10.4784 31.516 10.6139 31.4773C10.672 31.4773 10.7301 31.4579 10.7881 31.4579C10.8268 31.4579 10.8849 31.4579 10.9043 31.4967C10.943 31.5354 10.943 31.5741 10.9236 31.6128C10.9236 31.6902 10.8656 31.7483 10.8268 31.8258C10.943 31.7483 11.0398 31.6515 11.1366 31.5547C11.1947 31.4967 11.2334 31.4192 11.2915 31.3611C11.3495 31.3418 11.3882 31.3031 11.4076 31.245C11.427 31.245 11.4076 31.2063 11.4076 31.1869C11.4076 31.1482 11.3689 31.1095 11.3495 31.1095C11.0979 30.974 10.8462 31.1095 10.6333 31.245C10.5365 31.3031 10.4397 31.3611 10.3235 31.3611C10.1687 31.3805 10.0912 31.3031 10.0525 31.1676C10.0138 31.0127 9.99442 30.8772 9.91699 30.7417C9.85891 30.6449 9.76212 30.5674 9.66533 30.5094C9.47174 30.3932 9.22008 30.3545 9.00713 30.2577C8.79418 30.1803 8.6006 30.0447 8.54252 29.7931C8.48445 29.5221 8.63932 29.3285 8.77483 29.1155C8.91034 28.9026 9.02649 28.6122 8.81354 28.4186C8.58124 28.1863 8.25214 28.2444 7.98112 28.3605C7.67138 28.4961 7.40036 28.7477 7.1487 28.98L7.16806 28.9994Z" fill="#07B1D2"/>
</g>
<path d="M9.00684 29.7156C9.00684 29.8318 9.06491 29.9286 9.18106 29.9866C9.2585 30.0254 9.37465 30.0447 9.47144 30.0254C9.54888 30.0254 9.64567 30.0254 9.72311 29.9866C9.78118 29.9673 9.83926 29.9286 9.85862 29.8705C9.89733 29.8124 9.87798 29.735 9.85862 29.6575C9.80054 29.5414 9.68439 29.4833 9.54888 29.4446C9.45209 29.4252 9.31657 29.4252 9.21978 29.464C9.12299 29.5027 9.04555 29.5995 9.0262 29.6963L9.00684 29.7156Z" fill="#07B1D2"/>
<path d="M10.6338 30.7224V30.7418H10.6531L10.6338 30.7224Z" fill="#07B1D2"/>
<path d="M10.324 30.7611C10.324 30.7611 10.324 30.7998 10.324 30.8385C10.324 30.8578 10.324 30.8966 10.3434 30.9159C10.3434 30.9353 10.3821 30.9546 10.4015 30.974C10.4402 30.9934 10.4789 31.0127 10.537 31.0127C10.5757 31.0127 10.6338 31.0127 10.6531 31.0127C10.6725 31.0127 10.6919 30.9934 10.7112 30.974C10.7112 30.9546 10.7306 30.9159 10.7112 30.8966C10.7112 30.8772 10.7112 30.8385 10.6725 30.8191C10.6725 30.8191 10.6531 30.7998 10.6338 30.7804C10.6144 30.7804 10.5951 30.7611 10.5564 30.7417C10.537 30.7417 10.5176 30.7417 10.4983 30.7417C10.4596 30.7417 10.4015 30.7417 10.3628 30.7611C10.3434 30.7611 10.324 30.7804 10.3047 30.8191L10.324 30.7611Z" fill="#07B1D2"/>
<g style="mix-blend-mode:screen">
<path d="M7.3418 31.4579C7.3418 31.6515 7.47731 31.8451 7.63218 31.9612C7.84512 32.1161 8.09679 32.2129 8.36781 32.1936C8.42588 32.1936 8.4646 32.1936 8.52268 32.1742C8.71626 32.1742 8.90985 32.0968 9.026 31.9419C9.27767 31.6322 8.85177 31.3224 8.60011 31.2063C8.4646 31.1288 8.29037 31.0708 8.1355 31.0514C7.96127 31.0514 7.78705 31.0514 7.65154 31.1482C7.51602 31.2063 7.38051 31.3224 7.38051 31.4773L7.3418 31.4579Z" fill="#07B1D2"/>
</g>
<g style="mix-blend-mode:screen">
<path d="M6.6258 31.5159C6.6258 31.5159 6.6258 31.5546 6.6258 31.574C6.6258 31.6127 6.66452 31.6514 6.70324 31.6708C6.74196 31.6902 6.78067 31.7095 6.81939 31.7095C6.85811 31.7095 6.87747 31.7095 6.91618 31.7095C6.91618 31.7095 6.91618 31.7095 6.93554 31.7095C6.93554 31.7095 6.9549 31.7095 6.97426 31.7095C6.99362 31.7095 7.01298 31.6902 7.03234 31.6708C7.03234 31.6514 7.05169 31.6127 7.03234 31.5934C7.03234 31.5159 6.9549 31.4579 6.89682 31.4191C6.78067 31.3804 6.64516 31.4191 6.60645 31.5546L6.6258 31.5159Z" fill="#07B1D2"/>
</g>
<path d="M14.2732 26.4634C13.9247 26.5795 13.5763 26.6957 13.2278 26.8312C12.86 26.9667 12.5115 27.1409 12.1631 27.2764C11.9888 27.3539 11.7953 27.4313 11.621 27.4894C11.5049 27.5281 11.4081 27.5668 11.3113 27.6442C11.2532 27.683 11.2145 27.741 11.1758 27.7991C11.2726 27.954 11.3887 28.0895 11.563 28.1476C11.6985 28.1863 11.8533 28.1863 11.9888 28.1863C12.1631 28.1863 12.1437 28.2444 12.2405 28.3799C12.2986 28.4573 12.3567 28.5154 12.4341 28.5735C12.5696 28.6896 12.7438 28.7477 12.9374 28.767C13.0729 28.767 13.1891 28.7283 13.3246 28.6896C13.4407 28.6509 13.5569 28.5928 13.6924 28.5928C13.8279 28.5928 13.9441 28.6509 14.0602 28.709C14.3312 28.8251 14.5829 28.9025 14.8733 28.767C15.0475 28.6702 15.2024 28.5154 15.2798 28.3411C15.3573 28.1863 15.396 28.0314 15.3766 27.8572C15.3379 27.4894 15.0669 27.2571 14.9314 26.9086C14.8733 26.7344 14.9314 26.5795 14.9314 26.4053C14.9314 26.3278 14.9314 26.2504 14.9507 26.173C14.7184 26.2698 14.4861 26.3666 14.2538 26.444L14.2732 26.4634Z" fill="#44B9E9"/>
<g style="mix-blend-mode:multiply" opacity="0.51">
<path d="M14.7759 26.2503C14.7178 26.4052 14.621 26.5213 14.5629 26.6762C14.5242 26.773 14.5048 26.8504 14.5436 26.9472C14.5629 27.044 14.621 27.1408 14.6791 27.2182C14.7952 27.3731 14.9695 27.4893 15.105 27.6441C15.2211 27.7796 15.2986 27.9345 15.2792 28.1281C15.2792 28.2249 15.2598 28.341 15.2211 28.4185C15.2405 28.3798 15.2598 28.341 15.2792 28.3023C15.3566 28.1475 15.3953 27.9926 15.376 27.8184C15.3373 27.4505 15.0663 27.2182 14.9307 26.8698C14.8727 26.6956 14.9307 26.5407 14.9307 26.3665C14.9307 26.289 14.9307 26.2116 14.9501 26.1342C14.892 26.1535 14.8339 26.1922 14.7759 26.2116V26.2503Z" fill="#44B9E9"/>
</g>
<path d="M11.2526 29.5994C11.2139 29.7156 11.2139 29.8511 11.2719 29.9672C11.3494 30.1221 11.4655 30.2576 11.6397 30.3157C11.7946 30.3544 11.9495 30.3157 12.0656 30.2189C12.2979 30.006 12.2592 29.522 11.9882 29.3671C11.8527 29.2897 11.6978 29.2897 11.5623 29.3284C11.4268 29.3671 11.3106 29.4639 11.2526 29.5994Z" fill="#44B9E9"/>
<g style="mix-blend-mode:screen">
<path d="M11.4852 30.0252C11.4852 30.0252 11.4852 30.0833 11.4852 30.122C11.4852 30.1607 11.5239 30.1995 11.5626 30.1995C11.6013 30.1995 11.64 30.1995 11.6594 30.1801C11.7175 30.122 11.6981 30.0252 11.64 29.9865C11.6013 29.9865 11.5626 29.9672 11.5433 29.9865C11.5045 29.9865 11.4852 30.0252 11.4658 30.0446L11.4852 30.0252Z" fill="#44B9E9"/>
</g>
<g style="mix-blend-mode:multiply" opacity="0.51">
<path d="M11.2526 29.5994C11.2139 29.7156 11.2139 29.8511 11.2719 29.9672C11.3494 30.1221 11.4655 30.2576 11.6397 30.3157C11.7946 30.3544 11.9495 30.3157 12.0656 30.2189C12.2979 30.006 12.2592 29.522 11.9882 29.3671C11.8527 29.2897 11.6978 29.2897 11.5623 29.3284C11.4268 29.3671 11.3106 29.4639 11.2526 29.5994ZM11.543 29.6575C11.543 29.6575 11.7172 29.6575 11.814 29.6769C11.9882 29.7737 12.0076 30.064 11.872 30.1996C11.7946 30.2576 11.6978 30.277 11.601 30.2576C11.5042 30.2189 11.4268 30.1415 11.3687 30.0447C11.33 29.9672 11.33 29.8898 11.3687 29.8124C11.4074 29.7349 11.4655 29.6769 11.5623 29.6575H11.543Z" fill="#44B9E9"/>
</g>
<g style="mix-blend-mode:screen">
<path d="M14.6009 28.5926C14.6009 28.5926 14.5622 28.5539 14.5428 28.5539C14.4848 28.5539 14.446 28.5539 14.388 28.5539C14.3492 28.5539 14.2912 28.5346 14.2524 28.5152C14.175 28.4765 14.1169 28.399 14.0395 28.341C14.0008 28.3216 13.9621 28.2829 13.9234 28.2829C13.8653 28.2829 13.8072 28.2635 13.7685 28.2829C13.6523 28.2829 13.5555 28.3603 13.4587 28.399C13.362 28.4571 13.2652 28.4958 13.1684 28.5346C13.1103 28.5346 13.0716 28.5346 13.0135 28.5539C12.9554 28.5539 12.9167 28.5539 12.8586 28.5539C12.8199 28.5539 12.7618 28.5539 12.7812 28.612C12.7812 28.6507 12.8393 28.6701 12.8973 28.6701C13.0716 28.7088 13.2458 28.6701 13.4007 28.5926C13.5749 28.5152 13.691 28.4571 13.8846 28.5346C13.9621 28.5733 14.0201 28.612 14.0976 28.6314C14.2331 28.7088 14.5041 28.8056 14.6203 28.6314C14.6203 28.6314 14.6203 28.6314 14.6203 28.612L14.6009 28.5926Z" fill="#44B9E9"/>
</g>
<g style="mix-blend-mode:screen">
<path d="M12.5681 28.4186C12.5681 28.4186 12.5681 28.2831 12.5294 28.2443C12.4907 28.1863 12.4326 28.1282 12.3939 28.0701C12.2971 27.954 12.1616 27.8572 12.0067 27.7991C11.9293 27.7797 11.8518 27.7604 11.7551 27.7604C11.7163 27.7604 11.6583 27.7604 11.6195 27.7604C11.5808 27.7604 11.5421 27.7797 11.5034 27.7991C11.484 27.7991 11.4453 27.8378 11.4453 27.8765C11.4453 27.8959 11.4453 27.9346 11.4453 27.954C11.4453 27.9733 11.4647 27.9927 11.484 28.012C11.5615 28.0701 11.6776 28.0701 11.7744 28.0508C11.8712 28.0508 11.968 27.9927 12.0454 28.0508C12.1422 28.0895 12.2003 28.1475 12.2777 28.225C12.3165 28.2637 12.4907 28.496 12.5488 28.4379L12.5681 28.4186Z" fill="#44B9E9"/>
</g>
<g style="mix-blend-mode:screen">
<path d="M14.7757 28.2055C14.7757 28.2055 14.6982 28.2829 14.6982 28.341C14.6982 28.3797 14.6982 28.4378 14.7176 28.4765C14.7563 28.5346 14.8338 28.5539 14.8918 28.5346C14.9499 28.5346 15.008 28.4571 15.0273 28.3991C15.0273 28.3797 15.0273 28.3604 15.0273 28.3216C15.0273 28.2636 14.9693 28.2055 14.9112 28.1861C14.8531 28.1668 14.795 28.1861 14.7563 28.2055H14.7757Z" fill="#44B9E9"/>
</g>
</svg>
