<svg width="44" height="52" viewBox="0 0 44 52" fill="none" xmlns="http://www.w3.org/2000/svg">
<path d="M22.4903 50.7496H11.7644C10.7072 50.7496 10.0245 49.6032 10.5311 48.6553C11.5662 46.6711 12.1168 44.5768 12.4031 43.0776" stroke="#153960" stroke-width="1.49912" stroke-linecap="round" stroke-linejoin="round"/>
<path d="M31.8283 46.0762C32.1146 46.9139 32.467 47.7958 32.9075 48.6335C33.392 49.5815 32.7313 50.7279 31.6741 50.7279H25.5293" stroke="#153960" stroke-width="1.49912" stroke-linecap="round" stroke-linejoin="round"/>
<path d="M6.21489 8.31104C6.06057 9.32515 5.90625 10.7802 5.90625 11.0227" stroke="#153960" stroke-width="1.49912" stroke-linecap="round" stroke-linejoin="round"/>
<path d="M5.94922 16.2256C6.69805 24.9338 10.8607 29.5193 10.8607 29.5193H32.5547C32.5547 29.5193 39.2721 22.0898 37.2018 8.28906" stroke="#153960" stroke-width="1.49912" stroke-linecap="round" stroke-linejoin="round"/>
<path d="M26.4324 29.5412C30.4849 28.1303 33.0177 24.9336 33.0618 20.4583C33.0838 18.2757 32.5552 15.7845 31.4319 13.0068C30.9034 11.706 29.3396 11.0447 27.908 11.5297C26.4765 11.9926 25.7497 13.4256 26.2782 14.7263C27.3354 17.3498 28.3926 21.1858 26.6747 23.4124C26.2342 23.9856 24.8687 25.3304 21.7192 25.3304C18.5697 25.3304 17.2042 23.9856 16.7637 23.4124C15.0458 21.1638 16.103 17.3278 17.1601 14.7263C17.6887 13.4256 16.9399 11.9926 15.5303 11.5297C14.0988 11.0667 12.535 11.7281 12.0064 13.0068C10.8832 15.7845 10.3546 18.2757 10.3766 20.4583C10.4427 24.9557 12.9755 28.1523 17.006 29.5412" stroke="#153960" stroke-width="1.49912" stroke-linecap="round" stroke-linejoin="round"/>
<path d="M7.46973 38.0508C8.50487 40.2554 10.3109 41.8868 12.4032 43.0552C15.4205 44.7307 19.0105 45.4362 21.7195 45.4362C23.6797 45.4362 26.0143 45.0614 28.2167 44.2898" stroke="#153960" stroke-width="1.49912" stroke-linecap="round" stroke-linejoin="round"/>
<path d="M32.5557 42.0862C35.0004 40.2784 36.7843 37.677 36.8504 34.0835" stroke="#153960" stroke-width="1.49912" stroke-linecap="round" stroke-linejoin="round"/>
<path d="M16.4111 0.749512H35.3301C36.5414 0.749512 37.6426 1.21248 38.4575 1.98408" stroke="#153960" stroke-width="1.49912" stroke-linecap="round" stroke-linejoin="round"/>
<path d="M38.1932 8.02467C37.7747 8.24513 37.3122 8.33332 36.8497 8.33332H6.21378C4.71612 8.1349 3.54883 6.85624 3.54883 5.31302C3.54883 2.79979 5.5971 0.749512 8.10788 0.749512H13.4158" stroke="#153960" stroke-width="1.49912" stroke-linecap="round" stroke-linejoin="round"/>
<path d="M8.21839 34.083H36.8501C37.687 34.083 38.3477 33.3995 38.3477 32.5838C38.3477 30.9084 36.9822 29.5415 35.3084 29.5415H8.08624C6.41239 29.5415 5.04688 30.9084 5.04688 32.5838C5.04688 32.8925 5.13497 33.1791 5.31117 33.4216" stroke="#153960" stroke-width="1.49912" stroke-linecap="round" stroke-linejoin="round"/>
<path d="M15.2881 38.2275V39.418" stroke="#153960" stroke-width="1.49912" stroke-linecap="round" stroke-linejoin="round"/>
<path d="M27.8418 38.2275V39.418" stroke="#153960" stroke-width="1.49912" stroke-linecap="round" stroke-linejoin="round"/>
<path d="M19.9131 39.396C20.7941 40.4101 22.3358 40.4101 23.2167 39.396" stroke="#153960" stroke-width="1.49912" stroke-linecap="round" stroke-linejoin="round"/>
<path d="M32.3123 15.895L27.1807 17.3721" stroke="#153960" stroke-width="1.49912" stroke-linecap="round" stroke-linejoin="round"/>
<path d="M27.7754 21.2081L33.0612 20.4585" stroke="#153960" stroke-width="1.49912" stroke-linecap="round" stroke-linejoin="round"/>
<path d="M16.2567 17.3721L11.125 15.895" stroke="#153960" stroke-width="1.49912" stroke-linecap="round" stroke-linejoin="round"/>
<path d="M15.6628 21.2081L10.377 20.4585" stroke="#153960" stroke-width="1.49912" stroke-linecap="round" stroke-linejoin="round"/>
<path d="M33.7227 43.8714C32.9739 43.4305 32.5114 42.6148 32.5334 41.733C32.5775 40.1898 31.5203 39.8811 30.7274 41.2259C30.2869 41.9755 29.472 42.4385 28.591 42.4164C27.0493 42.3944 26.741 43.4305 28.0845 44.2242C28.8333 44.6651 29.2958 45.4808 29.2738 46.3626C29.2297 47.9059 30.2869 48.2145 31.0798 46.8697C31.5203 46.1201 32.3352 45.6572 33.2162 45.6792C34.7579 45.7013 35.0662 44.6651 33.7227 43.8714Z" stroke="#153960" stroke-width="1.49912" stroke-linecap="round" stroke-linejoin="round"/>
<path d="M41.7838 4.36492C40.9248 4.14446 40.2641 3.48309 40.0438 2.64534C39.6474 1.14621 38.5682 1.14621 38.1718 2.64534C37.9515 3.50513 37.2908 4.14446 36.4318 4.38697C34.9342 4.7838 34.9342 5.86405 36.4318 6.26087C37.2908 6.48133 37.9295 7.14271 38.1718 7.98046C38.5682 9.47958 39.6474 9.47958 40.0438 7.98046C40.2641 7.12067 40.9248 6.48133 41.7838 6.23883C43.2814 5.842 43.2814 4.76175 41.7838 4.36492Z" stroke="#153960" stroke-width="1.49912" stroke-linecap="round" stroke-linejoin="round"/>
<path d="M7.13904 14.5059C6.43426 13.9768 6.05984 13.1391 6.16996 12.2572C6.36818 10.714 5.35506 10.3172 4.43004 11.5517C3.90145 12.2572 3.06452 12.632 2.18355 12.5218C0.641842 12.3234 0.245403 13.3375 1.47877 14.2634C2.18355 14.7925 2.55796 15.6302 2.44784 16.5121C2.24962 18.0553 3.26274 18.4521 4.18777 17.2176C4.71635 16.5121 5.55328 16.1373 6.43426 16.2475C7.95394 16.4459 8.3724 15.4318 7.13904 14.5059Z" stroke="#153960" stroke-width="1.49912" stroke-linecap="round" stroke-linejoin="round"/>
<path d="M8.48292 36.5302C7.95433 35.8247 7.84421 34.8988 8.21862 34.1051C8.85733 32.6942 7.99838 32.0108 6.76502 32.9367C6.06024 33.4658 5.13521 33.576 4.34233 33.2012C2.93277 32.5619 2.25002 33.4217 3.17504 34.6563C3.70363 35.3617 3.81375 36.2877 3.43933 37.0813C2.80063 38.4923 3.65958 39.1757 4.89294 38.2498C5.59772 37.7207 6.52275 37.6104 7.31563 37.9852C8.72519 38.6245 9.40794 37.7647 8.48292 36.5302Z" stroke="#153960" stroke-width="1.49912" stroke-linecap="round" stroke-linejoin="round"/>
</svg>
