<svg width="62" height="40" viewBox="0 0 62 40" fill="none" xmlns="http://www.w3.org/2000/svg">
<path d="M24.0793 22.1058L56.7444 22.1058C59.6157 22.1058 61.9434 19.7782 61.9434 16.9068V5.19901C61.9434 2.32768 59.6157 1.33514e-05 56.7444 1.33514e-05L24.0793 1.33514e-05C21.208 1.33514e-05 18.8803 2.32768 18.8803 5.19901V16.9068C18.8803 19.7782 21.208 22.1058 24.0793 22.1058Z" fill="#F8A491"/>
<path d="M50.4571 19.4459L51.2632 35.1033L40.2002 19.063L50.4571 19.4459Z" fill="#F8A491"/>
<path d="M30.2872 14.4888H4.45341C1.99386 14.4888 0 16.4826 0 18.9422V27.8691C0 30.3287 1.99386 32.3225 4.45341 32.3225H30.2872C32.7467 32.3225 34.7406 30.3287 34.7406 27.8691V18.9422C34.7406 16.4826 32.7467 14.4888 30.2872 14.4888Z" fill="#F9E0B2"/>
<path d="M11.0631 29.8641L7.67773 40.0002L17.5115 29.8641H11.0631Z" fill="#F9E0B2"/>
<path d="M10.1974 24.0807C10.1974 24.9875 9.41155 25.713 8.46445 25.713C7.51734 25.713 6.73145 24.9875 6.73145 24.0807C6.73145 23.1739 7.51734 22.4485 8.46445 22.4485C9.41155 22.4485 10.1974 23.1739 10.1974 24.0807Z" fill="white"/>
<path d="M19.0832 24.0807C19.0832 24.9875 18.2973 25.713 17.3502 25.713C16.4031 25.713 15.6172 24.9875 15.6172 24.0807C15.6172 23.1739 16.4031 22.4485 17.3502 22.4485C18.2973 22.4485 19.0832 23.1739 19.0832 24.0807Z" fill="white"/>
<path d="M27.9904 24.0807C27.9904 24.9875 27.2045 25.713 26.2574 25.713C25.3103 25.713 24.5244 24.9875 24.5244 24.0807C24.5244 23.1739 25.3103 22.4485 26.2574 22.4485C27.2045 22.4485 27.9904 23.1739 27.9904 24.0807Z" fill="white"/>
</svg>
