<svg width="16" height="40" viewBox="0 0 16 40" fill="none" xmlns="http://www.w3.org/2000/svg">
<path d="M0.147461 2.20723C0.664863 1.62712 3.03237 0.21602 3.81631 0.106268C4.55322 -0.00348426 5.38419 0.0592312 6.13678 0.0592312H10.1035L13.2236 0.0278735C13.7097 0.0278735 14.2741 -0.0348419 14.7601 0.0278735C14.9169 0.0435524 15.0267 0.121946 15.1521 0.216019C13.8665 0.764779 12.8003 1.70551 11.6087 2.41106L11.5303 2.44242C9.86835 2.11316 1.08819 2.64624 0.523753 2.33266C0.382643 2.22291 0.351287 2.23859 0.178819 2.22291L0.147461 2.20723Z" fill="#F7BA57"/>
<path d="M8.86426 1.0628C9.22487 1.04712 9.78931 0.95305 10.1342 1.09416C10.2283 1.12552 10.2126 1.20391 10.244 1.29798C9.88338 1.34502 9.38166 1.43909 9.03673 1.29798C8.94265 1.26663 8.91129 1.15687 8.86426 1.0628Z" fill="white"/>
<path d="M0.492188 2.31714C0.570582 2.20738 0.58626 2.1917 0.72737 2.17603C1.57403 2.03492 3.43981 2.14467 4.36486 2.14467C6.59126 2.14467 8.83333 2.08195 11.0754 2.14467L11.5301 2.44257C9.86814 2.11331 1.08798 2.64639 0.523544 2.33281L0.492188 2.31714Z" fill="white"/>
<path d="M4.92945 0.702059C5.83882 0.592307 6.88931 0.513913 7.79868 0.639343C8.03386 0.68638 8.31608 0.702059 8.47287 0.905884C8.53558 0.984278 8.50423 1.01564 8.50423 1.09403C8.03386 1.54872 6.65412 1.42329 6.02697 1.40761C5.61932 1.40761 5.07056 1.42329 4.66291 1.32921C4.56884 1.31353 4.47476 1.29786 4.39637 1.2665C4.25526 1.21946 4.20822 1.1881 4.14551 1.06267C4.14551 1.04699 4.16119 1.03131 4.17687 1.01564C4.33365 0.796132 4.66291 0.764775 4.91377 0.717738L4.92945 0.702059Z" fill="white"/>
<path d="M5.18059 0.874652C6.07429 0.874652 7.06206 0.733542 7.95575 0.921689L8.04982 0.984404V1.04712C7.56378 1.18823 5.14924 1.29798 4.77295 1.09416C4.71023 1.0628 4.69455 1.04712 4.63184 1.00008C4.81998 0.921688 4.97677 0.890331 5.18059 0.858973V0.874652Z" fill="#F7BA57"/>
<path d="M15.1363 0.200439C15.246 0.341549 15.3401 0.46698 15.3558 0.639447C15.4185 1.31364 15.3558 2.01919 15.3558 2.69338V6.62877L15.3714 9.79589C15.3714 10.4544 15.4185 11.1443 15.3558 11.8185C15.3244 12.0536 15.1676 12.2575 14.9795 12.3986C14.7286 12.571 14.4464 12.7122 14.1799 12.8533C14.4307 12.9317 14.6973 13.0101 14.9481 13.1198C14.0701 13.402 12.3768 14.3428 11.7496 15.0326L11.6712 14.9386C11.1695 14.5936 6.73241 14.7504 5.85439 14.7504C5.41538 14.7034 4.92934 14.7347 4.47465 14.7191C3.70639 14.6877 2.95381 14.6407 2.20122 14.625C1.68382 14.625 1.15074 14.6563 0.649014 14.5779L0.554942 14.4368C0.774446 14.2016 1.04099 14.0135 1.29185 13.8097C1.1037 13.7783 0.915555 13.7626 0.743088 13.7156C0.476548 13.6372 0.304081 13.4804 0.17865 13.2296C0.0845771 13.0414 0.084576 12.8376 0.0688972 12.6338C0.0218606 11.5519 -0.0408541 2.75609 0.162971 2.20733C0.335438 2.20733 0.366795 2.20733 0.507904 2.31708C1.07234 2.64634 9.8525 2.11326 11.5145 2.42684L11.5928 2.39548C12.7688 1.68993 13.8506 0.73352 15.1363 0.200439Z" fill="#F7BA57"/>
<path d="M7.10855 3.60266C7.2967 3.61834 7.45348 3.6497 7.59459 3.77513C7.75138 3.91624 7.78274 4.12006 7.8141 4.32389C7.87681 4.85697 7.82977 5.43709 7.8141 5.98585C7.8141 6.81682 7.8141 7.6478 7.8141 8.47878C8.11199 8.47878 8.37854 8.51014 8.64508 8.66693C8.83322 8.77668 8.99001 8.93347 9.03705 9.15297C9.0684 9.32544 9.00569 9.48223 8.89594 9.60766C8.6294 9.90556 8.22175 9.90556 7.84545 9.93691C7.84545 10.4543 7.92385 11.0344 7.64163 11.4891C7.54756 11.6459 7.42213 11.7713 7.23398 11.8027C7.10855 11.8184 7.01447 11.7713 6.9204 11.6929C6.57547 11.395 6.57547 10.862 6.55979 10.4386C6.55979 10.2348 6.55979 10.0623 6.52843 9.85852C6.1051 9.70173 5.30548 9.85852 4.83512 9.85852C4.41179 9.85852 3.61217 9.93692 3.29859 9.59198C3.20452 9.48223 3.18884 9.37248 3.20452 9.23137C3.23587 8.99618 3.39266 8.71396 3.51809 8.51014C3.76895 8.11817 4.08253 7.77323 4.36475 7.39694C4.89783 6.67571 6.60682 4.04167 7.1399 3.61834L7.10855 3.60266Z" fill="#E65E3B"/>
<path d="M6.56002 5.87622C6.73249 6.1114 6.60706 8.1183 6.59138 8.54162H5.07053C5.07053 8.54162 5.05485 8.52595 5.00781 8.41619C5.33707 7.63225 6.08965 6.61313 6.56002 5.87622Z" fill="#F7BA57"/>
<path d="M15.136 0.200439C15.2458 0.341549 15.3398 0.46698 15.3555 0.639447C15.4182 1.31364 15.3555 2.01919 15.3555 2.69338V6.62877L15.3712 9.79589C15.3712 10.4544 15.4182 11.1443 15.3555 11.8185C15.3242 12.0536 15.1674 12.2575 14.9792 12.3986C14.7284 12.571 14.4461 12.7122 14.1796 12.8533C14.4305 12.9317 14.697 13.0101 14.9479 13.1198C14.0699 13.402 12.3765 14.3428 11.7494 15.0326L11.671 14.9386C11.1693 14.5936 6.73215 14.7504 5.85414 14.7504C5.41513 14.7034 4.92909 14.7347 4.4744 14.7191C3.70614 14.6877 2.95355 14.6407 2.20097 14.625C1.68356 14.625 1.15048 14.6563 0.64876 14.5779L0.554688 14.4368C0.774191 14.2016 1.04073 14.0135 1.29159 13.8097C1.36999 13.747 1.40134 13.6999 1.5111 13.6842C2.12257 13.5431 3.97268 13.6372 4.72526 13.6529H10.9811C11.232 13.6529 11.4985 13.6529 11.6867 13.4647C11.7964 13.3393 11.8435 13.2452 11.8748 13.0728C11.9375 12.524 11.8905 11.9439 11.8905 11.3795V8.3848L11.8748 4.71595C11.8748 4.05744 11.9062 3.35189 11.8278 2.69338C11.8121 2.52091 11.7494 2.52091 11.624 2.42684C12.7999 1.72129 13.8817 0.764878 15.1674 0.231797L15.136 0.200439Z" fill="#E58D24"/>
<path d="M14.9488 13.1041L15.1996 13.2295C15.3094 13.4333 15.3721 13.5901 15.4035 13.8096C15.5289 14.9542 15.4348 16.2085 15.4348 17.3687C15.4348 19.9087 15.4035 22.4643 15.4819 25.0043C15.3564 25.1611 15.231 25.3179 15.0899 25.4747C15.1369 25.7882 15.2153 26.2429 15.0272 26.5252L15.0742 26.5565C14.2119 27.2621 12.9889 27.5756 12.1893 28.2341C11.4054 28.2969 10.6057 28.2655 9.82179 28.2655H5.35332C4.30284 28.2655 3.26804 28.2655 2.21755 28.2655C1.48065 28.2655 0.728063 28.3282 0.00683594 28.2812C0.163624 28.1557 0.289055 28.046 0.477202 27.9676C0.931888 27.6227 1.43361 27.3875 1.90398 27.0739C1.90398 27.0112 1.85694 26.9798 1.82558 26.9171C1.54336 26.823 1.21411 26.8387 0.916209 26.823C0.508559 26.823 0.304734 26.6663 0.00683594 26.4154V25.1454V15.0953C0.147946 14.8444 0.289055 14.6249 0.508558 14.4054L0.602632 14.5465C1.10436 14.6249 1.65311 14.5779 2.15484 14.5935C2.9231 14.5935 3.67569 14.6563 4.42827 14.6876C4.88296 14.7033 5.35332 14.6719 5.80801 14.719C6.7017 14.719 11.1388 14.5622 11.6249 14.9071L11.7033 15.0012C12.3304 14.3113 14.0237 13.3549 14.9017 13.0884L14.9488 13.1041Z" fill="#F7BA57"/>
<path d="M5.85435 14.7348C6.74804 14.7348 11.1852 14.578 11.6712 14.9229C11.6398 14.9543 11.6242 14.97 11.5615 14.9856C11.2008 15.0954 1.95032 15.0954 0.837121 15.064C0.71169 15.064 0.617618 15.064 0.492188 15.0013V14.9229C0.696012 14.7348 4.99202 14.7975 5.76028 14.7348H5.83867H5.85435Z" fill="#F3DFB1"/>
<path d="M5.7136 16.5535C5.83903 16.5535 5.98014 16.5378 6.10557 16.5378C6.85816 16.5378 7.62642 16.773 8.17518 17.3218C8.5358 17.6824 8.72394 18.1371 8.69259 18.6388C8.59851 20.3321 6.8268 21.7432 5.68225 22.778C6.35644 22.8251 8.06543 22.6212 8.56716 22.9035C8.77098 23.0289 8.95912 23.217 9.00616 23.4679C9.02184 23.609 8.95912 23.7188 8.86505 23.8128C8.4574 24.2362 5.54114 24.0637 4.88263 24.0637C4.52201 24.0637 4.11436 24.1107 3.78511 23.9069C3.644 23.8128 3.5656 23.7188 3.53424 23.5463C3.48721 23.2954 3.65968 22.9975 3.81646 22.8094C4.06733 22.4958 4.41226 22.2293 4.71016 21.9784C5.52546 21.2572 6.40347 20.5046 6.96791 19.5795C7.15606 19.266 7.3442 18.9053 7.23445 18.5291C7.14038 18.2155 6.85816 17.9646 6.57594 17.8392C6.3094 17.7138 5.98015 17.6667 5.69793 17.7765C5.2746 17.9646 5.24324 18.3879 5.08645 18.7642C5.00806 18.9524 4.85127 19.1562 4.64744 19.2189C4.50633 19.266 4.39658 19.2503 4.27115 19.1876C4.083 19.0778 3.97325 18.8426 3.92622 18.6388C3.84782 18.2782 3.97325 17.8392 4.1614 17.5413C4.50633 16.9925 5.10213 16.7103 5.7136 16.5535Z" fill="#E65E3B"/>
<path d="M14.9488 13.104L15.1996 13.2294C15.3094 13.4332 15.3721 13.59 15.4035 13.8095C15.5289 14.9541 15.4348 16.2084 15.4348 17.3686C15.4348 19.9086 15.4035 22.4643 15.4819 25.0042C15.3564 25.161 15.231 25.3178 15.0899 25.4746C15.1369 25.7882 15.2153 26.2429 15.0272 26.5251L15.0742 26.5564C14.2119 27.262 12.9889 27.5756 12.1893 28.2341C11.4054 28.2968 10.6057 28.2654 9.82179 28.2654H5.35332C4.30284 28.2654 3.26804 28.2654 2.21755 28.2654C1.48065 28.2654 0.728063 28.3281 0.00683594 28.2811C0.163624 28.1557 0.289055 28.0459 0.477202 27.9675C0.931888 27.6226 1.43361 27.3874 1.90398 27.0738C1.90398 27.0111 1.85694 26.9798 1.82558 26.9171C1.54336 26.823 1.21411 26.8387 0.916209 26.823C1.74719 26.6819 2.76631 26.7759 3.62865 26.7759C5.46307 26.7759 7.31318 26.7916 9.1476 26.823C9.90019 26.823 10.8566 26.9484 11.5778 26.7289C11.766 26.478 11.7973 26.1488 11.8287 25.8509C11.9384 24.7691 11.86 23.6088 11.86 22.5113C11.86 20.0497 11.8287 17.5881 11.86 15.1266L11.7189 14.9855C12.3461 14.2956 14.0394 13.3392 14.9174 13.0726L14.9488 13.104Z" fill="#E58D24"/>
<path d="M14.9485 13.1041L15.1993 13.2296C14.384 13.4961 12.6123 14.625 11.8911 15.1581L11.75 15.0169C12.3772 14.3271 14.0705 13.3707 14.9485 13.1041Z" fill="#F7BA57"/>
<path d="M15.0899 25.4905C15.1369 25.8041 15.2153 26.2588 15.0272 26.541L15.0742 26.5724C14.2119 27.2779 12.9889 27.5915 12.1893 28.25C11.4054 28.3127 10.6057 28.2814 9.82179 28.2814H5.35332C4.30284 28.2814 3.26804 28.2814 2.21755 28.2814C1.48065 28.2814 0.728063 28.3441 0.00683594 28.297C0.163624 28.1716 0.289055 28.0619 0.477202 27.9835C0.931888 27.6385 1.43361 27.4033 1.90398 27.0898C1.98237 27.1525 2.04509 27.1995 2.13916 27.2152C2.48409 27.2936 11.4838 27.325 11.7973 27.2466C12.6597 27.0427 14.2589 25.9609 15.0742 25.4749L15.0899 25.4905Z" fill="url(#paint0_linear_113_6892)"/>
<path d="M15.0272 26.5409L15.0742 26.5722C14.2119 27.2778 12.9889 27.5914 12.1893 28.2499C11.4054 28.3126 10.6057 28.2812 9.82179 28.2812H5.35332C4.30284 28.2812 3.26804 28.2812 2.21755 28.2812C1.48065 28.2812 0.728063 28.344 0.00683594 28.2969C0.163624 28.1715 0.289055 28.0617 0.477202 27.9833C1.22979 28.0304 1.99805 27.9833 2.73495 27.9833H7.18775L10.2451 27.999C10.8096 27.999 11.4367 28.0617 11.9855 27.952C12.7067 27.8109 14.2589 26.9015 15.0115 26.5409H15.0272Z" fill="#92C7A7"/>
<path d="M15.0886 26.5721C15.2454 26.6192 15.2611 26.6192 15.3709 26.7446C15.5433 27.4345 15.4179 29.2375 15.4179 30.0215C15.4179 32.0911 15.4179 34.145 15.4649 36.2146C15.4649 36.7007 15.6217 37.8296 15.2925 38.1902C14.7907 38.7232 12.8466 39.7267 12.1253 39.8835C11.1376 40.0873 9.88327 39.9619 8.84846 39.9619C6.82589 39.9619 4.819 40.0089 2.79643 39.9932C2.32607 39.9932 1.8557 39.9932 1.38534 39.9619C1.15015 39.8208 0.946328 39.6797 0.742503 39.5072C0.664109 39.3661 0.475963 39.2093 0.366211 39.0995C1.40101 38.9741 2.56125 39.0525 3.61173 39.0368L8.95822 38.9271C9.77352 38.9271 10.6359 38.9898 11.4512 38.88C11.6079 38.8644 11.7491 38.833 11.8588 38.7232C12.0626 38.5351 12.1567 38.3313 12.1881 38.0647C12.3448 37.0143 12.2194 35.6502 12.2037 34.5527C12.1724 32.4517 12.1724 30.3664 12.2037 28.2655C13.0034 27.6069 14.2263 27.2934 15.0886 26.5878V26.5721Z" fill="#017357"/>
<path d="M0.0377614 28.2968C0.774667 28.3439 1.51157 28.2968 2.24848 28.2811C3.29896 28.2811 4.33376 28.2655 5.38425 28.2811H9.85272C10.6367 28.2811 11.4363 28.3282 12.2202 28.2811C12.2045 30.3821 12.2202 32.4674 12.2202 34.5684C12.2202 35.6659 12.3613 37.0143 12.2045 38.0804C12.1575 38.347 12.0791 38.5508 11.8753 38.7389C11.7499 38.8487 11.6244 38.88 11.4676 38.8957C10.6523 38.9898 9.79 38.9271 8.9747 38.9428L3.62822 39.0525C2.57773 39.0525 1.4175 38.9898 0.382695 39.1152C0.241585 38.9741 0.131834 38.8016 0.0220822 38.6449C-0.0406332 35.2112 0.0534399 31.7775 0.0220822 28.3439L0.0377614 28.2968Z" fill="#1A8A6B"/>
<path d="M5.28973 29.5512C5.85417 29.5512 7.24958 29.3787 7.70427 29.6609C7.71995 29.6609 7.75131 29.6923 7.76698 29.708C7.78266 29.7237 7.81402 29.7393 7.8297 29.755C7.84538 29.7707 7.86106 29.7864 7.87674 29.8177C7.89241 29.8334 7.90809 29.8648 7.92377 29.8804C7.92377 29.8961 7.95513 29.9275 7.97081 29.9432C7.97081 29.9588 8.00217 29.9902 8.00217 30.0216C8.00217 30.0529 8.01785 30.0686 8.03352 30.1C8.03352 30.1313 8.03352 30.147 8.0492 30.1783C8.08056 30.3508 8.0492 30.5233 7.93945 30.6644C7.56316 31.1504 5.99527 30.9623 5.3838 31.0093C5.36812 31.4483 5.3838 31.8717 5.3838 32.3107C5.54059 32.3107 5.6817 32.295 5.83848 32.2793C6.60675 32.248 7.42205 32.4988 7.98649 33.0319C8.39414 33.4239 8.61364 33.9413 8.61364 34.5057C8.61364 35.2113 8.30006 35.9168 7.79834 36.4028C7.15551 37.0143 6.38725 37.1711 5.54059 37.1554C5.00751 37.077 4.42739 36.9516 4.00406 36.6067C3.83159 36.4656 3.69048 36.2774 3.6748 36.0422C3.6748 35.9168 3.69048 35.7443 3.78456 35.6503C4.12949 35.2897 5.50923 35.8071 6.05799 35.76C6.38725 35.7287 6.74786 35.6503 6.96736 35.368C7.2339 35.0074 7.18686 34.5684 7.13983 34.1608C7.0144 33.9883 6.88897 33.8315 6.70082 33.7218C5.77577 33.126 5.16429 33.7845 4.28628 33.9413C4.17653 33.9569 4.06678 33.9413 3.9727 33.8786C3.76888 33.7061 3.73752 33.3925 3.73752 33.1416C3.70616 32.5615 3.81592 31.9814 3.84727 31.4013C3.86295 31.0093 3.80023 30.6017 3.87863 30.2254C3.90999 30.0529 3.98838 29.8804 4.11381 29.755C4.38035 29.4885 4.96047 29.5669 5.30541 29.5512H5.28973Z" fill="#C5BA78"/>
<defs>
<linearGradient id="paint0_linear_113_6892" x1="14.0676" y1="21.3068" x2="8.40568" y2="29.3406" gradientUnits="userSpaceOnUse">
<stop stop-color="#007658"/>
<stop offset="1" stop-color="#009066"/>
</linearGradient>
</defs>
</svg>
