<svg width="55" height="50" viewBox="0 0 55 50" fill="none" xmlns="http://www.w3.org/2000/svg">
<path d="M25.3048 15.7273C26.5386 15.7273 27.5521 14.7128 27.5521 13.4777V8.73599L32.2011 7.63326V10.0813C31.8926 9.92693 31.5621 9.83871 31.2096 9.83871C29.9758 9.83871 28.9623 10.8532 28.9623 12.0883C28.9623 13.3233 29.9758 14.3378 31.2096 14.3378C32.4435 14.3378 33.457 13.3233 33.457 12.0883V3.86194C33.457 3.66345 33.3688 3.48701 33.2146 3.37674C33.0604 3.26647 32.8621 3.22236 32.6858 3.26647L26.781 4.67795C26.4946 4.74412 26.2963 4.98672 26.2963 5.29548V11.5149C25.9878 11.3605 25.6573 11.2723 25.3048 11.2723C24.0709 11.2723 23.0574 12.2868 23.0574 13.5218C23.0574 14.7569 24.0489 15.7714 25.2828 15.7714L25.3048 15.7273ZM24.3133 13.4777C24.3133 12.9263 24.754 12.4853 25.3048 12.4853C25.8556 12.4853 26.2963 12.9263 26.2963 13.4777C26.2963 14.0291 25.8556 14.4702 25.3048 14.4702C24.754 14.4702 24.3133 14.0291 24.3133 13.4777ZM32.2231 12.0662C32.2231 12.6176 31.7825 13.0587 31.2316 13.0587C30.6808 13.0587 30.2402 12.6176 30.2402 12.0662C30.2402 11.5149 30.6808 11.0738 31.2316 11.0738C31.7825 11.0738 32.2231 11.5149 32.2231 12.0662ZM27.5521 5.73657L32.2011 4.63385V6.33204L27.5521 7.43477V5.73657ZM50.7528 24.9461C49.2546 24.1962 47.536 24.0859 45.9497 24.6152C44.3633 25.1446 43.0633 26.2693 42.3142 27.769C41.5651 29.2687 41.4549 30.989 41.9837 32.5769C42.5125 34.1649 43.6362 35.4661 45.1344 36.2159C46.0158 36.657 46.9632 36.8776 47.9326 36.8776C50.3342 36.8776 52.4934 35.5322 53.5731 33.3929C55.1154 30.2833 53.8595 26.4899 50.7528 24.924V24.9461ZM52.1409 33.3929C51.6121 34.1869 50.863 34.8265 49.9817 35.2014C49.7614 34.2531 49.8275 33.3047 50.1359 32.3784L52.1409 33.3929ZM52.4273 28.2763C51.2376 28.7835 50.2461 29.6216 49.5851 30.7023L48.7919 30.3053L50.7528 26.3796C51.4799 26.8648 52.0528 27.5044 52.4273 28.2763ZM52.6917 32.2682L50.7088 31.2757C51.2376 30.4597 51.9867 29.8422 52.868 29.4672C53.0663 30.3935 53.0222 31.3639 52.6917 32.2682ZM46.853 29.3349C47.3157 28.1219 47.4038 26.8428 47.0954 25.5856C47.9547 25.4313 48.8139 25.5195 49.6292 25.8062L47.6682 29.7319L46.853 29.3349ZM46.3022 30.4597L47.0954 30.8567L45.1344 34.7824C44.4074 34.2972 43.8345 33.6576 43.4599 32.8857C44.6277 32.3784 45.6192 31.5404 46.3022 30.4597ZM45.8836 25.9606C46.1039 26.9089 46.0378 27.8573 45.7293 28.7835L43.7464 27.7911C44.2752 26.9971 45.0243 26.3575 45.9056 25.9606H45.8836ZM43.1735 28.8938L45.1565 29.8863C44.6277 30.7023 43.8786 31.3198 42.9972 31.6947C42.799 30.7685 42.843 29.7981 43.1735 28.8938ZM49.0122 31.8271C48.5495 33.0401 48.4614 34.3192 48.7699 35.5763C47.9326 35.7307 47.0513 35.6425 46.2581 35.3558L48.2191 31.4301L49.0122 31.8271ZM35.3959 32.7313C35.3959 31.0111 34.8671 29.2687 33.8976 27.7029L43.2616 18.3297L44.0989 19.1678C44.2091 19.278 44.3633 19.3442 44.5396 19.3442C44.7158 19.3442 44.87 19.278 44.9802 19.1678L46.2141 17.9327L47.3157 19.0354C47.4259 19.1457 47.5801 19.2119 47.7564 19.2119C47.9326 19.2119 48.0869 19.1457 48.197 19.0354C48.3072 18.9252 48.3733 18.7708 48.3733 18.5944C48.3733 18.4179 48.3072 18.2635 48.197 18.1533L47.0954 17.0505L47.9106 16.2125L49.0122 17.3152C49.1224 17.4255 49.2766 17.4916 49.4529 17.4916C49.6292 17.4916 49.7834 17.4255 49.8936 17.3152C50.0037 17.2049 50.0698 17.0505 50.0698 16.8741C50.0698 16.6977 50.0037 16.5433 49.8936 16.433L48.7919 15.3303L50.0258 14.0952C50.1359 13.985 50.202 13.8306 50.202 13.6541C50.202 13.4777 50.1359 13.3233 50.0258 13.2131L44.9361 8.11846C44.6938 7.87586 44.2972 7.87586 44.0548 8.11846L42.821 9.35351L41.7193 8.25079C41.477 8.00819 41.0804 8.00819 40.838 8.25079C40.7278 8.36106 40.6618 8.51544 40.6618 8.69188C40.6618 8.86831 40.7278 9.0227 40.838 9.13297L41.9397 10.2357L41.1024 11.0738L40.0008 9.97104C39.7584 9.72844 39.3618 9.72844 39.1194 9.97104C39.0093 10.0813 38.9432 10.2357 38.9432 10.4121C38.9432 10.5886 39.0093 10.7429 39.1194 10.8532L40.2211 11.9559L38.9872 13.191C38.8771 13.3013 38.811 13.4557 38.811 13.6321C38.811 13.8085 38.8771 13.9629 38.9872 14.0732L39.8245 14.9113L30.4605 24.2844C29.0945 23.4243 27.5742 22.917 26.0759 22.8068C20.5236 17.3372 15.0154 12.6396 10.9834 9.90488C11.0715 9.41968 11.0715 8.93448 11.0274 8.44928C10.8291 6.8393 9.68342 5.47192 8.09705 4.96466C3.93282 3.61934 2.63288 0.443486 2.63288 0.399377C2.54475 0.178832 2.34645 0.0244507 2.08206 0.00239616C1.81766 -0.0196584 1.59733 0.112668 1.48717 0.311159C1.4431 0.377323 0.517717 2.03141 0.143156 4.36919C-0.341568 7.50093 0.407552 10.346 2.34645 12.5955C2.34645 12.5955 2.34645 12.5955 2.36848 12.6176C3.49217 13.7203 5.01244 14.2496 6.57678 14.0732C8.97837 17.6681 13.0765 22.5642 17.8356 27.5485C14.9934 27.2838 12.3714 28.144 10.5647 29.9304C6.73101 33.7679 7.54623 40.8694 12.3935 45.7214C14.729 48.0592 17.6373 49.5369 20.5897 49.9118C21.0524 49.9559 21.5151 50 21.9558 50C24.4235 50 26.5827 49.1619 28.1691 47.5519C30.108 45.6111 30.9452 42.722 30.4605 39.6123C30.4825 39.6123 30.5266 39.6123 30.5707 39.5903C33.5671 42.1045 36.2331 44.0894 38.2822 45.3024C39.9567 46.3169 41.1905 46.8021 42.0498 46.8021C42.4905 46.8021 42.865 46.6698 43.1074 46.4051C43.9226 45.5891 43.504 44.0012 41.7854 41.2223C40.3533 38.9507 38.128 35.9954 35.3077 32.7093L35.3959 32.7313ZM29.2046 39.3477C29.7775 42.2589 29.1165 44.9495 27.3318 46.7139C25.7234 48.3239 23.41 49.0296 20.788 48.6988C18.1 48.368 15.4561 47.0226 13.3409 44.8834C8.97837 40.5166 8.16315 34.231 11.5122 30.8567C12.8562 29.5113 14.751 28.7835 16.8662 28.7835C17.395 28.7835 17.9458 28.8277 18.4966 28.9159C18.761 28.96 19.0474 28.8277 19.1576 28.5851C19.6423 27.6588 20.1491 26.7325 21.1185 25.7621C23.1676 23.711 26.6268 23.4905 29.5792 25.2107L25.5471 29.2467C24.093 28.9159 22.5507 29.3349 21.4931 30.3935C20.6779 31.2095 20.2152 32.2902 20.2152 33.4591C20.2152 34.628 20.6558 35.7087 21.4931 36.5247C22.3303 37.3407 23.3879 37.8038 24.5557 37.8038C25.7234 37.8038 26.803 37.3628 27.6182 36.5247C28.6097 35.5322 29.0504 34.1207 28.8301 32.7313L32.9723 28.5851C34.6908 31.5404 34.4925 35.0029 32.4214 37.054C31.5181 37.9582 30.7469 38.2229 29.9758 38.4655C29.8436 38.5096 29.7114 38.5537 29.5792 38.5978C29.2928 38.7081 29.1165 39.0168 29.1826 39.3256L29.2046 39.3477ZM7.89876 13.7865C8.51568 13.5218 9.11057 13.1469 9.57326 12.6837C10.0139 12.2427 10.3664 11.7575 10.6088 11.2061C12.6579 12.6176 15.1256 14.5584 17.7475 16.8521C17.439 17.1388 16.8221 17.7563 15.6323 18.9252C14.5307 20.0279 13.8697 20.6895 13.5392 21.0204C11.2257 18.3297 9.28683 15.8596 7.87672 13.8085L7.89876 13.7865ZM24.3574 22.8729C22.749 23.0935 21.3168 23.7992 20.2372 24.8578C19.6864 25.4092 19.2017 26.0047 18.783 26.6884C17.2187 25.0563 15.7425 23.4243 14.3544 21.8584C14.6849 21.5497 15.3459 20.888 16.5136 19.7191C17.7255 18.4841 18.3424 17.8666 18.6288 17.5357C20.5016 19.1898 22.4405 20.9762 24.3574 22.8729ZM26.7369 35.6646C25.5251 36.8776 23.5862 36.8776 22.3744 35.6646C21.1626 34.4516 21.1626 32.5108 22.3744 31.2978C22.9473 30.7243 23.7404 30.3935 24.5557 30.3935C25.3709 30.3935 26.1641 30.7023 26.7369 31.2978C27.9267 32.4887 27.9267 34.4516 26.7369 35.6646ZM26.803 29.776L40.7499 15.8155L42.3803 17.4475L28.3894 31.4521C28.1911 31.0772 27.9267 30.7243 27.6182 30.4156C27.3759 30.173 27.0895 29.9524 26.803 29.776ZM42.2922 45.5229C42.2922 45.5229 41.5871 45.7876 38.9872 44.2438C37.0924 43.119 34.6688 41.3105 31.9147 39.0389C32.4214 38.7743 32.8621 38.4214 33.3027 37.9582C34.2502 37.0099 34.8891 35.7969 35.1976 34.4295C37.6212 37.2966 39.5381 39.877 40.7719 41.8839C42.3583 44.4423 42.3803 45.3906 42.2922 45.5229ZM40.3313 13.6321L44.5175 9.44173L48.7038 13.6321L44.5175 17.8224L40.3313 13.6321ZM8.71397 11.7575C7.98689 12.4853 7.03947 12.8822 6.00392 12.8822C4.96837 12.8822 4.04299 12.4853 3.3159 11.7795C1.61936 9.7946 0.980408 7.39066 1.42107 4.61179C1.5753 3.57523 1.86173 2.69305 2.10409 2.05347C2.89728 3.24441 4.57178 5.16315 7.74452 6.17766C8.8682 6.53054 9.68342 7.50093 9.81562 8.62571C9.94782 9.7946 9.55123 10.9414 8.73601 11.7575H8.71397ZM14.9493 36.3262C14.8391 36.2159 14.6849 36.1498 14.5086 36.1498C14.3324 36.1498 14.1781 36.2159 14.068 36.3262L12.3494 38.0464C12.2392 38.1567 12.1731 38.3111 12.1731 38.4875C12.1731 38.664 12.2392 38.8184 12.3494 38.9286L19.2678 45.8538C19.3779 45.964 19.5322 46.0302 19.7084 46.0302C19.8847 46.0302 20.0389 45.964 20.1491 45.8538L21.8676 44.1335C21.9778 44.0232 22.0439 43.8688 22.0439 43.6924C22.0439 43.516 21.9778 43.3616 21.8676 43.2513L14.9493 36.3262ZM20.5457 43.6924L19.7084 44.5084L13.6714 38.4655L14.5086 37.6274L20.5457 43.6703V43.6924Z" fill="#153860"/>
</svg>
