<svg width="53" height="50" viewBox="0 0 53 50" fill="none" xmlns="http://www.w3.org/2000/svg">
<path d="M48.5856 24.3503H17.5451C17.0828 24.3503 16.6865 24.725 16.6865 25.2097C16.6865 25.6945 17.0608 26.0692 17.5451 26.0692H48.5856C49.0479 26.0692 49.4441 25.6945 49.4441 25.2097C49.4441 24.725 49.0699 24.3503 48.5856 24.3503Z" fill="#153860"/>
<path d="M1.76091 30.1233H50.6112C51.0735 30.1233 51.4697 29.7487 51.4697 29.2639V2.77655C51.4697 1.25606 50.2149 0 48.6959 0H3.67617C2.15717 0 0.902344 1.25606 0.902344 2.77655V29.2639C0.902344 29.7267 1.27659 30.1233 1.76091 30.1233ZM2.59746 2.77655C2.59746 2.18157 3.08178 1.71881 3.65416 1.71881H48.6739C49.2683 1.71881 49.7306 2.20361 49.7306 2.77655V28.4045H2.59746V2.77655Z" fill="#153860"/>
<path d="M13.6931 21.353H6.86859C6.40628 21.353 6.01002 21.7276 6.01002 22.2124V24.2618C6.01002 24.2618 6.01002 24.3279 6.01002 24.3499H3.65447C3.19216 24.3499 2.7959 24.7245 2.7959 25.2093C2.7959 25.6941 3.17015 26.0687 3.65447 26.0687H12.7465C13.7371 26.0687 14.5296 25.2534 14.5296 24.2838V22.2345C14.5296 21.7717 14.1554 21.3751 13.6711 21.3751L13.6931 21.353ZM12.8345 24.2618C12.8345 24.2618 12.7905 24.3499 12.7465 24.3499H7.7932C7.7932 24.3499 7.70514 24.3059 7.70514 24.2618V23.0718H12.8345V24.2618Z" fill="#153860"/>
<path d="M24.9425 31.5999H9.04797C8.80581 31.5999 8.56365 31.71 8.40955 31.8863L5.21744 35.5223C5.08536 35.6765 4.9973 35.8749 4.9973 36.0952V37.3733C4.9973 37.8361 5.37155 38.2327 5.85587 38.2327H8.73977L8.43156 39.5108H4.68909C4.42492 39.5108 4.18276 39.621 4.02866 39.8413L0.176116 44.7554C0.0660434 44.9096 0 45.0859 0 45.2843V46.7827C0 47.2455 0.374248 47.6421 0.858567 47.6421H5.19543L4.88723 48.9422C4.77715 49.405 5.06334 49.8678 5.52565 49.9779C5.59169 49.9779 5.65773 50 5.72378 50C6.12004 50 6.45026 49.7355 6.56033 49.3389L7.59501 44.9978C7.79314 44.2045 8.47559 43.6316 9.2461 43.6316H16.8631C17.6336 43.6316 18.3161 44.1825 18.5142 44.9978L18.9545 46.8047C18.9545 46.937 18.9765 47.0692 19.0426 47.1794L19.5709 49.3389C19.659 49.7135 20.0112 50 20.4075 50C20.4735 50 20.5396 50 20.6056 49.9779C21.0679 49.8678 21.3541 49.405 21.244 48.9422L20.9358 47.6421H25.0085C25.4708 47.6421 25.8671 47.2675 25.8671 46.7827V40.3923C25.8671 39.9295 25.4928 39.5328 25.0085 39.5328H22.4328L22.1246 38.2548H25.0085C25.4708 38.2548 25.8671 37.8801 25.8671 37.3953V32.4813C25.8671 32.0185 25.4928 31.6219 25.0085 31.6219L24.9425 31.5999ZM1.69512 45.5707L5.10737 41.2296H24.1059V45.9233H20.4735L20.1433 44.5791C19.769 43.0145 18.4041 41.9127 16.8191 41.9127H9.20207C7.63904 41.9127 6.27414 43.0145 5.87788 44.5791L5.54766 45.9233H1.65109V45.5707H1.69512ZM10.611 37.792C10.677 37.6598 10.7211 37.5276 10.7211 37.3733C10.7211 37.3733 10.7211 37.3733 10.7211 37.3513L10.7651 37.2191C10.9192 36.558 11.4696 36.1172 12.108 36.1172H18.7564C19.3948 36.1172 19.9452 36.58 20.0993 37.2191L20.6496 39.5328H10.2147L10.633 37.814L10.611 37.792ZM18.7344 34.3764H12.086C10.7651 34.3764 9.59833 35.2358 9.18006 36.5139H6.71443V36.4037L9.44423 33.2966H24.1059V36.4919H21.6403C21.2 35.2138 20.0552 34.3544 18.7344 34.3544V34.3764ZM5.6137 49.7576C5.6137 49.7576 5.61371 49.7576 5.63572 49.7576C5.63572 49.7576 5.63572 49.7576 5.6137 49.7576ZM19.2187 47.0692C19.2187 47.0692 19.1967 47.0251 19.1747 47.0031C19.1747 47.0251 19.1747 47.0471 19.2187 47.0692Z" fill="#153860"/>
<path d="M52.1747 44.7559L48.3222 39.8418C48.1681 39.6435 47.9039 39.5113 47.6617 39.5113H43.9193L43.6111 38.2332H46.495C46.9573 38.2332 47.3535 37.8586 47.3535 37.3738V36.0957C47.3535 35.8974 47.2875 35.677 47.1334 35.5228L43.9413 31.8868C43.7872 31.7105 43.545 31.6003 43.3029 31.6003H27.4084C26.9461 31.6003 26.5498 31.975 26.5498 32.4597V37.3738C26.5498 37.8366 26.9241 38.2332 27.4084 38.2332H30.2923L29.9841 39.5113H27.4084C26.9461 39.5113 26.5498 39.8859 26.5498 40.3707V46.7612C26.5498 47.2239 26.9241 47.6206 27.4084 47.6206H31.4811L31.1729 48.9207C31.0628 49.3835 31.349 49.8462 31.8113 49.9564C31.8773 49.9564 31.9434 49.9784 32.0094 49.9784C32.4057 49.9784 32.7359 49.714 32.846 49.3174L33.8806 44.9762C34.0788 44.1829 34.7612 43.61 35.5317 43.61H43.1488C43.9193 43.61 44.6017 44.1609 44.7998 44.9762L45.8345 49.3174C45.9226 49.692 46.2748 49.9784 46.6711 49.9784C46.7371 49.9784 46.8032 49.9784 46.8692 49.9564C47.3315 49.8462 47.6177 49.3835 47.5076 48.9207L47.1994 47.6206H51.5363C51.9986 47.6206 52.3949 47.246 52.3949 46.7612V45.2627C52.3949 45.0644 52.3288 44.8881 52.2188 44.7338L52.1747 44.7559ZM32.2956 37.1975C32.4497 36.5364 33.0001 36.0957 33.6385 36.0957H40.2869C40.9253 36.0957 41.4757 36.5585 41.6298 37.1975L42.1801 39.5113H31.7452L32.2956 37.1975ZM40.2649 34.3769H33.6165C32.2956 34.3769 31.1288 35.2363 30.7105 36.5144H28.2449V33.3192H42.9066L45.6364 36.4262V36.5364H43.1708C42.7305 35.2583 41.5857 34.3989 40.2649 34.3989V34.3769ZM50.6557 45.5712V45.9238H46.7591L46.4289 44.5796C46.0547 43.015 44.6898 41.9132 43.1047 41.9132H35.4877C33.9247 41.9132 32.5598 43.015 32.1635 44.5796L31.8333 45.9238H28.2009V41.2301H47.1994L50.6117 45.5712H50.6557ZM31.9214 49.7581C31.9214 49.7581 31.9214 49.7581 31.9434 49.7581C31.9434 49.7581 31.9434 49.7581 31.9214 49.7581Z" fill="#153860"/>
</svg>
