<svg width="58" height="50" viewBox="0 0 58 50" fill="none" xmlns="http://www.w3.org/2000/svg">
<path d="M25.9446 0H2.88518C1.29943 0 0 1.30071 0 2.88801V47.112C0 48.6993 1.29943 50 2.88518 50H25.9446C27.5304 50 28.8298 48.6993 28.8298 47.112V2.88801C28.8298 1.30071 27.5304 0 25.9446 0ZM26.9137 47.112C26.9137 47.6411 26.4732 48.082 25.9446 48.082H2.88518C2.3566 48.082 1.91611 47.6411 1.91611 47.112V2.88801C1.91611 2.35891 2.3566 1.91799 2.88518 1.91799H25.9446C26.4732 1.91799 26.9137 2.35891 26.9137 2.88801V47.112Z" fill="#153860"/>
<path d="M22.6187 3.8584H6.29865C4.97719 3.8584 3.898 4.89455 3.87598 6.19526C3.87598 6.19526 3.87598 6.2173 3.87598 6.23935V16.8214C3.87598 18.1441 4.91112 19.2244 6.21055 19.2464C6.21055 19.2464 6.23258 19.2464 6.2546 19.2464H22.5746C23.8961 19.2464 24.9753 18.2102 24.9973 16.9095C24.9973 16.9095 24.9973 16.8875 24.9973 16.8655V6.28344C24.9973 4.96069 23.9621 3.88044 22.6627 3.8584C22.6627 3.8584 22.6407 3.8584 22.6187 3.8584ZM23.0591 16.8434C23.0591 17.0859 22.8609 17.3064 22.5966 17.3064H6.27662C6.01233 17.3064 5.79209 17.13 5.77006 16.8655V6.28344C5.77006 6.01889 5.94626 5.79843 6.21055 5.77639H22.5306C22.7728 5.77639 22.9931 5.9748 22.9931 6.23935L23.0371 16.8434H23.0591Z" fill="#153860"/>
<path d="M17.3117 10.5819H15.3956V8.66387C15.3956 8.13477 14.9551 7.69385 14.4265 7.69385C13.8979 7.69385 13.4574 8.13477 13.4574 8.66387V10.5819H11.5413C11.0128 10.5819 10.5723 11.0228 10.5723 11.5519C10.5723 12.081 11.0128 12.5219 11.5413 12.5219H13.4574V14.4399C13.4574 14.969 13.8979 15.4099 14.4265 15.4099C14.9551 15.4099 15.3956 14.969 15.3956 14.4399V12.5219H17.3117C17.8403 12.5219 18.2808 12.081 18.2808 11.5519C18.2808 11.0228 17.8403 10.5819 17.3117 10.5819Z" fill="#153860"/>
<path d="M22.1122 22.1123C20.5264 22.1123 19.249 23.4351 19.249 25.0224C19.249 26.2349 20.0199 27.2931 21.1431 27.712V30.7763C21.1431 31.3054 21.5836 31.7463 22.1122 31.7463C22.6408 31.7463 23.0813 31.3054 23.0813 30.7763V27.712C24.5789 27.1608 25.3498 25.5074 24.7991 24.0082C24.3807 22.8839 23.3235 22.1123 22.1122 22.1123ZM22.1122 25.9703C21.5836 25.9703 21.1431 25.5294 21.1431 25.0003C21.1431 24.4712 21.5836 24.0303 22.1122 24.0303C22.6408 24.0303 23.0813 24.4712 23.0813 25.0003C23.0813 25.5294 22.6408 25.9703 22.1122 25.9703Z" fill="#153860"/>
<path d="M56.6912 30.0265V21.2302C56.6912 20.1279 55.8102 19.2461 54.709 19.2461H51.9559C50.8547 19.2461 49.9737 20.1279 49.9737 21.2302V29.8061H44.2034V28.836H46.9344C48.0796 28.836 49.0047 27.9101 49.0047 26.7637V23.2364C49.0047 22.09 48.0796 21.1641 46.9344 21.1641H39.5563C38.411 21.1641 37.486 22.09 37.486 23.2364V26.7637C37.486 27.9101 38.411 28.836 39.5563 28.836H42.2873V29.8061H36.1645L34.6008 21.9136C34.4907 21.3845 33.9841 21.0318 33.4555 21.142C32.9269 21.2523 32.5745 21.7593 32.6847 22.2884L34.2043 29.784H32.5746C31.5835 29.784 30.7686 30.5997 30.7686 31.5918V45.2823C30.7686 46.2743 31.5835 47.09 32.5746 47.09H33.6537V49.008C33.6537 49.5371 34.0942 49.978 34.6228 49.978C35.1514 49.978 35.5919 49.5371 35.5919 49.008V47.09H37.508V49.008C37.508 49.5371 37.9485 49.978 38.4771 49.978C39.0056 49.978 39.4461 49.5371 39.4461 49.008V47.09H45.2165V49.008C45.2165 49.5371 45.657 49.978 46.1856 49.978C46.7141 49.978 47.1546 49.5371 47.1546 49.008V47.09H52.925V49.008C52.925 49.5371 53.3655 49.978 53.8941 49.978C54.4226 49.978 54.8631 49.5371 54.8631 49.008V47.09H55.9423C56.9334 47.09 57.7483 46.2743 57.7483 45.2823V31.5918C57.7483 30.9304 57.3739 30.3131 56.7792 30.0045L56.6912 30.0265ZM39.4021 26.7637V23.2364C39.4021 23.2364 39.4682 23.0821 39.5563 23.0821H46.9344C46.9344 23.0821 47.0886 23.1482 47.0886 23.2364V26.7637C47.0886 26.7637 47.0225 26.9181 46.9344 26.9181H39.5563C39.5563 26.9181 39.4021 26.8519 39.4021 26.7637ZM51.8899 21.2302C51.8899 21.2302 51.9119 21.1641 51.9559 21.1641H54.709C54.709 21.1641 54.775 21.1861 54.775 21.2302V29.8061H51.8899V21.2302ZM32.6847 31.724H34.6008L35.2835 35.1191C35.5478 36.508 36.7592 37.5001 38.1687 37.5001H41.3182V42.3942C39.6664 42.5706 38.2568 43.6509 37.6401 45.1941H32.6626V31.724H32.6847ZM42.2873 44.224C43.2123 44.202 44.0933 44.5327 44.754 45.1941H39.8205C40.4813 44.5547 41.3622 44.202 42.2873 44.224ZM55.7221 45.1941H46.9124C46.2957 43.6509 44.8861 42.5706 43.2343 42.3942V37.5001H48.0356C48.5642 37.5001 49.0047 37.0591 49.0047 36.53C49.0047 36.0009 48.5642 35.56 48.0356 35.56H38.1467C37.6622 35.56 37.2437 35.2073 37.1336 34.7223L36.5169 31.724H55.7221V45.1941Z" fill="#153860"/>
</svg>
