<svg width="29" height="40" viewBox="0 0 29 40" fill="none" xmlns="http://www.w3.org/2000/svg">
<path d="M27.9801 33.1117C28.325 33.2058 28.7013 33.2842 28.6856 33.5507C28.6699 33.7702 28.4034 34.3346 28.1212 34.46C27.7136 34.6325 27.2746 34.1778 26.8827 34.2876C26.4907 34.413 26.3966 35.2439 25.895 35.2753C25.3933 35.3066 25.2522 34.7265 24.7975 34.8676C24.3585 35.0087 24.3272 35.7142 23.8411 35.7142C23.3081 35.7142 22.681 35.9651 22.1479 36.0278C21.6306 36.0905 21.0348 37.0782 20.5488 37.2036C19.9844 37.3447 19.5768 37.8464 19.0124 37.9562C18.8085 37.9092 18.6361 37.8464 18.5263 37.8308C18.3069 37.7837 18.1344 37.6426 17.9306 37.5642C17.7895 37.5015 17.6013 37.5172 17.4602 37.4388C17.178 37.2977 16.8958 36.7333 16.7704 36.4354C16.5823 35.9965 16.5823 35.432 16.5352 34.9617C16.4725 35.1342 16.4569 35.3066 16.4569 35.4948H15.9552C15.9395 35.2439 15.9081 34.9774 15.9081 34.7893C15.9081 34.2405 15.767 32.9079 16.3628 32.6257C16.4569 32.9079 16.6607 33.1274 16.8018 33.3939C16.9272 33.6448 16.9115 33.8643 16.9272 34.1621C16.9272 34.5384 17.0997 34.7109 17.2564 35.0244C17.4132 35.338 17.3662 35.6829 17.5543 35.9808C17.7895 36.3257 18.1344 36.4668 18.5263 36.5609C18.7458 36.6079 19.0594 36.7647 19.2946 36.749C19.5768 36.749 19.5768 36.5609 19.7963 36.4198C20.0471 36.263 20.3293 36.3727 20.5645 36.2159C21.0034 35.9337 21.1759 35.2282 21.6462 35.1498C21.7873 35.1185 22.1636 35.2282 22.289 35.1498C22.4145 35.0558 22.3204 34.8676 22.3831 34.7109C22.4301 34.5698 22.728 34.1778 22.8534 34.1151C23.167 33.974 23.4962 34.3816 23.8098 34.3032C24.1547 34.2248 24.0763 33.9113 23.9195 33.6918C23.7471 33.4566 23.4178 33.1901 23.1827 33.002C22.8848 32.7825 22.2734 32.6727 22.3831 32.171C22.7594 32.171 23.0416 32.5003 23.3708 32.6571C23.6687 32.7982 23.9666 32.9393 24.2645 33.0804C24.578 33.2215 24.8602 33.4723 25.1581 33.5821C25.3462 33.6604 26.0831 33.7702 26.2242 33.6448C26.428 33.4723 26.2242 32.9706 26.0988 32.7982C25.8636 32.516 25.4717 32.4376 25.1267 32.3121C24.625 32.1397 24.2331 31.9045 23.8568 31.6223C24.092 31.7164 24.2488 31.8575 24.4996 31.9672C25.0013 32.1867 25.7225 32.1867 26.2399 32.4062C26.5221 32.516 26.7102 32.7354 26.9924 32.8452C27.1649 32.9236 27.3844 32.9549 27.5882 33.002C27.7136 33.0333 27.839 33.049 27.9488 33.0804L27.9801 33.1117Z" fill="#753B19"/>
<path d="M22.9312 31.2461C23.1507 31.4655 23.3075 31.4969 23.6838 31.6066C23.7622 31.6223 23.8249 31.6537 23.8876 31.685C24.2639 31.9516 24.6401 32.2024 25.1575 32.3749C25.5024 32.4846 25.8944 32.563 26.1295 32.8609C26.2706 33.0333 26.4588 33.535 26.255 33.7075C26.1139 33.8172 25.377 33.7075 25.1889 33.6448C24.891 33.5194 24.5931 33.2842 24.2952 33.1431C23.9973 33.002 23.6995 32.8609 23.4016 32.7198C23.0723 32.563 22.7901 32.2338 22.4139 32.2338C22.3041 32.7355 22.9156 32.8452 23.2134 33.0647C23.4486 33.2371 23.7622 33.5194 23.9503 33.7545C24.1071 33.974 24.1855 34.2876 23.8406 34.366C23.527 34.4287 23.1978 34.021 22.8842 34.1778C22.7431 34.2405 22.4609 34.6168 22.4139 34.7736C22.3668 34.9147 22.4452 35.1185 22.3198 35.2126C22.2101 35.291 21.8338 35.1812 21.677 35.2126C21.191 35.291 21.0342 35.9965 20.5952 36.2787C20.3601 36.4354 20.0779 36.3257 19.827 36.4825C19.6075 36.6236 19.6075 36.796 19.3253 36.8117C19.1058 36.8117 18.7923 36.6706 18.5571 36.6236C18.1808 36.5452 17.8202 36.3884 17.5851 36.0435C17.3969 35.7456 17.444 35.385 17.2872 35.0871C17.1304 34.7736 16.9736 34.6011 16.958 34.2249C16.958 33.9427 16.958 33.7075 16.8325 33.4566C16.6914 33.1901 16.4876 32.9706 16.3936 32.6884L16.4563 31.9359C16.7855 31.9672 17.1304 31.9516 17.4283 31.8888C19.0118 31.6066 20.5482 30.5406 21.1596 29.8821C21.0342 30.0545 22.8842 31.2304 22.9626 31.3088L22.9312 31.2461ZM19.4194 33.0647C19.4978 33.2371 19.2783 33.5664 20.1719 33.9427C20.3914 34.0367 20.5952 34.0838 20.8304 34.1465C21.0499 34.1935 21.8651 34.413 21.7711 33.9583C20.9715 33.927 20.2033 33.2371 19.4351 33.0647H19.4194ZM19.0745 35.1812C19.4194 35.338 20.4385 35.4948 19.8113 34.9147C19.4507 34.5854 18.8863 34.3503 18.463 34.1308C18.2592 34.021 18.0868 33.9427 17.9143 33.7859C17.7732 33.6448 17.7105 33.4566 17.5067 33.441C17.444 33.7232 17.6478 33.6134 17.7262 33.8643C17.9613 34.3816 18.5258 34.946 19.0588 35.1969L19.0745 35.1812Z" fill="#84451E"/>
<path d="M21.756 33.9585C21.85 34.3974 21.0505 34.1936 20.8153 34.1466C20.5801 34.0996 20.3763 34.0369 20.1568 33.9428C19.2632 33.5665 19.4827 33.2373 19.4043 33.0648C20.1725 33.2373 20.9407 33.9114 21.7403 33.9585H21.756Z" fill="#753B19"/>
<path d="M19.8115 34.9148C20.4386 35.4949 19.4195 35.3381 19.0746 35.1813C18.5416 34.9305 17.9615 34.3661 17.742 33.8487C17.6636 33.5979 17.4441 33.7076 17.5225 33.4254C17.7263 33.4411 17.789 33.6449 17.9301 33.7703C18.1026 33.9428 18.2751 34.0055 18.4789 34.1152C18.9022 34.3347 19.4666 34.5856 19.8272 34.8991L19.8115 34.9148Z" fill="#753B19"/>
<path d="M20.1567 28.3299C20.0626 28.4553 18.6673 30.1328 16.394 30.7129C16.1745 30.7756 15.9707 30.8227 15.8139 30.8854C14.5283 31.3557 15.375 31.7947 16.4097 31.8731L16.347 32.6256C15.7512 32.9078 15.8923 34.2404 15.8923 34.7892C15.8923 34.9773 15.9237 35.2438 15.9394 35.5103C15.9707 35.9807 15.9394 36.4981 15.6258 36.7019C15.0927 37.0468 14.7165 36.1688 14.7008 35.7455C14.7008 35.4476 14.7165 35.1498 14.7008 34.8676C14.6851 34.554 14.5754 34.2561 14.5283 33.9426C14.2461 34.1464 14.1364 34.6167 14.011 34.9303C13.8699 35.2752 13.6347 35.5887 13.4936 35.918C13.3839 36.2002 13.3839 36.5137 13.2428 36.7803C13.0703 37.0938 12.8508 37.3133 12.5686 37.5014C12.2394 37.7209 11.8004 37.8934 11.3928 37.9091C11.283 37.7993 11.1733 37.6896 11.0792 37.5798L11.0479 37.0938C11.6436 37.0625 11.722 35.918 12.2551 35.7455C12.6627 35.6201 12.7411 35.6514 12.9135 35.2125C13.0233 34.9303 13.0233 34.6324 13.1173 34.3502C13.2271 33.9896 13.2898 33.7544 13.2898 33.3468C13.2898 33.0176 13.3682 32.8294 13.4309 32.5472C13.4622 32.4061 13.5406 31.8731 13.3839 31.7947C13.3682 31.7947 13.3368 31.779 13.3211 31.779L13.3995 30.9794C13.6347 31.0108 13.7288 30.9324 13.9012 30.854C14.2148 30.6972 14.1834 30.6972 14.5127 30.7913C14.7008 30.8383 14.8889 30.901 15.1241 30.7129C15.2182 30.6345 15.2966 30.4777 15.3593 30.3366C15.7199 30.368 16.0961 30.368 16.441 30.3053C18.0245 30.0231 19.5766 28.957 20.1724 28.2828L20.1567 28.3299Z" fill="#84451E"/>
<path d="M19.0281 37.9561C19.0281 37.9561 18.934 37.9718 18.887 37.9718C18.3226 38.0189 17.5857 37.7053 17.0213 37.7523C16.8959 37.7523 16.7705 37.815 16.6607 37.8934C16.7705 37.5172 16.8018 37.1409 16.6921 36.6706C16.6137 36.31 16.4883 35.9023 16.4883 35.4947C16.4883 35.3066 16.504 35.1341 16.5667 34.9617C16.6137 35.432 16.6137 35.9964 16.8018 36.4354C16.9273 36.7333 17.2095 37.282 17.4917 37.4388C17.6328 37.5172 17.8209 37.5015 17.962 37.5642C18.1658 37.6426 18.3383 37.7837 18.5578 37.8307C18.6675 37.8621 18.84 37.9091 19.0438 37.9561H19.0281Z" fill="#632D12"/>
<path d="M18.6989 26.4644C18.9184 26.5742 19.1535 26.6682 19.373 26.7623C19.2006 26.9504 18.9184 27.264 18.5107 27.5932C18.5107 27.5775 18.5421 27.5619 18.5421 27.5305C18.6205 27.4051 18.6362 27.2169 18.6518 27.0758C18.6832 26.9661 18.7146 26.6682 18.6832 26.4487L18.6989 26.4644Z" fill="#944F22"/>
<path d="M14.842 25.9156C14.5754 25.8529 14.2149 25.8686 13.964 25.9313C13.8543 25.9626 13.7132 25.994 13.6348 26.0724C13.5564 26.1508 13.5721 26.2605 13.525 26.3546C13.431 26.5584 13.1174 26.5584 13.039 26.7935C13.0077 26.8719 12.9763 27.0444 13.0077 27.1385C13.0547 27.2482 13.1174 27.2325 13.2271 27.2169C13.3996 27.1855 13.6504 27.0444 13.8229 27.1385C13.964 27.2012 13.9954 27.3893 14.1208 27.4834C14.3246 27.6402 14.4814 27.5618 14.7009 27.4834C15.0301 27.3893 15.2339 27.7499 15.5318 27.8283C15.7199 27.8753 15.9708 27.9224 16.1119 27.7499C16.253 27.5774 16.2843 27.358 16.5509 27.3266C16.8017 27.2952 17.0839 27.358 17.2564 27.1228C17.3975 26.919 17.3661 26.7622 17.1937 26.5897C17.0526 26.4643 16.9585 26.3389 16.8487 26.1978C16.7704 26.088 16.6449 25.994 16.5038 25.9626C16.347 25.9469 16.2059 26.0097 16.0648 26.0097C15.8767 26.0097 15.7043 26.0253 15.5318 26.0097C15.2966 25.9626 15.0771 25.9783 14.842 25.9156ZM19.3729 26.7622C19.4042 26.9817 21.0661 29.3961 21.0975 29.8821C21.0347 30.0075 20.4703 31.4029 15.7983 32.2965C15.5788 32.4846 14.6852 30.8698 14.5127 30.8228C14.1835 30.7444 14.1992 30.7444 13.9013 30.8855C13.7288 30.9795 13.6348 31.0423 13.3996 31.0109C13.3996 30.713 13.3526 30.2897 12.9606 30.5406C12.4432 29.9135 12.9606 29.6469 13.2271 29.0512C13.3526 28.8003 13.4153 28.2986 13.0547 28.2516C12.9136 28.2359 12.8352 28.377 12.6941 28.377C12.5844 28.377 12.4746 28.2986 12.3649 28.2829C12.1924 28.5808 12.0827 28.9571 11.7221 29.0668C11.2988 29.2079 11.0322 28.8474 11.1263 28.4554C11.2361 27.9537 11.8788 27.6558 11.9572 27.1698C11.9886 26.9817 11.8788 26.8249 11.8945 26.6054C11.8945 26.48 11.9416 26.3546 11.9572 26.2448C12.0199 26.1978 12.0827 26.1508 12.1454 26.1037C12.4589 25.8686 12.8038 25.7275 13.1488 25.6491C14.1521 25.3982 15.2339 25.602 16.2687 25.6491C17.1466 25.6961 18.589 26.3702 19.3729 26.7308V26.7622Z" fill="#944F22"/>
<path d="M17.1941 26.6054C17.3666 26.7622 17.3822 26.9347 17.2568 27.1385C17.0844 27.3736 16.8022 27.3109 16.5513 27.3423C16.2848 27.3893 16.2534 27.5931 16.1123 27.7656C15.9712 27.9381 15.7204 27.891 15.5322 27.844C15.2187 27.7656 15.0306 27.4207 14.7013 27.4991C14.4818 27.5618 14.325 27.6402 14.1212 27.4991C13.9958 27.405 13.9645 27.2169 13.8234 27.1542C13.6509 27.0758 13.4001 27.2012 13.2276 27.2325C13.1178 27.2482 13.0551 27.2796 13.0081 27.1542C12.9767 27.0758 13.0081 26.8876 13.0395 26.8092C13.1335 26.5584 13.4314 26.5584 13.5255 26.3703C13.5725 26.2762 13.5568 26.1664 13.6352 26.0881C13.7136 26.0097 13.8547 25.9626 13.9645 25.947C14.2153 25.8842 14.5759 25.8686 14.8424 25.9313C15.0619 25.994 15.2971 25.9783 15.5322 26.0253C15.7204 26.0567 15.8928 26.0567 16.0653 26.0253C16.2064 26.0253 16.3475 25.9626 16.5043 25.9783C16.6454 25.994 16.7551 26.1037 16.8492 26.2135C16.9589 26.3546 17.053 26.48 17.1941 26.6054Z" fill="#84451E"/>
<path d="M16.676 36.6706C16.7858 37.1409 16.7701 37.5172 16.6447 37.8935C16.2214 38.16 15.8294 38.7244 15.4061 38.646C14.779 38.5206 14.246 37.674 13.6188 37.6583C12.9447 37.627 12.443 38.3168 11.7845 38.207C11.6591 38.1914 11.5337 38.0816 11.3926 37.9405C11.8159 37.9405 12.2549 37.7524 12.5684 37.5329C12.8506 37.3447 13.0858 37.1253 13.2426 36.8117C13.3837 36.5452 13.3837 36.2159 13.4934 35.9494C13.6188 35.6045 13.854 35.3066 14.0108 34.9617C14.1362 34.6482 14.246 34.1621 14.5282 33.974C14.5752 34.2876 14.6849 34.5698 14.7006 34.899C14.7163 35.1969 14.7006 35.4791 14.7006 35.777C14.7163 36.2003 15.0926 37.0782 15.6256 36.7333C15.9548 36.5295 15.9705 36.0121 15.9392 35.5418H16.4409C16.4409 35.9181 16.5663 36.3414 16.6447 36.702L16.676 36.6706Z" fill="#753B19"/>
<path d="M16.5342 16.1013C16.5342 16.1013 16.4558 16.258 16.4087 16.3364L16.252 15.9758C16.252 15.9758 16.3617 16.0229 16.5342 16.1169V16.1013Z" fill="#6B883A"/>
<path d="M12.4582 33.2999C12.5209 33.0177 12.5209 32.6885 12.7091 32.6257C12.7091 32.6101 12.7091 32.5787 12.7091 32.563C12.8031 32.4063 13.0853 31.8262 13.3048 31.8262C13.3205 31.8262 13.3519 31.8262 13.3675 31.8419C13.5243 31.9202 13.4459 32.469 13.4146 32.5944C13.3519 32.8766 13.2735 33.0647 13.2735 33.394C13.2735 33.7859 13.2108 34.0368 13.101 34.3973C13.0226 34.6795 13.0226 34.9774 12.8972 35.2596C12.7248 35.6829 12.6464 35.6673 12.2387 35.7927C11.7214 35.9651 11.643 37.1096 11.0315 37.141C10.9845 37.141 10.9218 37.141 10.8748 37.1253C10.8591 36.7334 10.8904 36.4512 11.0315 36.1062C11.1726 35.73 11.0786 35.3223 11.2354 34.9461C11.3608 34.6168 11.643 34.3503 11.8154 34.0524C11.9565 33.8016 12.176 33.4723 12.4426 33.3312L12.4582 33.2999Z" fill="#944F22"/>
<path d="M10.7186 27.844C10.8127 27.7343 10.8754 27.6245 10.9067 27.5775C11.2046 27.0131 11.4868 26.6525 11.9571 26.2762C11.9258 26.4017 11.8944 26.5114 11.8944 26.6368C11.8944 26.8563 11.9885 26.9974 11.9571 27.2012C11.8788 27.6716 11.236 27.9695 11.1262 28.4868C11.0321 28.8945 11.3143 29.2394 11.722 29.0983C12.0669 28.9885 12.1923 28.6123 12.3648 28.3144C12.4745 28.3144 12.5843 28.4241 12.694 28.4084C12.8351 28.4084 12.9292 28.2517 13.0546 28.283C13.4152 28.3301 13.3368 28.8317 13.2271 29.0826C12.9448 29.6627 12.4432 29.9292 12.9605 30.572C13.3525 30.3211 13.3995 30.7444 13.3995 31.0423L13.3211 31.8419C13.086 31.8419 12.8194 32.422 12.7254 32.5788C12.7254 32.5944 12.7254 32.6258 12.7254 32.6415C12.5215 32.7042 12.5372 33.0491 12.4745 33.3156C12.208 33.4567 11.9885 33.786 11.8474 34.0368C11.6593 34.3347 11.3927 34.6169 11.2673 34.9304C11.1262 35.3067 11.2046 35.7143 11.0635 36.0906C10.9224 36.4355 10.891 36.7177 10.9067 37.1097C10.9694 37.1097 11.0165 37.1254 11.0635 37.1254L11.0949 37.6114C10.9538 37.4703 10.797 37.3605 10.6559 37.3605C10.4834 37.3605 10.1699 37.0313 9.87198 36.7021C9.87198 36.0122 10.405 35.4008 10.5775 34.7423C10.6402 34.4601 10.7499 34.2249 10.9067 34.0055C11.0635 33.8016 11.2987 33.5665 11.236 33.2843C10.2796 33.394 9.69952 34.711 9.11944 35.3381C8.91563 35.5576 8.66478 35.8241 8.41394 35.9809C8.39826 35.9809 8.3669 36.0122 8.35122 36.0279C7.88089 35.9025 7.39487 35.6987 6.97157 35.5889C6.97157 35.5889 6.95589 35.5889 6.94021 35.5889C7.22242 35.0872 7.78682 34.5542 7.9436 34.2249C8.11606 33.88 8.52368 33.4567 8.82156 33.2216C9.07241 33.0334 10.0288 32.8296 9.98173 32.5004C9.46435 32.4377 8.79021 32.7826 8.35122 33.0177C8.16309 33.1275 8.00631 33.2529 7.81818 33.3313C7.48894 33.4567 7.12835 33.4567 6.79911 33.5821C6.51691 33.6919 6.32878 33.88 6.09361 34.0525C5.81141 34.2563 5.56056 34.272 5.23132 34.3974C5.01183 34.4758 4.79234 34.6012 4.61988 34.758C4.33768 35.0088 4.21226 35.0245 3.86735 35.1186C3.77328 34.9461 3.93006 34.6169 3.82031 34.4601C4.25929 34.0525 4.77666 33.7076 5.32539 33.441C5.60759 33.2999 5.84276 33.2059 6.01522 32.9394C6.23471 32.6101 6.34445 32.4847 6.75208 32.3279C7.44191 32.0614 8.57071 32.03 8.94698 31.3089C9.22919 30.7288 9.11944 30.133 9.21351 29.5372C9.30758 29.3961 9.433 29.2707 9.55842 29.1453C9.62113 29.0983 9.66817 29.0356 9.73088 28.9885C9.82495 28.9101 9.91901 28.8161 10.0131 28.722C10.1228 28.6123 10.2326 28.4868 10.3423 28.3771C10.4991 28.2046 10.6402 28.0322 10.7499 27.8911L10.7186 27.844ZM11.0008 29.5059C10.7343 29.5373 10.5775 29.8665 10.4991 30.086C11.0008 30.3682 11.2516 29.8195 11.0008 29.5059ZM12.4432 31.2932C12.2707 31.3245 12.1923 31.497 12.2237 31.6851C12.5843 31.8419 12.6626 31.4343 12.4432 31.2932Z" fill="#84451E"/>
<path d="M12.4435 31.2931C12.663 31.4342 12.6002 31.8418 12.224 31.685C12.1769 31.5126 12.271 31.3401 12.4435 31.2931Z" fill="#944F22"/>
<path d="M11.2197 33.2842C11.2825 33.5664 11.0473 33.8015 10.8905 34.0054C10.7181 34.2249 10.624 34.46 10.5613 34.7422C10.4045 35.4007 9.87145 36.0121 9.85577 36.702C9.57357 36.4041 9.29136 36.1062 9.11891 36.1219C8.85238 36.1376 8.58586 36.0905 8.31934 36.0278C8.33501 36.0278 8.36637 35.9965 8.38205 35.9808C8.63289 35.8083 8.89942 35.5575 9.08755 35.338C9.66763 34.7109 10.2477 33.3939 11.2041 33.2842H11.2197Z" fill="#753B19"/>
<path d="M11.0007 29.5059C11.2672 29.8351 11.0007 30.3681 10.499 30.0859C10.5617 29.8508 10.7185 29.5372 11.0007 29.5059Z" fill="#753B19"/>
<path d="M9.96589 32.5003C10.0286 32.8453 9.05657 33.0491 8.80573 33.2215C8.50785 33.4567 8.10022 33.88 7.92776 34.2249C7.77098 34.5541 7.20658 35.0872 6.92438 35.5889C6.61082 35.5262 6.04641 35.9024 5.85828 35.73C5.77989 35.6516 6.07777 34.9618 5.95235 34.9147C5.79557 34.8677 5.67015 34.9147 5.51337 34.9304C5.05871 34.9618 4.22778 35.3851 3.91422 35.1656C3.88286 35.1499 3.86719 35.1186 3.86719 35.1029C4.2121 35.0245 4.3532 35.0088 4.61973 34.7423C4.79218 34.5855 5.01167 34.4601 5.23116 34.3817C5.5604 34.2719 5.79557 34.2406 6.09345 34.0368C6.32862 33.8643 6.51675 33.6762 6.79895 33.5664C7.12819 33.441 7.50446 33.441 7.81802 33.3156C8.00615 33.2372 8.16293 33.1118 8.35107 33.002C8.79005 32.7669 9.4642 32.422 9.98157 32.4847L9.96589 32.5003Z" fill="#753B19"/>
<path d="M9.1981 29.5059C9.10403 30.1016 9.21378 30.6974 8.93157 31.2775C8.57098 31.9986 7.4265 32.03 6.73667 32.2965C6.31336 32.469 6.20362 32.5787 5.99981 32.908C5.82735 33.1588 5.59218 33.2686 5.30998 33.4097C4.76125 33.6762 4.24388 34.0211 3.8049 34.4287C3.77354 34.3817 3.72651 34.3503 3.64812 34.3503C3.31888 34.319 3.36592 34.319 3.0994 34.1465C2.8799 33.9897 3.16211 33.7389 3.41295 33.6291C3.77354 33.4724 3.77354 33.2058 4.05575 33.002C4.44769 32.7198 4.98074 32.908 5.7176 32.2495C6.86209 31.2148 7.9909 31.8889 8.44556 30.9482C8.49259 30.8698 8.6964 30.1643 9.1981 29.5059Z" fill="#944F22"/>
<path d="M17.1002 5.9891C16.473 5.80097 15.2345 5.22089 15.7832 4.54674C15.7832 4.54674 15.7832 4.53106 15.7989 4.51538C15.7989 4.56241 15.8303 4.60945 15.8303 4.67216C15.8303 4.73487 15.8303 4.79758 15.8303 4.84462C15.8616 4.92301 15.9557 5.01707 16.0027 5.06411C16.3633 5.44038 16.8336 5.40902 17.304 5.34631C17.5548 5.31495 17.8057 5.29928 18.0565 5.22089C18.3387 5.12682 18.5896 5.03275 18.8561 4.92301C19.0129 4.86029 19.154 4.7819 19.3107 4.73487C19.4205 4.68784 19.5459 4.67216 19.6557 4.62513C19.7654 4.57809 19.8595 4.54674 19.9692 4.53106C19.1226 5.15817 18.276 6.34969 17.0845 5.9891H17.1002Z" fill="#20B24B"/>
<path d="M20.0475 4.4839C20.0475 4.4839 20.0005 4.51525 19.9848 4.53093C19.875 4.56228 19.781 4.57796 19.6712 4.625C19.5615 4.67203 19.4361 4.68771 19.3263 4.73474C19.1695 4.79745 19.0284 4.86016 18.8716 4.92288C18.6051 5.03262 18.3386 5.12669 18.0721 5.22076C17.8212 5.29915 17.5704 5.31482 17.3195 5.34618C16.8492 5.40889 16.3789 5.44025 16.0183 5.06398C15.9556 5.00127 15.8615 4.9072 15.8458 4.84449C15.8458 4.79745 15.8458 4.73474 15.8458 4.67203C15.8458 4.625 15.8301 4.56228 15.8145 4.51525C15.9869 4.31144 16.1907 4.1233 16.4102 3.95085C16.8649 3.60593 17.2882 3.62161 17.8369 3.73136C18.5738 3.87246 19.389 4.1233 20.0632 4.46822L20.0475 4.4839Z" fill="#3FB549"/>
<path d="M15.7822 4.98567C15.7822 4.98567 15.8293 4.93864 15.9076 4.87592C15.986 4.81321 16.1115 4.71914 16.2839 4.64076C16.4564 4.56237 16.6602 4.48398 16.8954 4.45262C17.0051 4.45262 17.1305 4.43694 17.2559 4.42126C17.3814 4.42126 17.5068 4.42126 17.6165 4.43694C18.1026 4.49965 18.5572 4.59372 18.9178 4.6094C19.0903 4.6094 19.247 4.6094 19.3411 4.57804C19.3881 4.56237 19.4195 4.54669 19.4509 4.53101C19.4822 4.53101 19.4822 4.51533 19.4822 4.51533C19.4822 4.51533 19.4822 4.51533 19.4509 4.54669C19.4352 4.56237 19.4038 4.59372 19.3411 4.6094C19.247 4.65643 19.0903 4.70347 18.9021 4.71914C18.714 4.71914 18.5102 4.71914 18.275 4.70347C18.0555 4.67211 17.8204 4.64075 17.5852 4.62508C17.4598 4.62508 17.35 4.6094 17.2403 4.6094C17.1305 4.6094 17.0051 4.6094 16.8954 4.6094C16.6759 4.6094 16.4721 4.67211 16.3153 4.73482C16.1428 4.79753 16.0174 4.86025 15.9233 4.90728C15.8293 4.95431 15.7822 4.98567 15.7822 4.98567Z" fill="#15A74A"/>
<path d="M15.9551 16.3051C15.6102 16.8695 14.7166 17.8886 14.2149 17.1988C14.2149 17.1988 14.2149 17.1831 14.1992 17.1674C14.2463 17.1674 14.309 17.1674 14.356 17.1674C14.4187 17.1674 14.4657 17.1988 14.5285 17.1988C14.6068 17.1988 14.7166 17.136 14.795 17.089C15.2496 16.8382 15.3594 16.3835 15.4221 15.9132C15.4534 15.6623 15.5162 15.4115 15.5005 15.1606C15.5005 14.8784 15.4691 14.5962 15.4221 14.314C15.4064 14.1572 15.3751 13.9848 15.3594 13.828C15.3594 13.7026 15.3594 13.5928 15.3594 13.4674C15.3594 13.3577 15.3594 13.2479 15.3594 13.1382C15.7357 14.1102 16.6606 15.2547 15.9865 16.3051H15.9551Z" fill="#20B24B"/>
<path d="M15.2964 13.0597C15.2964 13.0597 15.3121 13.1067 15.3278 13.1381C15.3278 13.2478 15.3278 13.3419 15.3278 13.4673C15.3278 13.5771 15.3278 13.7025 15.3278 13.8279C15.3278 14.0004 15.3748 14.1571 15.3905 14.3139C15.4375 14.5961 15.4532 14.8783 15.4689 15.1605C15.4689 15.4271 15.4218 15.6622 15.3905 15.9131C15.3278 16.3834 15.2337 16.8381 14.7634 17.0889C14.7007 17.1203 14.5752 17.1987 14.4968 17.1987C14.4498 17.1987 14.3871 17.1673 14.3244 17.1673C14.2773 17.1673 14.2146 17.1673 14.1676 17.1673C14.0265 16.9478 13.8854 16.697 13.7913 16.4461C13.5718 15.9131 13.7129 15.5211 13.9638 15.0038C14.293 14.3296 14.7634 13.6084 15.2807 13.0597H15.2964Z" fill="#3FB549"/>
<path d="M14.6377 17.3085C14.6377 17.3085 14.6064 17.2614 14.575 17.1517C14.5437 17.0576 14.481 16.9165 14.4496 16.7284C14.4183 16.5402 14.4026 16.3207 14.4496 16.1013C14.4653 15.9915 14.4966 15.8661 14.528 15.7563C14.5594 15.6466 14.6064 15.5212 14.6377 15.4114C14.8259 14.9568 15.0454 14.5491 15.1551 14.2042C15.2178 14.0318 15.2335 13.8907 15.2335 13.7966C15.2335 13.7496 15.2335 13.7025 15.2335 13.6712C15.2335 13.6398 15.2335 13.6241 15.2335 13.6241C15.2335 13.6241 15.2335 13.6241 15.2492 13.6555C15.2492 13.6869 15.2805 13.7182 15.2962 13.7809C15.3119 13.8907 15.3276 14.0474 15.2962 14.2199C15.2649 14.408 15.1865 14.5962 15.1081 14.8157C15.0297 15.0195 14.9356 15.239 14.8416 15.4585C14.7945 15.5682 14.7632 15.678 14.7318 15.7877C14.7005 15.8974 14.6691 16.0072 14.6534 16.1169C14.6064 16.3364 14.6064 16.5402 14.6064 16.7127C14.6064 16.8851 14.6377 17.0419 14.6691 17.136C14.7005 17.2457 14.7005 17.2928 14.7005 17.2928L14.6377 17.3085Z" fill="#15A74A"/>
<path d="M9.7631 4.62488C10.3902 4.82869 11.7385 5.0325 11.6601 4.17022C11.6601 4.17022 11.6601 4.15454 11.6601 4.13886C11.6288 4.17022 11.5817 4.20158 11.5504 4.24861C11.519 4.29564 11.4877 4.34268 11.4406 4.37403C11.3779 4.42107 11.2525 4.45242 11.1741 4.4681C10.6567 4.57784 10.2961 4.29564 9.93556 3.96641C9.74742 3.79395 9.54361 3.65285 9.38683 3.43336C9.21438 3.19819 9.04192 2.9787 8.88514 2.74353C8.79107 2.60243 8.71268 2.46133 8.61862 2.33591C8.5559 2.24184 8.46184 2.16345 8.39912 2.0537C8.33641 1.95964 8.2737 1.88125 8.19531 1.80286C8.54023 2.79056 8.57158 4.24861 9.7631 4.62488Z" fill="#20B24B"/>
<path d="M8.16406 1.72461C8.16406 1.72461 8.17974 1.77164 8.19542 1.803C8.27381 1.88139 8.33652 1.95978 8.39923 2.05385C8.46194 2.14791 8.55601 2.24198 8.61872 2.33605C8.71279 2.47715 8.80686 2.61825 8.88525 2.74367C9.04202 2.99452 9.1988 3.21401 9.38694 3.4335C9.54372 3.63731 9.74753 3.79409 9.93566 3.96655C10.2963 4.29579 10.6568 4.57799 11.1742 4.46824C11.2526 4.46824 11.378 4.42121 11.4407 4.37417C11.4878 4.34282 11.5035 4.28011 11.5505 4.24875C11.5818 4.20172 11.6289 4.17036 11.6602 4.13901C11.6289 3.87248 11.5662 3.59028 11.4878 3.33943C11.3153 2.79071 10.9391 2.58689 10.4217 2.35173C9.73185 2.05385 8.9166 1.803 8.16406 1.72461Z" fill="#3FB549"/>
<path d="M11.4245 4.53084C11.4245 4.53084 11.4245 4.46812 11.3774 4.37406C11.3461 4.27999 11.299 4.12321 11.205 3.96643C11.1109 3.80965 10.9855 3.6372 10.813 3.48042C10.719 3.40203 10.6249 3.32364 10.5308 3.26093C10.4367 3.19821 10.327 3.11982 10.2173 3.07279C9.77827 2.8533 9.33929 2.68084 9.04141 2.49271C8.88464 2.39864 8.77489 2.30457 8.71218 2.22618C8.68082 2.17915 8.66515 2.14779 8.64947 2.13212C8.64947 2.10076 8.63379 2.08508 8.63379 2.08508C8.63379 2.08508 8.63379 2.08508 8.63379 2.13212C8.63379 2.16347 8.64947 2.19483 8.68082 2.24186C8.72786 2.33593 8.8376 2.46135 8.9787 2.5711C9.1198 2.68084 9.30794 2.79059 9.51175 2.90033C9.71556 3.01008 9.91938 3.11982 10.1389 3.22957C10.2486 3.29228 10.3427 3.33932 10.4367 3.40203C10.5308 3.46474 10.6249 3.52745 10.7189 3.60584C10.8914 3.74694 11.0325 3.88804 11.1423 4.02914C11.252 4.17024 11.3304 4.29567 11.3774 4.38973C11.4245 4.4838 11.4558 4.53084 11.4558 4.53084H11.4245Z" fill="#15A74A"/>
<path d="M13.3369 5.04825C13.8072 5.50291 14.9204 6.28681 15.2339 5.48723C15.2339 5.48723 15.2339 5.47155 15.2339 5.45588C15.1869 5.45588 15.1399 5.47155 15.0771 5.50291C15.0301 5.51859 14.9674 5.56562 14.9204 5.56562C14.842 5.56562 14.7166 5.54994 14.6382 5.51859C14.1365 5.37749 13.9327 4.96986 13.7602 4.53088C13.6661 4.29571 13.5564 4.07622 13.4937 3.8097C13.431 3.52749 13.3839 3.26097 13.3526 2.96309C13.3369 2.80631 13.3212 2.63385 13.2899 2.47708C13.2742 2.36733 13.2272 2.24191 13.2115 2.13216C13.2115 2.02242 13.1801 1.91267 13.1488 1.8186C13.0077 2.85334 12.3962 4.18597 13.2899 5.04825H13.3369Z" fill="#20B24B"/>
<path d="M13.1953 1.74029C13.1953 1.74029 13.1953 1.78732 13.1953 1.81868C13.2267 1.91274 13.2423 2.02249 13.258 2.13224C13.258 2.25766 13.3051 2.3674 13.3364 2.47715C13.3678 2.63393 13.3834 2.80638 13.3991 2.96316C13.4305 3.24537 13.4775 3.52757 13.5402 3.80977C13.5873 4.06062 13.7127 4.28011 13.8067 4.53095C13.9792 4.98561 14.183 5.39324 14.6847 5.51866C14.7631 5.53434 14.8885 5.58137 14.9669 5.5657C15.0139 5.5657 15.0767 5.51866 15.1237 5.50298C15.1707 5.48731 15.2178 5.47163 15.2805 5.45595C15.3745 5.22078 15.4373 4.9229 15.4843 4.65638C15.5627 4.09197 15.3432 3.73138 14.9669 3.2924C14.4809 2.71232 13.8538 2.13223 13.2267 1.72461L13.1953 1.74029Z" fill="#3FB549"/>
<path d="M14.8573 5.7224C14.8573 5.7224 14.8573 5.65969 14.8887 5.56562C14.8887 5.45588 14.92 5.31477 14.9043 5.12664C14.9043 4.93851 14.8573 4.71901 14.7632 4.5152C14.7162 4.40546 14.6692 4.29571 14.6065 4.20164C14.5437 4.0919 14.481 3.98215 14.4183 3.88809C14.1361 3.49614 13.8069 3.13555 13.6187 2.83767C13.5247 2.69657 13.462 2.55546 13.4463 2.4614C13.4463 2.41436 13.4463 2.36733 13.4463 2.33597C13.4463 2.30462 13.4463 2.28894 13.4463 2.28894C13.4463 2.28894 13.4463 2.28894 13.4463 2.33597C13.4463 2.36733 13.4463 2.39869 13.4463 2.4614C13.4463 2.57114 13.4933 2.72792 13.5717 2.8847C13.6501 3.05716 13.7598 3.22961 13.9009 3.41775C14.0264 3.60588 14.1675 3.79402 14.3086 3.98215C14.3713 4.07622 14.434 4.17029 14.4967 4.28003C14.5594 4.3741 14.6065 4.48385 14.6535 4.57791C14.7476 4.78173 14.8103 4.96986 14.8416 5.14232C14.873 5.31478 14.8887 5.47155 14.8887 5.56562C14.8887 5.67537 14.8887 5.73808 14.8887 5.73808L14.8573 5.7224Z" fill="#15A74A"/>
<path d="M9.95018 9.72025C10.4205 10.1749 11.5336 10.9588 11.8472 10.1592C11.8472 10.1592 11.8472 10.1436 11.8472 10.1279C11.8002 10.1279 11.7531 10.1436 11.6904 10.1749C11.6434 10.1906 11.5807 10.2376 11.5336 10.2376C11.4553 10.2376 11.3298 10.2219 11.2514 10.1906C10.7498 10.0652 10.5459 9.64186 10.3735 9.20288C10.2794 8.96771 10.1697 8.74822 10.107 8.48169C10.0442 8.19949 9.99721 7.93297 9.96586 7.63509C9.95018 7.47831 9.9345 7.30585 9.90315 7.14907C9.88747 7.03933 9.84044 6.9139 9.82476 6.80416C9.82476 6.69441 9.7934 6.58467 9.76205 6.4906C9.62095 7.52534 9.00951 8.85796 9.90315 9.72025H9.95018Z" fill="#20B24B"/>
<path d="M9.80859 6.41228C9.80859 6.41228 9.80859 6.45932 9.80859 6.49067C9.83995 6.58474 9.85563 6.69449 9.87131 6.80423C9.87131 6.91398 9.91834 7.0394 9.9497 7.14915C9.98105 7.30593 9.99673 7.47838 10.0124 7.63516C10.0438 7.91736 10.0908 8.19956 10.1535 8.48177C10.2005 8.73261 10.326 8.9521 10.42 9.20295C10.5925 9.65761 10.7963 10.0652 11.298 10.1907C11.3764 10.2063 11.5018 10.2534 11.5802 10.2377C11.6272 10.2377 11.6899 10.1907 11.737 10.175C11.784 10.1593 11.831 10.1436 11.8938 10.1279C11.9878 9.89278 12.0505 9.5949 12.0976 9.32837C12.176 8.76397 11.9565 8.40338 11.5802 7.9644C11.0942 7.38431 10.4671 6.80423 9.83995 6.39661L9.80859 6.41228Z" fill="#3FB549"/>
<path d="M11.4706 10.3944C11.4706 10.3944 11.4706 10.3317 11.5019 10.2376C11.5019 10.1279 11.5333 9.98677 11.5176 9.79864C11.5176 9.6105 11.4706 9.39101 11.3765 9.1872C11.3295 9.07745 11.2824 8.96771 11.2197 8.87364C11.157 8.7639 11.0943 8.65415 11.0316 8.56008C10.7494 8.16814 10.4202 7.80754 10.232 7.50966C10.138 7.36856 10.0752 7.22746 10.0596 7.1334C10.0596 7.08636 10.0596 7.03933 10.0596 7.00797C10.0596 6.97662 10.0596 6.96094 10.0596 6.96094C10.0596 6.96094 10.0596 6.96094 10.0596 7.00797C10.0596 7.03933 10.0596 7.07068 10.0596 7.1334C10.0596 7.24314 10.1066 7.39992 10.185 7.5567C10.2634 7.72915 10.3731 7.90161 10.5142 8.08975C10.6397 8.27788 10.7808 8.46602 10.9219 8.65415C10.9846 8.74822 11.0473 8.84229 11.11 8.95203C11.1727 9.0461 11.2197 9.15584 11.2668 9.24991C11.3608 9.45372 11.4235 9.64186 11.4549 9.81432C11.4863 9.98677 11.5019 10.1436 11.5019 10.2376C11.5019 10.3474 11.5019 10.4101 11.5019 10.4101L11.4706 10.3944Z" fill="#15A74A"/>
<path d="M12.6943 10.0966C13.1647 10.5512 14.2778 11.3351 14.5913 10.5356C14.5913 10.5356 14.5913 10.5199 14.5913 10.5042C14.5443 10.5042 14.4973 10.5199 14.4346 10.5513C14.3875 10.5669 14.3248 10.614 14.2778 10.614C14.1994 10.614 14.074 10.5983 13.9956 10.5669C13.4939 10.4415 13.2901 10.0182 13.1176 9.57922C13.0236 9.34405 12.9138 9.12456 12.8511 8.85804C12.7884 8.57583 12.7414 8.30931 12.71 8.01143C12.6943 7.85465 12.6786 7.68219 12.6473 7.52542C12.6316 7.41567 12.5846 7.29025 12.5689 7.1805C12.5689 7.07076 12.5375 6.96101 12.5062 6.86694C12.3651 7.90168 11.7536 9.23431 12.6473 10.0966H12.6943Z" fill="#20B24B"/>
<path d="M12.5527 6.78851C12.5527 6.78851 12.5527 6.83554 12.5527 6.8669C12.5841 6.96096 12.5998 7.07071 12.6154 7.18045C12.6154 7.2902 12.6625 7.41562 12.6938 7.52537C12.7252 7.68215 12.7409 7.8546 12.7565 8.01138C12.7879 8.29358 12.8349 8.57579 12.8977 8.85799C12.9447 9.10883 13.0701 9.32832 13.1642 9.57917C13.3366 10.0338 13.5404 10.4415 14.0421 10.5669C14.1205 10.5826 14.2459 10.6296 14.3243 10.6139C14.3714 10.6139 14.4341 10.5669 14.4811 10.5512C14.5282 10.5355 14.5752 10.5198 14.6379 10.5042C14.732 10.269 14.7947 9.97112 14.8417 9.70459C14.9201 9.14019 14.7006 8.7796 14.3243 8.34062C13.8383 7.76053 13.2112 7.18045 12.5841 6.77283L12.5527 6.78851Z" fill="#3FB549"/>
<path d="M14.2147 10.7707C14.2147 10.7707 14.2147 10.708 14.2461 10.614C14.2461 10.5042 14.2774 10.3631 14.2618 10.175C14.2618 9.98684 14.2147 9.76735 14.1207 9.56354C14.0736 9.4538 14.0266 9.34405 13.9639 9.24998C13.9012 9.14024 13.8385 9.03049 13.7757 8.93643C13.4935 8.54448 13.1643 8.18389 12.9762 7.88601C12.8821 7.7449 12.8194 7.6038 12.8037 7.50974C12.8037 7.4627 12.8037 7.41567 12.8037 7.38431C12.8037 7.35296 12.8037 7.33728 12.8037 7.33728C12.8037 7.33728 12.8037 7.33728 12.8037 7.38431C12.8037 7.41567 12.8037 7.44703 12.8037 7.50974C12.8037 7.61948 12.8507 7.77626 12.9291 7.93304C13.0075 8.1055 13.1173 8.27795 13.2584 8.46609C13.3838 8.65422 13.5249 8.84236 13.666 9.03049C13.7287 9.12456 13.7914 9.21863 13.8541 9.32837C13.9168 9.42244 13.9639 9.53219 14.0109 9.62625C14.105 9.83007 14.1677 10.0182 14.199 10.1907C14.2304 10.3631 14.2461 10.5199 14.2461 10.614C14.2461 10.7237 14.2461 10.7864 14.2461 10.7864L14.2147 10.7707Z" fill="#15A74A"/>
<path d="M12.1137 18.2491C12.7722 18.2961 14.1205 18.202 13.8697 17.3868C13.8697 17.3868 13.8697 17.3711 13.8697 17.3554C13.8383 17.4025 13.807 17.4338 13.7756 17.4808C13.7442 17.5279 13.7286 17.5906 13.6972 17.6376C13.6502 17.7003 13.5248 17.7474 13.462 17.7787C12.9917 17.9982 12.5684 17.8101 12.1451 17.5749C11.9256 17.4495 11.6904 17.3554 11.4866 17.183C11.2671 16.9948 11.0477 16.8224 10.8438 16.6186C10.7341 16.5088 10.6087 16.3834 10.4832 16.2736C10.3892 16.1953 10.2951 16.1325 10.201 16.0542C10.1227 15.9758 10.0286 15.9131 9.9502 15.8503C10.5146 16.744 10.8752 18.155 12.1137 18.2491Z" fill="#20B24B"/>
<path d="M9.90332 15.772C9.90332 15.772 9.93467 15.819 9.95035 15.8347C10.0444 15.8974 10.1228 15.9602 10.2012 16.0385C10.2796 16.1169 10.3893 16.1796 10.4834 16.258C10.6088 16.3678 10.7186 16.4775 10.844 16.6029C11.0478 16.8068 11.2673 16.9792 11.4868 17.1673C11.6906 17.3398 11.9258 17.4339 12.1453 17.5593C12.5686 17.7945 12.9762 17.9826 13.4622 17.7631C13.5406 17.7318 13.6503 17.6847 13.6974 17.622C13.7287 17.575 13.7444 17.5123 13.7758 17.4652C13.8071 17.4182 13.8385 17.3712 13.8698 17.3398C13.7914 17.089 13.6503 16.8381 13.5249 16.6029C13.227 16.1169 12.8194 15.9915 12.2707 15.8818C11.5338 15.7407 10.6715 15.6936 9.93467 15.772H9.90332Z" fill="#3FB549"/>
<path d="M13.7123 17.7945C13.7123 17.7945 13.681 17.7475 13.6339 17.6534C13.5712 17.5593 13.4928 17.4339 13.3674 17.2928C13.242 17.1517 13.0695 17.0106 12.8657 16.9009C12.756 16.8381 12.6619 16.7911 12.5365 16.7441C12.4267 16.697 12.3013 16.6657 12.1916 16.6343C11.7212 16.5089 11.2509 16.4462 10.906 16.3365C10.7335 16.2894 10.6081 16.2267 10.5297 16.1483C10.4984 16.117 10.467 16.0856 10.4357 16.0699C10.42 16.0543 10.4043 16.0386 10.4043 16.0386C10.4043 16.0386 10.4043 16.0386 10.42 16.0856C10.42 16.117 10.4513 16.1483 10.4984 16.1954C10.5768 16.2737 10.7022 16.3678 10.859 16.4462C11.0314 16.5246 11.2352 16.5873 11.4547 16.65C11.6742 16.697 11.9094 16.7598 12.1289 16.8225C12.2386 16.8538 12.3484 16.8852 12.4581 16.9322C12.5678 16.9792 12.6776 17.0106 12.7717 17.0576C12.9755 17.1517 13.1323 17.2614 13.2734 17.3712C13.4145 17.4809 13.5085 17.5907 13.5712 17.6691C13.6339 17.7475 13.681 17.7945 13.681 17.7945H13.7123Z" fill="#15A74A"/>
<path d="M16.8799 13.4515C15.8608 15.082 15.5943 17.4494 15.4846 19.268C15.4062 18.9545 15.2651 18.6566 15.3121 18.3274C15.4062 17.6532 15.3592 16.9634 15.4219 16.2892C15.4532 15.8816 15.61 15.3172 15.8452 14.9723C15.9706 14.7842 16.1587 14.6744 16.2685 14.4706C16.3155 14.3922 16.3469 14.3138 16.3939 14.2198C16.5193 13.9689 16.6761 13.7181 16.8486 13.4829C16.8486 13.4829 16.8642 13.4672 16.8799 13.4515Z" fill="#A95D28"/>
<path d="M14.638 7.30586C14.7321 6.83552 14.9829 6.36518 15.1083 5.91052C15.2024 5.53425 15.3435 5.25205 15.5787 4.93849C15.7825 4.65629 15.9863 4.31138 16.2371 4.06053C16.4096 3.88807 16.6134 3.74697 16.7859 3.57452C16.974 3.40206 17.1778 3.24528 17.3816 3.0885C17.3346 3.16689 17.1935 3.29231 16.9897 3.48045C14.7164 5.54993 14.9672 7.74484 14.8575 9.20288C14.7791 10.3317 14.6537 11.6016 14.2931 12.7931C14.2931 12.5109 14.2617 12.2287 14.2617 11.9465C14.2617 11.4135 14.3088 10.8804 14.3244 10.363C14.3401 9.86135 14.5126 9.40669 14.4812 8.88932C14.4499 8.3406 14.5126 7.82323 14.6066 7.29018L14.638 7.30586Z" fill="#A95D28"/>
<path d="M11.549 4.53088C11.6901 4.68766 11.8469 4.86011 12.0037 5.00122C12.3172 5.26774 12.7092 5.48723 13.0071 5.78511C13.5715 6.36519 13.8537 7.2118 13.9634 7.98002C14.0104 8.35629 14.0104 8.79527 13.9321 9.15586C13.9321 9.17154 13.9321 9.18721 13.9321 9.20289C14.0575 7.3529 13.0698 5.95757 11.7372 4.89147C11.1414 4.42113 11.0473 4.26435 11.5647 4.53088H11.549Z" fill="#A95D28"/>
<path d="M13.6183 15.5994C13.681 15.96 13.7594 16.3049 13.8064 16.6812C13.8535 17.1829 13.9789 17.6376 14.2141 18.0765C14.2925 18.202 14.3552 18.3117 14.4022 18.4528C14.4336 18.6096 14.4022 18.782 14.4492 18.9388C14.5119 19.174 14.7314 19.3308 14.7785 19.5816C14.8255 19.8011 14.8255 20.1147 14.7941 20.3498C14.7628 20.6164 14.5903 20.8045 14.6217 21.0867C14.6687 21.463 15.0763 21.6041 15.1391 21.996C15.1861 22.3723 14.9509 22.6858 14.9352 23.0464C14.9196 23.4697 15.3429 23.5795 15.4213 23.9401C15.5153 24.3634 15.2958 24.8337 15.2958 25.2727C15.2958 25.5235 15.2331 25.9155 15.3899 26.135C15.4997 26.3074 15.6878 26.3074 15.8759 26.3074C15.8759 26.3388 15.8759 26.3702 15.8759 26.4172C15.7819 27.2638 14.4649 27.2638 14.5433 26.4172C14.7158 24.724 14.6217 23.0151 14.4336 21.3219C14.3081 20.1303 14.0886 18.9702 13.728 17.8257C13.4302 16.8537 12.9442 15.8346 12.8501 14.8155C12.709 13.2321 11.298 10.0495 8.94629 9.50073C9.41663 9.56344 9.85561 9.70454 10.3259 9.93971C10.6552 10.1122 10.9687 10.316 11.2196 10.5825C11.5488 10.9274 11.9408 11.1469 12.2073 11.5545C12.3484 11.774 12.317 11.9465 12.3641 12.1817C12.4425 12.4482 12.6933 12.652 12.8187 12.8872C12.9755 13.1537 12.9442 13.4516 13.0225 13.7338C13.0853 13.9689 13.4929 14.5333 13.7594 14.4549C13.6497 14.8469 13.5713 15.2232 13.634 15.6308L13.6183 15.5994Z" fill="#A95D28"/>
<path d="M14.2926 6.86695C14.7786 5.53433 15.7192 4.23306 16.8481 3.38645C17.3027 3.04154 17.5065 2.94747 17.3811 3.10425C17.1773 3.26103 16.9735 3.41781 16.7853 3.59027C16.5972 3.76272 16.4091 3.90382 16.2366 4.07628C15.9858 4.32713 15.782 4.65636 15.5781 4.95424C15.343 5.25212 15.2019 5.55 15.1078 5.92627C14.9824 6.38093 14.7315 6.85127 14.6375 7.32161C14.5277 7.85466 14.4807 8.37203 14.512 8.92075C14.5434 9.42244 14.3709 9.8771 14.3553 10.3945C14.3396 10.9275 14.2926 11.4449 14.2926 11.9779C14.2926 12.2601 14.2926 12.5423 14.3239 12.8245C14.3239 12.8559 14.3082 12.8873 14.2926 12.9186C13.932 14.0788 14.3396 15.7563 14.8413 17.183C15.2019 15.5368 16.1269 13.5614 17.287 12.464C17.9142 11.8682 18.2277 12.025 17.6006 12.6207C17.3341 12.8716 17.0989 13.1695 16.8951 13.4987C16.8951 13.4987 16.8794 13.5144 16.8637 13.5301C16.6913 13.7495 16.5345 14.0161 16.4091 14.2669C16.362 14.3453 16.3307 14.4237 16.2837 14.5178C16.1739 14.7216 15.9858 14.847 15.8603 15.0195C15.6252 15.3644 15.4684 15.9288 15.437 16.3364C15.3743 17.0105 15.4214 17.7004 15.3273 18.3745C15.2803 18.7038 15.4214 19.0016 15.4998 19.3152C15.4998 19.3622 15.4998 19.4093 15.4998 19.4563C15.5781 19.8169 15.6252 20.1775 15.6722 20.5538C15.8917 22.4821 16.0642 24.4105 15.876 26.3389C15.6879 26.3389 15.4998 26.3389 15.39 26.1664C15.2489 25.947 15.2959 25.5393 15.2959 25.3042C15.2959 24.8809 15.5154 24.3948 15.4214 23.9715C15.343 23.6109 14.9197 23.5012 14.9354 23.0779C14.951 22.7173 15.1862 22.4037 15.1392 22.0275C15.0921 21.6355 14.6845 21.4944 14.6218 21.1182C14.5904 20.836 14.7629 20.6478 14.7943 20.3813C14.8256 20.1618 14.8256 19.8482 14.7786 19.6131C14.7315 19.3622 14.512 19.2055 14.4493 18.9703C14.4023 18.8135 14.4493 18.6411 14.4023 18.4843C14.3709 18.3432 14.2926 18.2334 14.2142 18.108C13.979 17.669 13.8536 17.2144 13.8065 16.7127C13.7595 16.3521 13.6811 16.0072 13.6184 15.6309C13.5557 15.2076 13.6184 14.847 13.7438 14.4551C13.4773 14.5491 13.0697 13.969 13.007 13.7339C12.9286 13.4517 12.9599 13.1538 12.8032 12.8873C12.6621 12.6521 12.4112 12.4483 12.3485 12.1818C12.2858 11.9623 12.3328 11.7741 12.1917 11.5546C11.9095 11.147 11.5332 10.9275 11.204 10.5826C10.9532 10.3161 10.6396 10.128 10.3104 9.93982C9.84004 9.68897 9.41673 9.56355 8.93072 9.50084C8.83665 9.46948 8.7269 9.4538 8.61716 9.43812C7.77055 9.32838 7.70784 9.12457 8.57013 9.15592C10.3417 9.21863 12.129 10.5513 13.1951 12.1034C13.1951 12.072 13.2265 11.8682 13.2265 11.8368C13.4773 11.0216 13.8693 10.1593 13.9476 9.26567C13.9476 9.24999 13.9476 9.23431 13.9476 9.21863C13.9476 9.20295 13.9476 9.18728 13.9476 9.1716C14.0104 8.81101 14.026 8.37203 13.979 7.99576C13.8693 7.22754 13.5871 6.38093 13.0226 5.80085C12.7248 5.50297 12.3328 5.28348 12.0193 5.01696C11.8625 4.87585 11.7214 4.7034 11.5646 4.54662C11.6273 4.57797 11.69 4.62501 11.7841 4.65636C12.6777 5.15806 13.6498 5.98899 14.3239 6.88263L14.2926 6.86695Z" fill="#BC6B32"/>
<path d="M18.9333 3.10426C18.3376 3.40214 17.0363 3.79408 16.9893 2.9318C16.9893 2.9318 16.9893 2.91612 16.9893 2.90044C17.0363 2.9318 17.0833 2.94748 17.1147 2.99451C17.1617 3.02587 17.1931 3.08858 17.2401 3.10426C17.3028 3.13561 17.4439 3.15129 17.5223 3.15129C18.0397 3.18265 18.3689 2.85341 18.6668 2.47714C18.8236 2.27333 19.0117 2.10087 19.1371 1.88138C19.2782 1.63053 19.4037 1.37969 19.5291 1.11316C19.5918 0.956384 19.6545 0.815283 19.7329 0.658504C19.7956 0.548759 19.8583 0.454692 19.9053 0.344947C19.9524 0.235202 19.9994 0.156812 20.0621 0.0627441C19.874 1.09749 20.0465 2.53985 18.9176 3.08858L18.9333 3.10426Z" fill="#20B24B"/>
<path d="M20.0778 0C20.0778 0 20.0778 0.0470336 20.0621 0.0783894C19.9994 0.172457 19.9524 0.250846 19.9053 0.360592C19.8583 0.470337 19.7799 0.564404 19.7329 0.674149C19.6545 0.815251 19.5918 0.97203 19.5291 1.12881C19.4193 1.39533 19.2782 1.6305 19.1371 1.89703C19.0117 2.13219 18.8236 2.30465 18.6668 2.49279C18.3689 2.86906 18.0397 3.19829 17.5223 3.16694C17.4439 3.16694 17.3185 3.16694 17.2401 3.1199C17.1931 3.08855 17.1617 3.04151 17.1147 3.01016C17.0677 2.9788 17.0206 2.94745 16.9893 2.91609C16.9893 2.64957 16.9893 2.36736 17.052 2.10084C17.146 1.53643 17.4753 1.26991 17.9613 0.97203C18.6041 0.580082 19.3723 0.203813 20.0935 0.0156779L20.0778 0Z" fill="#3FB549"/>
<path d="M17.2725 3.26097C17.2725 3.26097 17.2725 3.19826 17.2881 3.08851C17.3038 2.97877 17.3352 2.83767 17.3979 2.66521C17.4606 2.49275 17.5703 2.30462 17.7271 2.11648C17.8055 2.02242 17.8839 1.94403 17.978 1.86564C18.0564 1.78725 18.1661 1.70886 18.2602 1.63047C18.6521 1.34827 19.0754 1.1131 19.3419 0.877929C19.483 0.768184 19.5771 0.658439 19.6241 0.564372C19.6555 0.517338 19.6712 0.485982 19.6712 0.454626C19.6712 0.42327 19.6712 0.407593 19.6712 0.407593C19.6712 0.407593 19.6712 0.407592 19.6712 0.454626C19.6712 0.485982 19.6712 0.517338 19.6398 0.580049C19.6085 0.674117 19.5144 0.815218 19.389 0.956319C19.2636 1.09742 19.0911 1.22284 18.9186 1.36394C18.7305 1.48937 18.5424 1.63047 18.3542 1.77157C18.2602 1.83428 18.1661 1.91267 18.0877 1.99106C17.9936 2.06945 17.9153 2.14784 17.8369 2.22623C17.6801 2.38301 17.5703 2.55546 17.492 2.71224C17.4136 2.86902 17.3509 3.01012 17.3195 3.10419C17.2881 3.19826 17.2725 3.26097 17.2725 3.26097Z" fill="#15A74A"/>
<path d="M16.2057 9.01476C15.5629 9.14019 14.1989 9.17154 14.3714 8.32494C14.3714 8.32494 14.3714 8.30926 14.3714 8.29358C14.4027 8.32493 14.4498 8.37197 14.4811 8.419C14.5125 8.46604 14.5438 8.52875 14.5752 8.5601C14.6379 8.60714 14.7633 8.65417 14.826 8.68553C15.3277 8.85798 15.7197 8.62281 16.1116 8.34061C16.3154 8.18383 16.5349 8.07409 16.7231 7.88595C16.9269 7.68214 17.115 7.47833 17.3032 7.25884C17.4129 7.13341 17.507 7.00799 17.6167 6.88257C17.6951 6.80418 17.7892 6.72579 17.8676 6.63172C17.946 6.53766 18.0243 6.47494 18.1027 6.41223C17.6324 7.35291 17.4286 8.79527 16.2057 9.03044V9.01476Z" fill="#20B24B"/>
<path d="M18.1494 6.33388C18.1494 6.33388 18.1337 6.38091 18.1181 6.39659C18.0397 6.4593 17.9613 6.53769 17.8829 6.61608C17.8045 6.71015 17.7104 6.77286 17.632 6.86693C17.5223 6.99235 17.4126 7.11777 17.3185 7.2432C17.1304 7.46269 16.9422 7.6665 16.7384 7.87031C16.5503 8.05845 16.3308 8.16819 16.127 8.32497C15.735 8.60718 15.3431 8.84234 14.8414 8.66989C14.763 8.63853 14.6376 8.60718 14.5905 8.54446C14.5592 8.51311 14.5278 8.4504 14.4965 8.40336C14.4651 8.35633 14.4338 8.32497 14.3867 8.27794C14.4494 8.02709 14.5435 7.74489 14.6532 7.50972C14.9041 6.99235 15.2804 6.81989 15.8291 6.66312C16.5503 6.44363 17.3969 6.30252 18.1494 6.3182V6.33388Z" fill="#3FB549"/>
<path d="M14.5586 8.7325C14.5586 8.7325 14.5743 8.66979 14.6214 8.57572C14.6684 8.48165 14.7311 8.34055 14.8408 8.19945C14.9506 8.05835 15.1074 7.90157 15.2955 7.76047C15.3896 7.69776 15.4993 7.63505 15.5934 7.57234C15.7031 7.50962 15.8129 7.46259 15.9226 7.41556C16.3773 7.2431 16.8476 7.13335 17.1612 6.99225C17.318 6.91386 17.4434 6.85115 17.5218 6.77276C17.5531 6.74141 17.5845 6.71005 17.6002 6.6787C17.6002 6.64734 17.6158 6.64734 17.6158 6.64734C17.6158 6.64734 17.6158 6.64734 17.6158 6.69437C17.6158 6.72573 17.5845 6.75708 17.5531 6.80412C17.4904 6.89819 17.3807 7.00793 17.2082 7.102C17.0514 7.19607 16.8476 7.29013 16.6438 7.36852C16.44 7.44691 16.2048 7.5253 15.9853 7.60369C15.8756 7.65073 15.7658 7.68208 15.6718 7.74479C15.562 7.79183 15.468 7.85454 15.3739 7.90157C15.1858 8.01132 15.029 8.15242 14.9036 8.27784C14.7781 8.40326 14.6841 8.52869 14.637 8.60708C14.5743 8.70114 14.543 8.74818 14.543 8.74818L14.5586 8.7325Z" fill="#15A74A"/>
<path d="M15.4215 12.2759C14.7787 12.4013 13.4148 12.4327 13.5872 11.586C13.5872 11.586 13.5872 11.5704 13.5872 11.5547C13.6186 11.586 13.6656 11.6331 13.697 11.6801C13.7283 11.7271 13.7597 11.7899 13.791 11.8212C13.8537 11.8682 13.9792 11.9153 14.0419 11.9466C14.5436 12.1191 14.9355 11.8839 15.3275 11.6017C15.5313 11.4449 15.7508 11.3352 15.9389 11.1471C16.1427 10.9432 16.3308 10.7394 16.519 10.5199C16.6287 10.3945 16.7228 10.2691 16.8325 10.1437C16.9109 10.0653 17.005 9.9869 17.0834 9.89283C17.1618 9.79876 17.2402 9.73605 17.3185 9.67334C16.8482 10.614 16.6444 12.0564 15.4215 12.2915V12.2759Z" fill="#20B24B"/>
<path d="M17.3652 9.59499C17.3652 9.59499 17.3496 9.64202 17.3339 9.6577C17.2555 9.72041 17.1771 9.7988 17.0987 9.87719C17.0203 9.97126 16.9263 10.034 16.8479 10.128C16.7381 10.2535 16.6284 10.3789 16.5343 10.5043C16.3462 10.7238 16.158 10.9276 15.9542 11.1314C15.7661 11.3196 15.5466 11.4293 15.3428 11.5861C14.9508 11.8683 14.5589 12.1035 14.0572 11.931C13.9788 11.8996 13.8534 11.8683 13.8064 11.8056C13.775 11.7742 13.7436 11.7115 13.7123 11.6645C13.6809 11.6174 13.6496 11.5861 13.6025 11.539C13.6653 11.2882 13.7593 11.006 13.8691 10.7708C14.1199 10.2535 14.4962 10.081 15.0449 9.92423C15.7661 9.70473 16.6127 9.56363 17.3652 9.57931V9.59499Z" fill="#3FB549"/>
<path d="M13.7911 11.9936C13.7911 11.9936 13.8067 11.9309 13.8538 11.8368C13.9008 11.7428 13.9635 11.6017 14.0733 11.4606C14.183 11.3195 14.3398 11.1627 14.5279 11.0216C14.622 10.9589 14.7317 10.8962 14.8258 10.8334C14.9356 10.7707 15.0453 10.7237 15.155 10.6767C15.6097 10.5042 16.08 10.3945 16.3936 10.2534C16.5504 10.175 16.6758 10.1123 16.7542 10.0339C16.7855 10.0025 16.8169 9.97116 16.8326 9.9398C16.8326 9.90845 16.8483 9.90845 16.8483 9.90845C16.8483 9.90845 16.8483 9.90845 16.8483 9.95548C16.8483 9.98684 16.8169 10.0182 16.7855 10.0652C16.7228 10.1593 16.6131 10.269 16.4406 10.3631C16.2839 10.4572 16.08 10.5512 15.8762 10.6296C15.6724 10.708 15.4372 10.7864 15.2178 10.8648C15.108 10.9118 14.9983 10.9432 14.9042 11.0059C14.7945 11.0529 14.7004 11.1156 14.6063 11.1627C14.4182 11.2724 14.2614 11.4135 14.136 11.5389C14.0106 11.6644 13.9165 11.7898 13.8695 11.8682C13.8067 11.9623 13.7754 12.0093 13.7754 12.0093L13.7911 11.9936Z" fill="#15A74A"/>
<path d="M19.4039 12.5893C18.7612 12.7148 17.3972 12.7461 17.5696 11.8995C17.5696 11.8995 17.5696 11.8838 17.5696 11.8682C17.601 11.8995 17.648 11.9466 17.6794 11.9936C17.7107 12.0406 17.7421 12.1033 17.7734 12.1347C17.8362 12.1817 17.9616 12.2288 18.0243 12.2601C18.526 12.4326 18.9179 12.1974 19.3099 11.9152C19.5137 11.7584 19.7332 11.6487 19.9213 11.4605C20.1251 11.2567 20.3133 11.0529 20.5014 10.8334C20.6111 10.708 20.7052 10.5826 20.815 10.4572C20.8933 10.3788 20.9874 10.3004 21.0658 10.2063C21.1442 10.1122 21.2226 10.0495 21.301 9.98682C20.8306 10.9275 20.6268 12.3699 19.4039 12.605V12.5893Z" fill="#20B24B"/>
<path d="M21.3477 9.90846C21.3477 9.90846 21.332 9.9555 21.3163 9.97118C21.2379 10.0339 21.1595 10.1123 21.0811 10.1907C21.0027 10.2847 20.9087 10.3474 20.8303 10.4415C20.7205 10.5669 20.6108 10.6924 20.5167 10.8178C20.3286 11.0373 20.1405 11.2411 19.9366 11.4449C19.7485 11.633 19.529 11.7428 19.3252 11.8996C18.9333 12.1818 18.5413 12.4169 18.0396 12.2445C17.9612 12.2131 17.8358 12.1818 17.7888 12.119C17.7574 12.0877 17.7261 12.025 17.6947 11.9779C17.6633 11.9309 17.632 11.8996 17.585 11.8525C17.6477 11.6017 17.7417 11.3195 17.8515 11.0843C18.1023 10.5669 18.4786 10.3945 19.0273 10.2377C19.7485 10.0182 20.5951 9.87711 21.3477 9.89279V9.90846Z" fill="#3FB549"/>
<path d="M17.7579 12.3071C17.7579 12.3071 17.7735 12.2444 17.8206 12.1503C17.8676 12.0562 17.9303 11.9151 18.0401 11.774C18.1498 11.6329 18.3066 11.4762 18.4947 11.3351C18.5888 11.2723 18.6985 11.2096 18.7926 11.1469C18.9024 11.0842 19.0121 11.0372 19.1218 10.9901C19.5765 10.8177 20.0468 10.7079 20.3604 10.5668C20.5172 10.4884 20.6426 10.4257 20.721 10.3473C20.7523 10.316 20.7837 10.2846 20.7994 10.2533C20.7994 10.2219 20.8151 10.2219 20.8151 10.2219C20.8151 10.2219 20.8151 10.2219 20.8151 10.269C20.8151 10.3003 20.7837 10.3317 20.7523 10.3787C20.6896 10.4728 20.5799 10.5825 20.4074 10.6766C20.2506 10.7707 20.0468 10.8647 19.843 10.9431C19.6392 11.0215 19.404 11.0999 19.1846 11.1783C19.0748 11.2253 18.9651 11.2567 18.871 11.3194C18.7612 11.3664 18.6672 11.4291 18.5731 11.4762C18.385 11.5859 18.2282 11.727 18.1028 11.8524C17.9774 11.9778 17.8833 12.1033 17.8363 12.1817C17.7735 12.2757 17.7422 12.3228 17.7422 12.3228L17.7579 12.3071Z" fill="#15A74A"/>
<path d="M17.5231 16.5402C16.8803 16.6656 15.5163 16.6969 15.6888 15.8503C15.6888 15.8503 15.6888 15.8346 15.6888 15.819C15.7201 15.8503 15.7672 15.8974 15.7985 15.9444C15.8299 15.9914 15.8612 16.0541 15.8926 16.0855C15.9553 16.1325 16.0807 16.1796 16.1434 16.2109C16.6451 16.3834 17.0371 16.1482 17.429 15.866C17.6328 15.7092 17.8523 15.5995 18.0405 15.4113C18.2443 15.2075 18.4324 15.0037 18.6205 14.7842C18.7303 14.6588 18.8244 14.5334 18.9341 14.408C19.0125 14.3296 19.1066 14.2512 19.1849 14.1571C19.2633 14.063 19.3417 14.0003 19.4201 13.9376C18.9498 14.8783 18.746 16.3207 17.5231 16.5558V16.5402Z" fill="#20B24B"/>
<path d="M19.4668 13.8593C19.4668 13.8593 19.4511 13.9063 19.4354 13.922C19.3571 13.9847 19.2787 14.0631 19.2003 14.1415C19.1219 14.2355 19.0278 14.2983 18.9494 14.3923C18.8397 14.5177 18.7299 14.6432 18.6359 14.7686C18.4477 14.9881 18.2596 15.1919 18.0558 15.3957C17.8677 15.5838 17.6482 15.6936 17.4443 15.8504C17.0524 16.1326 16.6605 16.3677 16.1588 16.1953C16.0804 16.1639 15.9549 16.1326 15.9079 16.0699C15.8766 16.0385 15.8452 15.9758 15.8138 15.9288C15.7825 15.8817 15.7511 15.8504 15.7041 15.8033C15.7668 15.5525 15.8609 15.2703 15.9706 15.0351C16.2215 14.5177 16.5977 14.3453 17.1465 14.1885C17.8677 13.969 18.7143 13.8279 19.4668 13.8436V13.8593Z" fill="#3FB549"/>
<path d="M15.8926 16.258C15.8926 16.258 15.9083 16.1953 15.9553 16.1012C16.0024 16.0072 16.0651 15.8661 16.1748 15.725C16.2846 15.5839 16.4414 15.4271 16.6295 15.286C16.7236 15.2233 16.8333 15.1606 16.9274 15.0978C17.0371 15.0351 17.1469 14.9881 17.2566 14.9411C17.7113 14.7686 18.1816 14.6589 18.4952 14.5178C18.6519 14.4394 18.7774 14.3767 18.8558 14.2983C18.8871 14.2669 18.9185 14.2356 18.9341 14.2042C18.9341 14.1729 18.9498 14.1729 18.9498 14.1729C18.9498 14.1729 18.9498 14.1729 18.9498 14.2199C18.9498 14.2512 18.9185 14.2826 18.8871 14.3296C18.8244 14.4237 18.7147 14.5334 18.5422 14.6275C18.3854 14.7216 18.1816 14.8156 17.9778 14.894C17.774 14.9724 17.5388 15.0508 17.3193 15.1292C17.2096 15.1762 17.0998 15.2076 17.0058 15.2703C16.896 15.3173 16.802 15.3801 16.7079 15.4271C16.5197 15.5368 16.363 15.6779 16.2375 15.8034C16.1121 15.9288 16.0181 16.0542 15.971 16.1326C15.9083 16.2267 15.877 16.2737 15.877 16.2737L15.8926 16.258Z" fill="#15A74A"/>
<path d="M7.20692 10.0494C7.86539 9.98668 9.18233 9.65744 8.77471 8.88923C8.77471 8.88923 8.77471 8.87355 8.75903 8.85787C8.74335 8.9049 8.712 8.95194 8.69632 8.99897C8.68064 9.046 8.66496 9.1244 8.64929 9.17143C8.61793 9.23414 8.50818 9.31253 8.42979 9.35956C8.00649 9.65744 7.55183 9.5477 7.09717 9.39092C6.84633 9.31253 6.61116 9.24982 6.37599 9.12439C6.12514 8.98329 5.88997 8.84219 5.63913 8.68541C5.49803 8.59135 5.3726 8.49728 5.2315 8.40321C5.13744 8.3405 5.01201 8.29347 4.91794 8.23075C4.82388 8.16804 4.72981 8.12101 4.63574 8.07397C5.34125 8.85787 5.95269 10.1748 7.19124 10.0651L7.20692 10.0494Z" fill="#20B24B"/>
<path d="M4.60449 8.01131C4.60449 8.01131 4.63585 8.04267 4.65153 8.07402C4.74559 8.12106 4.83966 8.16809 4.93373 8.2308C5.0278 8.29351 5.15322 8.34055 5.24729 8.40326C5.38839 8.48165 5.51381 8.59139 5.65491 8.68546C5.89008 8.85792 6.12525 8.98334 6.39177 9.12444C6.62694 9.24987 6.86211 9.31258 7.11296 9.39097C7.56761 9.54775 8.0066 9.65749 8.44558 9.35961C8.50829 9.31258 8.61803 9.24987 8.66507 9.17148C8.69642 9.12444 8.69642 9.06173 8.7121 8.99902C8.72778 8.95199 8.75914 8.90495 8.77481 8.85792C8.64939 8.62275 8.47693 8.38758 8.30448 8.18377C7.92821 7.76047 7.5049 7.69775 6.9405 7.69775C6.18796 7.69775 5.34135 7.79182 4.62017 7.99563L4.60449 8.01131Z" fill="#3FB549"/>
<path d="M8.7122 9.32832C8.7122 9.32832 8.68085 9.28129 8.60246 9.2029C8.53975 9.12451 8.43 9.01477 8.27322 8.90502C8.13212 8.79528 7.92831 8.68553 7.70882 8.60714C7.59907 8.57578 7.48933 8.54443 7.3639 8.51307C7.25416 8.48172 7.12874 8.46604 7.00331 8.46604C6.5173 8.43468 6.04696 8.45036 5.68637 8.38765C5.51391 8.35629 5.37281 8.32494 5.27874 8.2779C5.23171 8.24655 5.20035 8.23087 5.18468 8.21519C5.169 8.19952 5.15332 8.18384 5.15332 8.18384C5.15332 8.18384 5.15332 8.18384 5.18468 8.21519C5.20035 8.23087 5.23171 8.27791 5.27874 8.30926C5.35713 8.37197 5.49823 8.45036 5.68637 8.4974C5.85883 8.54443 6.07832 8.57579 6.29781 8.59146C6.5173 8.60714 6.75247 8.62282 7.00331 8.6385C7.12874 8.6385 7.23848 8.65417 7.34823 8.68553C7.45797 8.70121 7.56772 8.73256 7.67746 8.76392C7.88128 8.82663 8.06941 8.90502 8.22619 8.99909C8.38297 9.09316 8.49271 9.17155 8.58678 9.23426C8.66517 9.29697 8.7122 9.344 8.7122 9.344V9.32832Z" fill="#15A74A"/>
<path d="M10.7352 13.4517C11.3937 13.389 12.7107 13.0598 12.303 12.2916C12.303 12.2916 12.303 12.2759 12.2873 12.2602C12.2717 12.3072 12.2403 12.3543 12.2246 12.4013C12.209 12.4483 12.1933 12.5267 12.1776 12.5738C12.1462 12.6365 12.0365 12.7149 11.9581 12.7619C11.5348 13.0598 11.0802 12.95 10.6255 12.7933C10.3746 12.7149 10.1395 12.6522 9.90431 12.5267C9.65346 12.3856 9.41829 12.2445 9.16745 12.0878C9.02635 11.9937 8.90092 11.8996 8.75982 11.8056C8.66576 11.7428 8.54033 11.6958 8.44627 11.6331C8.3522 11.5704 8.25813 11.5234 8.16406 11.4763C8.86957 12.2602 9.481 13.5772 10.7196 13.4674L10.7352 13.4517Z" fill="#20B24B"/>
<path d="M8.13184 11.3979C8.13184 11.3979 8.16319 11.4293 8.17887 11.4606C8.27294 11.5077 8.367 11.5547 8.46107 11.6174C8.55514 11.6801 8.68056 11.7271 8.77463 11.7899C8.91573 11.8682 9.04115 11.978 9.18225 12.0721C9.41742 12.2445 9.65259 12.3699 9.91912 12.511C10.1543 12.6365 10.3895 12.6992 10.6403 12.7776C11.095 12.9343 11.5339 13.0441 11.9729 12.7462C12.0356 12.6992 12.1454 12.6365 12.1924 12.5581C12.2238 12.511 12.2238 12.4483 12.2394 12.3856C12.2551 12.3386 12.2865 12.2916 12.3022 12.2445C12.1767 12.0093 12.0043 11.7742 11.8318 11.5704C11.4555 11.1471 11.0322 11.0844 10.4678 11.0844C9.7153 11.0844 8.8687 11.1784 8.14751 11.3822L8.13184 11.3979Z" fill="#3FB549"/>
<path d="M12.2239 12.7148C12.2239 12.7148 12.1926 12.6678 12.1142 12.5894C12.0515 12.511 11.9417 12.4012 11.7849 12.2915C11.6438 12.1818 11.44 12.072 11.2205 11.9936C11.1108 11.9623 11.001 11.9309 10.8756 11.8995C10.7659 11.8682 10.6405 11.8525 10.515 11.8525C10.029 11.8212 9.55868 11.8368 9.19809 11.7741C9.02563 11.7428 8.88453 11.7114 8.79046 11.6644C8.74343 11.633 8.71207 11.6173 8.6964 11.6017C8.68072 11.586 8.66504 11.5703 8.66504 11.5703C8.66504 11.5703 8.66504 11.5703 8.6964 11.6017C8.71207 11.6173 8.74343 11.6644 8.79046 11.6957C8.86885 11.7584 9.00995 11.8368 9.19809 11.8839C9.37054 11.9309 9.59003 11.9623 9.80953 11.9779C10.029 11.9936 10.2642 12.0093 10.515 12.025C10.6405 12.025 10.7502 12.0406 10.8599 12.072C10.9697 12.0877 11.0794 12.119 11.1892 12.1504C11.393 12.2131 11.5811 12.2915 11.7379 12.3856C11.8947 12.4796 12.0044 12.558 12.0985 12.6207C12.1769 12.6834 12.2239 12.7305 12.2239 12.7305V12.7148Z" fill="#15A74A"/>
<path d="M21.8173 37.5172C21.7232 37.5015 21.6448 37.4231 21.5508 37.3761C21.7703 37.1879 22.2249 37.1096 22.3347 37.329C22.3033 37.4231 22.2563 37.4858 22.1152 37.5172C22.0211 37.5329 21.9114 37.5329 21.8173 37.5172Z" fill="#84451E"/>
<path d="M22.3353 37.5799C22.2098 38.0502 21.3476 37.7053 21.5043 37.4388C21.5043 37.4388 21.5357 37.4074 21.5514 37.3918C21.6454 37.4388 21.7238 37.5015 21.8179 37.5329C21.912 37.5485 22.0217 37.5485 22.1158 37.5329C22.2569 37.5015 22.3039 37.4388 22.3353 37.3447C22.3666 37.4074 22.3666 37.4858 22.3353 37.5799Z" fill="#753B19"/>
<path d="M18.667 39.2888C18.7141 39.0537 19.3412 39.0694 19.545 39.0223C20.1878 38.8342 21.0031 38.1287 21.6772 38.5206C21.9437 38.5677 22.0221 38.6147 22.1319 38.6931C22.0064 38.7715 21.881 38.8655 21.7399 38.9126C21.4577 39.0223 21.1755 39.1164 20.8933 39.2418C20.5327 39.3829 20.1094 39.4456 19.7331 39.4456C19.4509 39.4456 19.1217 39.477 18.8395 39.3986C18.7768 39.3829 18.6984 39.3516 18.6514 39.3045L18.667 39.2888Z" fill="#944F22"/>
<path d="M22.4141 38.8343C22.3357 39.3203 21.5204 39.3046 21.1128 39.3987C20.6111 39.5241 20.2662 39.7593 19.7175 39.7122C19.498 39.6966 18.6984 39.6182 18.6514 39.336C18.6514 39.3203 18.6514 39.3046 18.6514 39.2889C18.6984 39.336 18.7768 39.3673 18.8395 39.383C19.1217 39.4614 19.4509 39.4457 19.7331 39.43C20.1094 39.43 20.5327 39.3673 20.8933 39.2262C21.1755 39.1008 21.4577 39.0067 21.7399 38.897C21.881 38.8499 22.0064 38.7559 22.1319 38.6775C22.1946 38.7245 22.273 38.7716 22.4141 38.8499V38.8343Z" fill="#753B19"/>
<path d="M5.02734 38.2227C5.15277 38.0189 5.73285 38.2541 5.93666 38.2697C6.61081 38.3324 7.6142 37.9405 8.11589 38.5519C8.35106 38.693 8.39809 38.7557 8.49216 38.8655C8.35106 38.8968 8.20996 38.9282 8.05318 38.9282C7.7553 38.9282 7.45742 38.9282 7.14386 38.9282C6.76759 38.9282 6.34429 38.8341 5.9837 38.7244C5.71717 38.6303 5.38794 38.5363 5.16845 38.3638C5.10573 38.3168 5.0587 38.2697 5.02734 38.207V38.2227Z" fill="#944F22"/>
<path d="M8.69589 39.1321C8.44505 39.5711 7.69251 39.2418 7.28488 39.1948C6.76751 39.1321 6.35989 39.2418 5.87387 38.991C5.68574 38.8969 4.94888 38.5363 5.01159 38.2698C5.01159 38.2541 5.01159 38.2385 5.02727 38.2228C5.05862 38.2855 5.12133 38.3325 5.16837 38.3796C5.40354 38.552 5.71709 38.6461 5.98362 38.7401C6.34421 38.8656 6.75183 38.9596 7.14378 38.944C7.45734 38.944 7.73954 38.944 8.0531 38.944C8.20988 38.944 8.35098 38.9126 8.49208 38.8813C8.53911 38.944 8.58615 39.0224 8.69589 39.1321Z" fill="#753B19"/>
<path d="M13.1943 39.6337C13.1003 39.665 12.724 39.6494 12.6143 39.5553C12.677 39.4142 12.8024 39.2574 12.9121 39.1947C13.0219 39.1947 13.1473 39.2261 13.2414 39.2731C13.2884 39.3985 13.3511 39.5866 13.1787 39.6337H13.1943Z" fill="#944F22"/>
<path d="M12.6148 39.5554C12.7245 39.6651 13.1008 39.6651 13.1948 39.6338C13.3516 39.5711 13.2889 39.3829 13.2575 39.2732C13.6025 39.43 13.7906 39.7906 13.2105 39.9473C12.552 40.1198 12.505 39.8376 12.6304 39.5554H12.6148Z" fill="#753B19"/>
<path d="M9.08861 37.0783C8.99454 37.0783 8.64963 36.9215 8.58691 36.7804C8.71234 36.6707 8.86912 36.5766 8.99454 36.5609C9.10428 36.6079 9.19835 36.6863 9.27674 36.7647C9.27674 36.8901 9.26106 37.094 9.08861 37.0783Z" fill="#944F22"/>
<path d="M8.60218 36.7647C8.6649 36.9058 9.00981 37.0626 9.10388 37.0626C9.27634 37.0626 9.29201 36.8744 9.29201 36.749C9.54286 37.0312 9.58989 37.4389 8.99413 37.3448C8.31998 37.2507 8.38269 36.9685 8.60218 36.7647Z" fill="#753B19"/>
<path d="M3.60033 35.4948C3.50626 35.4948 3.16134 35.338 3.09863 35.1969C3.22406 35.0872 3.38083 34.9931 3.50626 34.9774C3.616 35.0245 3.71007 35.1028 3.78846 35.1812C3.78846 35.3067 3.77278 35.5105 3.60033 35.4948Z" fill="#944F22"/>
<path d="M3.09828 35.197C3.16099 35.3381 3.5059 35.4948 3.59997 35.4948C3.77243 35.4948 3.78811 35.3067 3.78811 35.1813C4.03895 35.4635 4.08599 35.8711 3.49023 35.777C2.81608 35.683 2.87879 35.4008 3.09828 35.197Z" fill="#753B19"/>
<path d="M2.18919 33.1117C2.09513 33.1117 1.75021 32.955 1.6875 32.8138C1.81292 32.7041 1.9697 32.61 2.09513 32.5944C2.20487 32.6414 2.29894 32.7198 2.37733 32.7982C2.37733 32.9236 2.36165 33.1274 2.18919 33.1117Z" fill="#944F22"/>
<path d="M1.68715 32.7981C1.74986 32.9392 2.09477 33.096 2.18884 33.096C2.3613 33.096 2.37697 32.9079 2.37697 32.7825C2.62782 33.0647 2.67485 33.4723 2.07909 33.3782C1.40494 33.2842 1.46765 33.002 1.68715 32.7981Z" fill="#753B19"/>
<path d="M0.653059 34.3503C0.558992 34.3503 0.214079 34.1935 0.151367 34.0524C0.27679 33.9426 0.433568 33.8486 0.558991 33.8329C0.668737 33.8799 0.762805 33.9583 0.841194 34.0367C0.841194 34.1621 0.825516 34.3659 0.653059 34.3503Z" fill="#944F22"/>
<path d="M0.151013 34.0524C0.213724 34.1935 0.558637 34.3503 0.652705 34.3503C0.825162 34.3503 0.840839 34.1622 0.840839 34.0367C1.09169 34.3189 1.13872 34.7266 0.54296 34.6325C-0.13119 34.5384 -0.068478 34.2562 0.151013 34.0524Z" fill="#753B19"/>
<path d="M25.3611 36.3571C25.267 36.3571 24.9221 36.2003 24.8594 36.0592C24.9848 35.9495 25.1416 35.8554 25.267 35.8397C25.3767 35.8868 25.4708 35.9651 25.5492 36.0435C25.5492 36.169 25.5335 36.3728 25.3611 36.3571Z" fill="#944F22"/>
<path d="M24.86 36.0593C24.9227 36.2004 25.2676 36.3571 25.3617 36.3571C25.5341 36.3571 25.5498 36.169 25.5498 36.0436C25.8007 36.3258 25.8477 36.7334 25.2519 36.6393C24.5778 36.5453 24.6405 36.2631 24.86 36.0593Z" fill="#753B19"/>
<path d="M10.0441 38.0032C10.3734 38.0816 11.0632 38.3168 11.1572 38.6303C10.9848 38.6617 10.7967 38.6303 10.6085 38.6303C10.295 38.6303 10.0284 38.5206 9.74624 38.4108C9.44836 38.3011 9.19751 38.1286 8.86827 38.0659C8.69582 38.0346 8.42929 38.0346 8.25684 37.9248C8.61743 37.5956 9.74624 37.8464 10.0441 37.9719V38.0032Z" fill="#84451E"/>
<path d="M9.80934 38.646C9.32332 38.3951 8.72756 38.3011 8.16316 38.254C8.14748 38.1129 8.19452 38.0032 8.27291 37.9248C8.42968 38.0345 8.71189 38.0346 8.88434 38.0659C9.21358 38.1286 9.44875 38.2854 9.76231 38.4108C10.0445 38.5206 10.311 38.6303 10.6246 38.6303C10.8127 38.6303 11.0009 38.6773 11.1733 38.6303C11.1733 38.6773 11.1733 38.7087 11.1733 38.7557C10.9068 38.7557 10.6559 38.9125 10.3894 38.8968C10.1386 38.8812 10.0288 38.7401 9.82502 38.646H9.80934Z" fill="#753B19"/>
<path d="M6.25017 36.1376C6.57941 36.2473 7.26923 36.5766 7.3633 36.9999C7.19084 37.0469 7.00271 36.9999 6.81458 36.9999C6.50102 36.9999 6.23449 36.8588 5.95229 36.702C5.65441 36.5452 5.40356 36.3257 5.07433 36.2473C4.90187 36.2003 4.63535 36.2003 4.46289 36.0435C4.82348 35.5889 5.95229 35.9338 6.25017 36.1219V36.1533V36.1376Z" fill="#84451E"/>
<path d="M6.01442 37.0155C5.5284 36.6706 4.93264 36.5295 4.36824 36.4824C4.35256 36.2786 4.39959 36.1375 4.47798 36.0435C4.63476 36.2002 4.91696 36.2002 5.08942 36.2473C5.41866 36.3257 5.65383 36.5451 5.96738 36.7019C6.24959 36.8587 6.51611 36.9998 6.82967 36.9998C7.0178 36.9998 7.20594 37.0625 7.3784 36.9998C7.3784 37.0625 7.3784 37.1096 7.3784 37.1723C7.11187 37.1723 6.86102 37.3918 6.5945 37.3604C6.34365 37.329 6.23391 37.1566 6.0301 37.0155H6.01442Z" fill="#753B19"/>
</svg>
