<svg width="53" height="50" viewBox="0 0 53 50" fill="none" xmlns="http://www.w3.org/2000/svg">
<path fill-rule="evenodd" clip-rule="evenodd" d="M44.0701 28.5055H8.36864C8.03827 28.5055 7.75195 28.2189 7.75195 27.8882V12.1915C7.75195 11.8608 8.03827 11.5742 8.36864 11.5742H44.0701C44.4004 11.5742 44.6867 11.8608 44.6867 12.1915V27.8882C44.6867 28.2189 44.4004 28.5055 44.0701 28.5055ZM8.98532 27.2929H43.4754V12.8308H8.98532V27.2929Z" fill="#153860"/>
<path fill-rule="evenodd" clip-rule="evenodd" d="M39.2467 28.5059H13.1919C12.8615 28.5059 12.5752 28.2194 12.5752 27.8887V12.192C12.5752 11.8613 12.8615 11.5747 13.1919 11.5747H39.2467C39.577 11.5747 39.8633 11.8613 39.8633 12.192V27.8887C39.8633 28.2194 39.577 28.5059 39.2467 28.5059ZM13.7865 27.2934H38.63V12.8313H13.7865V27.2934Z" fill="#153860"/>
<path fill-rule="evenodd" clip-rule="evenodd" d="M26.23 28.5055C25.8996 28.5055 25.6133 28.2189 25.6133 27.8882V12.1915C25.6133 11.8608 25.8996 11.5742 26.23 11.5742C26.5603 11.5742 26.8466 11.8608 26.8466 12.1915V27.8882C26.8466 28.2189 26.5603 28.5055 26.23 28.5055Z" fill="#153860"/>
<path fill-rule="evenodd" clip-rule="evenodd" d="M47.176 38.0735H5.24168C4.91132 38.0735 4.625 37.7869 4.625 37.4562V31.0188C4.625 28.9685 6.29885 27.271 8.36914 27.271H44.0706C46.1188 27.271 47.7707 28.9465 47.7707 31.0188V37.4562C47.7707 37.7869 47.4843 38.0735 47.154 38.0735H47.176ZM5.85836 36.8389H46.5593V31.0188C46.5593 29.6299 45.4581 28.5056 44.0706 28.5056H8.36914C6.9816 28.5056 5.85836 29.6299 5.85836 31.0188V36.8389Z" fill="#153860"/>
<path fill-rule="evenodd" clip-rule="evenodd" d="M49.2894 43.0338H3.12645C2.79608 43.0338 2.50977 42.7472 2.50977 42.4165V37.4562C2.50977 37.1255 2.79608 36.8389 3.12645 36.8389H49.2674C49.5978 36.8389 49.8841 37.1255 49.8841 37.4562V42.4165C49.8841 42.7472 49.5978 43.0338 49.2674 43.0338H49.2894ZM3.74313 41.8212H48.6728V38.0734H3.74313V41.8212Z" fill="#153860"/>
<path fill-rule="evenodd" clip-rule="evenodd" d="M44.0701 12.8087H8.36864C8.03827 12.8087 7.75195 12.5221 7.75195 12.1914V7.7822C7.75195 2.38096 17.0022 0 26.2083 0C35.4145 0 44.6647 2.38096 44.6647 7.7822V12.1914C44.6647 12.5221 44.3784 12.8087 44.048 12.8087H44.0701ZM8.98532 11.5961H43.4754V7.80424C43.4754 3.48325 34.7758 1.23457 26.2304 1.23457C17.6849 1.23457 8.98532 3.4612 8.98532 7.80424V11.5961Z" fill="#153860"/>
<path fill-rule="evenodd" clip-rule="evenodd" d="M11.8273 36.2881C9.84508 36.2881 8.2373 34.6567 8.2373 32.6726C8.2373 30.6884 9.82306 29.0791 11.8273 29.0791C13.8315 29.0791 15.4172 30.7105 15.4172 32.6726C15.4172 34.6347 13.8315 36.2881 11.8273 36.2881ZM11.8273 30.3137C10.5058 30.3137 9.47067 31.3939 9.47067 32.6726C9.47067 33.9512 10.5058 35.0535 11.8273 35.0535C13.1487 35.0535 14.1839 33.9733 14.1839 32.6726C14.1839 31.3719 13.1047 30.3137 11.8273 30.3137Z" fill="#153860"/>
<path fill-rule="evenodd" clip-rule="evenodd" d="M40.5909 36.2881C38.6308 36.2881 37.001 34.6567 37.001 32.6726C37.001 30.6884 38.6308 29.0791 40.5909 29.0791C42.5511 29.0791 44.2029 30.7105 44.2029 32.6726C44.1809 34.6567 42.5731 36.2881 40.5909 36.2881ZM40.5909 30.3137C39.3135 30.3137 38.2343 31.3939 38.2343 32.6726C38.2343 33.9512 39.3135 35.0535 40.5909 35.0535C41.8684 35.0535 42.9475 33.9733 42.9475 32.6726C42.9475 31.3719 41.9124 30.3137 40.5909 30.3137Z" fill="#153860"/>
<path fill-rule="evenodd" clip-rule="evenodd" d="M32.8155 31.3273H19.645C19.3146 31.3273 19.0283 31.0407 19.0283 30.7101C19.0283 30.3794 19.3146 30.0928 19.645 30.0928H32.8155C33.1459 30.0928 33.4322 30.3794 33.4322 30.7101C33.4322 31.0407 33.1459 31.3273 32.8155 31.3273Z" fill="#153860"/>
<path fill-rule="evenodd" clip-rule="evenodd" d="M32.8155 33.2893H19.645C19.3146 33.2893 19.0283 33.0027 19.0283 32.672C19.0283 32.3413 19.3146 32.0547 19.645 32.0547H32.8155C33.1459 32.0547 33.4322 32.3413 33.4322 32.672C33.4322 33.0027 33.1459 33.2893 32.8155 33.2893Z" fill="#153860"/>
<path fill-rule="evenodd" clip-rule="evenodd" d="M32.8155 35.2956H19.645C19.3146 35.2956 19.0283 35.009 19.0283 34.6783C19.0283 34.3476 19.3146 34.061 19.645 34.061H32.8155C33.1459 34.061 33.4322 34.3476 33.4322 34.6783C33.4322 35.009 33.1459 35.2956 32.8155 35.2956Z" fill="#153860"/>
<path fill-rule="evenodd" clip-rule="evenodd" d="M12.0471 50.0004H11.012C8.78754 50.0004 6.9375 48.1706 6.9375 45.9219V42.4166C6.9375 42.0859 7.22382 41.7993 7.55418 41.7993H15.505C15.8353 41.7993 16.1216 42.0859 16.1216 42.4166V45.9219C16.1216 48.1485 14.2936 50.0004 12.0471 50.0004ZM8.14884 43.0339V45.9219C8.14884 47.4872 9.42625 48.7658 10.99 48.7658H12.0251C13.5888 48.7658 14.8663 47.4872 14.8663 45.9219V43.0339H8.12681H8.14884Z" fill="#153860"/>
<path fill-rule="evenodd" clip-rule="evenodd" d="M41.4055 50.0004H40.3924C38.1239 50.0004 36.2959 48.1706 36.2959 45.9219V42.4166C36.2959 42.0859 36.5822 41.7993 36.9126 41.7993H44.8634C45.2378 41.7993 45.48 42.0859 45.48 42.4166V45.9219C45.5021 48.1485 43.674 50.0004 41.4055 50.0004ZM37.5293 43.0339V45.9219C37.5293 47.4872 38.8067 48.7658 40.4144 48.7658H41.4276C43.0133 48.7658 44.3128 47.4872 44.3128 45.9219V43.0339H37.5513H37.5293Z" fill="#153860"/>
<path fill-rule="evenodd" clip-rule="evenodd" d="M15.4165 8.70874C14.1611 8.70874 13.126 7.67258 13.126 6.41597C13.126 5.15935 14.1611 4.0791 15.4165 4.0791C16.6719 4.0791 17.7511 5.11526 17.7511 6.41597C17.7511 7.71667 16.7159 8.70874 15.4165 8.70874ZM15.4165 5.31367C14.8439 5.31367 14.3373 5.79868 14.3373 6.41597C14.3373 7.03325 14.8218 7.49621 15.4165 7.49621C16.0332 7.49621 16.5177 7.0112 16.5177 6.41597C16.5177 5.79868 16.0332 5.31367 15.4165 5.31367Z" fill="#153860"/>
<path fill-rule="evenodd" clip-rule="evenodd" d="M37.0006 8.70825C35.7232 8.70825 34.666 7.67209 34.666 6.41548C34.666 5.15886 35.7012 4.07861 37.0006 4.07861C38.3 4.07861 39.2911 5.11477 39.2911 6.41548C39.2911 7.71618 38.256 8.70825 37.0006 8.70825ZM37.0006 5.31318C36.3839 5.31318 35.8994 5.79819 35.8994 6.41548C35.8994 7.03276 36.3839 7.49573 37.0006 7.49573C37.6173 7.49573 38.0798 7.01072 38.0798 6.41548C38.0798 5.79819 37.5952 5.31318 37.0006 5.31318Z" fill="#153860"/>
<path fill-rule="evenodd" clip-rule="evenodd" d="M31.1858 8.00288H21.2749C20.9445 8.00288 20.6582 7.71628 20.6582 7.38559V5.40146C20.6582 5.07078 20.9445 4.78418 21.2749 4.78418H31.1858C31.5162 4.78418 31.8025 5.07078 31.8025 5.40146V7.38559C31.8025 7.71628 31.5162 8.00288 31.1858 8.00288ZM21.8695 6.76831H30.5691V5.9967H21.8695V6.76831Z" fill="#153860"/>
<path fill-rule="evenodd" clip-rule="evenodd" d="M22.1121 22.8617C21.9579 22.8617 21.8037 22.7955 21.6936 22.6853L16.8262 17.8132C16.584 17.5706 16.584 17.1959 16.8262 16.9534C17.0685 16.7109 17.4649 16.7109 17.6852 16.9534L22.5746 21.8255C22.7948 22.068 22.7948 22.4648 22.5746 22.6853C22.4424 22.8176 22.2883 22.8617 22.1121 22.8617Z" fill="#153860"/>
<path fill-rule="evenodd" clip-rule="evenodd" d="M35.1726 22.8617C35.0184 22.8617 34.8643 22.7955 34.7542 22.6853L29.8868 17.8132C29.6445 17.5706 29.6445 17.1959 29.8868 16.9534C30.107 16.7109 30.5035 16.7109 30.7457 16.9534L35.6131 21.8255C35.8554 22.068 35.8554 22.4648 35.6131 22.6853C35.481 22.8176 35.3268 22.8617 35.1946 22.8617H35.1726Z" fill="#153860"/>
<path fill-rule="evenodd" clip-rule="evenodd" d="M44.0709 28.5057C43.9167 28.5057 43.7405 28.4837 43.6524 28.3514C43.4101 28.1089 43.4101 27.7121 43.6524 27.4696L46.868 24.2288C47.1102 24.0084 47.5067 24.0084 47.7489 24.2288C47.9912 24.4713 47.9912 24.8682 47.7489 25.1107L44.5114 28.3514C44.3792 28.4837 44.225 28.5057 44.0929 28.5057H44.0709Z" fill="#153860"/>
<path fill-rule="evenodd" clip-rule="evenodd" d="M49.07 25.9706C47.2861 25.9706 45.8545 24.5376 45.8545 22.7519C45.8545 20.9662 47.2861 19.5332 49.07 19.5332C50.854 19.5332 52.2856 20.9662 52.2856 22.7519C52.2856 24.5376 50.854 25.9706 49.07 25.9706ZM49.07 20.7457C47.9688 20.7457 47.0879 21.6276 47.0879 22.7299C47.0879 23.8322 47.9688 24.714 49.07 24.714C50.1713 24.714 51.0522 23.8322 51.0522 22.7299C51.0522 21.6276 50.1713 20.7457 49.07 20.7457Z" fill="#153860"/>
<path fill-rule="evenodd" clip-rule="evenodd" d="M8.21469 28.5057C8.06052 28.5057 7.90635 28.4837 7.79623 28.3514L4.55865 25.1107C4.31639 24.8682 4.31639 24.4713 4.55865 24.2288C4.80092 24.0084 5.17534 24.0084 5.4176 24.2288L8.65518 27.4696C8.89745 27.7121 8.89745 28.1089 8.65518 28.3514C8.52303 28.4837 8.36886 28.5057 8.23672 28.5057H8.21469Z" fill="#153860"/>
<path fill-rule="evenodd" clip-rule="evenodd" d="M3.21555 25.9706C1.43158 25.9706 0 24.5376 0 22.7519C0 20.9662 1.43158 19.5332 3.21555 19.5332C4.99952 19.5332 6.40908 20.9662 6.40908 22.7519C6.40908 24.5376 4.9775 25.9706 3.21555 25.9706ZM3.21555 20.7457C2.11434 20.7457 1.23336 21.6276 1.23336 22.7299C1.23336 23.8322 2.11434 24.714 3.21555 24.714C4.31677 24.714 5.17571 23.8322 5.17571 22.7299C5.17571 21.6276 4.29474 20.7457 3.21555 20.7457Z" fill="#153860"/>
</svg>
