<svg width="24" height="40" viewBox="0 0 24 40" fill="none" xmlns="http://www.w3.org/2000/svg">
<path d="M14.3824 39.7648L14.2883 37.6317L14.0844 32.8949L13.6923 23.4056L12.9394 4.4114C12.9081 3.81538 12.4375 3.32915 11.8415 3.29778C11.1984 3.26641 10.6652 3.76832 10.6338 4.39571L9.78681 23.3899L9.37901 32.8949L9.1751 37.6474L9.09668 39.7648H14.4138H14.3824Z" fill="#40344E"/>
<path d="M23.433 37.02C23.433 39.5296 18.1943 40.0001 11.7165 40.0001C5.2387 40.0001 0 39.5296 0 37.02C0 34.5105 5.2387 33.491 11.7165 33.491C18.1943 33.491 23.433 34.5105 23.433 37.02Z" fill="#555B95"/>
<path d="M22.1468 31.8596C22.1468 34.3692 17.4728 34.8397 11.7165 34.8397C5.96019 34.8397 1.28613 34.3692 1.28613 31.8596C1.28613 29.3501 5.96019 28.3306 11.7165 28.3306C17.4728 28.3306 22.1468 29.3501 22.1468 31.8596Z" fill="#F6A6C4"/>
<path d="M20.6411 25.8993C20.6411 28.2991 16.6572 28.7383 11.7322 28.7383C6.80717 28.7383 2.82324 28.2991 2.82324 25.8993C2.82324 23.4996 6.80717 22.5271 11.7322 22.5271C16.6572 22.5271 20.6411 23.4996 20.6411 25.8993Z" fill="#868533"/>
<path d="M19.2291 20.7861C19.2291 23.0918 15.8569 23.5153 11.7161 23.5153C7.57534 23.5153 4.20312 23.0918 4.20312 20.7861C4.20312 18.4805 7.57534 17.5551 11.7161 17.5551C15.8569 17.5551 19.2291 18.4805 19.2291 20.7861Z" fill="#FAA42F"/>
<path d="M18.4143 16.0338C18.4143 17.9787 15.4185 18.3394 11.7169 18.3394C8.01532 18.3394 5.01953 17.9787 5.01953 16.0338C5.01953 14.0889 8.01532 13.2889 11.7169 13.2889C15.4185 13.2889 18.4143 14.0732 18.4143 16.0338Z" fill="#E96753"/>
<path d="M8.28127 16.3317C8.20285 16.269 8.09305 16.269 7.99894 16.2533C7.90483 16.2533 7.79504 16.2376 7.70094 16.2219C7.49703 16.1905 7.27745 16.1592 7.07355 16.0964C6.86964 16.0494 6.68143 15.9866 6.49321 15.9082C6.32068 15.8455 6.16383 15.7357 6.00698 15.6416C5.92856 15.5945 5.81877 15.7043 5.86582 15.7827C5.95993 15.971 6.14815 16.0651 6.32068 16.1435C6.52458 16.2376 6.74416 16.3003 6.96375 16.3631C7.18334 16.4258 7.40292 16.4729 7.62251 16.5042C7.7323 16.5199 7.8421 16.5356 7.95189 16.5356C8.06168 16.5356 8.17148 16.5513 8.28127 16.4886C8.32832 16.4572 8.32832 16.3631 8.28127 16.3317Z" fill="white"/>
<path d="M9.70874 16.4102C9.70874 16.4102 9.646 16.3945 9.63032 16.3788H9.59895C9.59895 16.3788 9.56758 16.3788 9.5519 16.3788C9.48916 16.3788 9.4421 16.3788 9.37936 16.3788C9.36368 16.3788 9.33231 16.3788 9.31662 16.3788C9.31662 16.3788 9.30094 16.3788 9.28526 16.3788H9.26957C9.20683 16.3788 9.12841 16.3788 9.06567 16.3945C9.0343 16.4102 9.00293 16.4415 9.00293 16.4729C9.00293 16.5043 9.00293 16.5513 9.0343 16.567C9.08135 16.6141 9.15978 16.6297 9.22252 16.6297C9.28525 16.6297 9.33231 16.6297 9.39505 16.6297C9.45779 16.6297 9.52052 16.6297 9.58326 16.6297C9.61463 16.6297 9.646 16.6297 9.67737 16.5984C9.70874 16.5984 9.74011 16.5827 9.7558 16.567C9.81854 16.5199 9.78717 16.4572 9.74011 16.4258L9.70874 16.4102Z" fill="white"/>
<path d="M8.15538 22.0724C8.04559 21.9783 7.90443 21.9626 7.76326 21.9313C7.6221 21.8999 7.46526 21.8842 7.32409 21.8528C7.04177 21.7901 6.75944 21.7274 6.47711 21.6646C6.19479 21.5862 5.92815 21.5078 5.64582 21.4294C5.42624 21.3509 5.23802 21.2411 5.01843 21.147C4.94001 21.1157 4.87727 21.1941 4.90864 21.2568C4.97138 21.5078 5.23802 21.6019 5.47329 21.6803C5.75562 21.7744 6.05363 21.8528 6.33595 21.9313C6.63396 22.0097 6.93197 22.0881 7.22998 22.1352C7.37114 22.1665 7.51231 22.1979 7.66916 22.2136C7.81032 22.245 7.98285 22.2763 8.12401 22.2136C8.18675 22.1822 8.20244 22.1038 8.15538 22.0567V22.0724Z" fill="white"/>
<path d="M11.01 22.1823C10.9159 22.1039 10.759 22.1352 10.6492 22.1352C10.5238 22.1352 10.3983 22.1352 10.2728 22.1352C10.1473 22.1352 10.0375 22.1352 9.91206 22.1352C9.80227 22.1352 9.62974 22.1039 9.55131 22.198C9.51994 22.2293 9.53563 22.2764 9.55131 22.3078C9.61405 22.4019 9.80227 22.4019 9.91206 22.4019C10.0375 22.4019 10.163 22.4019 10.2885 22.4019C10.414 22.4019 10.5238 22.4019 10.6492 22.4019C10.759 22.4019 10.9473 22.4019 11.0257 22.3078C11.057 22.2607 11.057 22.198 11.0257 22.1666L11.01 22.1823Z" fill="white"/>
<path d="M16.1239 21.8998C16.1239 21.8998 16.0455 21.8684 15.9984 21.8684C15.9671 21.8684 15.92 21.8684 15.8886 21.8684C15.8102 21.8684 15.7318 21.8998 15.6691 21.8998C15.5906 21.8998 15.5279 21.9311 15.4495 21.9468C15.3711 21.9625 15.2769 21.9782 15.2142 22.0253C15.1672 22.0723 15.1672 22.1507 15.2299 22.1821C15.3083 22.2135 15.3867 22.1821 15.4652 22.1821C15.5436 22.1821 15.622 22.1507 15.7004 22.1507C15.7789 22.1507 15.8573 22.1194 15.9357 22.1037C15.9828 22.1037 16.0141 22.0723 16.0455 22.0566C16.0926 22.0409 16.1239 22.0096 16.1396 21.9782C16.1396 21.9468 16.1396 21.9155 16.1239 21.8998Z" fill="white"/>
<path d="M7.13633 26.4171C7.02654 26.3387 6.86969 26.3387 6.7599 26.3387C6.61873 26.3387 6.47757 26.3073 6.35209 26.2916C6.06977 26.2603 5.80313 26.2132 5.53649 26.1348C5.26985 26.072 5.00321 25.9936 4.73657 25.8995C4.61109 25.8525 4.48561 25.8054 4.36013 25.7584C4.23465 25.7113 4.09349 25.6329 3.95233 25.6172C3.84253 25.6172 3.79548 25.727 3.8739 25.8054C3.96801 25.8995 4.10917 25.9623 4.25034 26.025C4.3915 26.0877 4.51698 26.1348 4.65814 26.1818C4.92478 26.2759 5.20711 26.3701 5.47375 26.4328C5.75607 26.4955 6.0384 26.5583 6.32072 26.5896C6.46189 26.6053 6.61873 26.621 6.7599 26.621C6.88538 26.621 7.05791 26.6367 7.1677 26.574C7.21475 26.5426 7.21475 26.4485 7.1677 26.4171H7.13633Z" fill="white"/>
<path d="M8.79958 26.4954C8.79958 26.4954 8.75253 26.464 8.73684 26.464C8.73684 26.464 8.73684 26.464 8.70547 26.464C8.6741 26.464 8.64273 26.464 8.61136 26.464C8.56431 26.464 8.50157 26.464 8.45451 26.464C8.42315 26.464 8.40746 26.464 8.37609 26.464C8.42315 26.464 8.34472 26.464 8.32904 26.464C8.32904 26.464 8.31335 26.464 8.29767 26.464C8.23493 26.464 8.18787 26.464 8.12513 26.4797C8.06239 26.511 8.04671 26.6052 8.09377 26.6522C8.18787 26.7306 8.32904 26.7306 8.45451 26.7306C8.50157 26.7306 8.56431 26.7306 8.61136 26.7306C8.64273 26.7306 8.6741 26.7306 8.70547 26.7149C8.70547 26.7149 8.72116 26.7149 8.73684 26.7149C8.76821 26.7149 8.78389 26.6836 8.79958 26.6679C8.83095 26.6208 8.83095 26.5424 8.78389 26.511L8.79958 26.4954Z" fill="white"/>
<path d="M16.8146 26.2131C16.7205 26.2131 16.6264 26.2131 16.5479 26.2131C16.4538 26.2131 16.3597 26.2445 16.2813 26.2602C16.0931 26.2916 15.9205 26.3229 15.7323 26.3386C15.3716 26.3857 15.0265 26.4327 14.6658 26.4798C13.9443 26.5582 13.2071 26.5896 12.4699 26.6052C12.0621 26.6052 11.6543 26.6052 11.2465 26.6366C11.1524 26.6366 11.1367 26.7935 11.2465 26.8092C11.6072 26.8719 11.968 26.8719 12.3287 26.8719C12.7052 26.8719 13.0816 26.8719 13.4424 26.8405C14.1795 26.8092 14.9167 26.7307 15.6539 26.6366C15.8578 26.6052 16.0617 26.5739 16.2499 26.5425C16.3597 26.5268 16.4538 26.5111 16.5636 26.4798C16.6734 26.4484 16.7675 26.417 16.8773 26.37C16.9871 26.3386 16.9401 26.1818 16.8303 26.1818L16.8146 26.2131Z" fill="white"/>
<path d="M18.8525 25.7269C18.8525 25.7269 18.8525 25.7269 18.8212 25.7269H18.7898C18.7741 25.7269 18.7584 25.7269 18.7427 25.7269C18.7114 25.7269 18.68 25.7269 18.6329 25.7426C18.5702 25.7426 18.5075 25.774 18.4447 25.7897C18.3192 25.821 18.2095 25.8681 18.084 25.8995C17.9742 25.9308 18.0212 26.1034 18.131 26.0877C18.2565 26.072 18.382 26.0563 18.5075 26.0249C18.5702 26.0249 18.6329 25.9936 18.6957 25.9779C18.7271 25.9779 18.7741 25.9779 18.8055 25.9465C18.8055 25.9465 18.8368 25.9465 18.8525 25.9465C18.8525 25.9465 18.8839 25.9465 18.8996 25.9308C18.931 25.9151 18.931 25.8995 18.9153 25.9151C18.9937 25.8681 18.9623 25.7426 18.8682 25.7269H18.8525Z" fill="white"/>
<path d="M10.9953 32.5812C10.713 32.5185 10.3993 32.5342 10.1013 32.5185C9.80326 32.5185 9.50525 32.5028 9.20724 32.4871C8.6269 32.4557 8.04657 32.4244 7.46623 32.3773C6.30556 32.2832 5.14489 32.1264 3.9999 31.8284C3.70189 31.7499 3.41957 31.6715 3.12156 31.5617C2.82355 31.4519 2.55691 31.2951 2.24321 31.2166C2.13342 31.1853 2.10205 31.3264 2.16479 31.3892C2.35301 31.5774 2.63533 31.6872 2.88629 31.797C3.15293 31.9068 3.41957 31.9852 3.68621 32.0636C4.25086 32.2205 4.81551 32.3303 5.39585 32.4244C6.5722 32.6126 7.76424 32.7067 8.9406 32.7694C9.26998 32.7851 9.61504 32.8008 9.94442 32.8165C10.117 32.8165 10.2738 32.8165 10.4463 32.8322C10.6189 32.8322 10.7757 32.8322 10.9482 32.8322C11.0894 32.8165 11.0894 32.6283 10.9482 32.5969L10.9953 32.5812Z" fill="white"/>
<path d="M14.6805 32.5026C14.6805 32.5026 14.5393 32.4242 14.4452 32.4242C14.3354 32.4242 14.2413 32.4242 14.1315 32.4242C13.9276 32.4242 13.7237 32.4399 13.5198 32.4556C13.112 32.4712 12.6885 32.4869 12.2807 32.5183C12.1553 32.5183 12.1396 32.7222 12.2807 32.7379C12.6885 32.7693 13.112 32.7536 13.5198 32.7379C13.7237 32.7379 13.9276 32.7379 14.1315 32.7065C14.2413 32.7065 14.3354 32.7065 14.4452 32.6908C14.5393 32.6908 14.6491 32.6752 14.6962 32.581C14.7119 32.5497 14.7276 32.5183 14.6962 32.4869L14.6805 32.5026Z" fill="white"/>
<path d="M20.9392 31.3734C20.7667 31.3577 20.5785 31.4361 20.4216 31.4832C20.2491 31.5459 20.0609 31.593 19.8883 31.6401C19.5433 31.7342 19.1982 31.8283 18.8532 31.9067C18.5081 31.9851 18.1473 32.0635 17.8023 32.1106C17.4415 32.1733 17.0808 32.2204 16.7357 32.3145C16.673 32.3302 16.6887 32.4243 16.7357 32.44C17.0965 32.4557 17.4572 32.4086 17.818 32.3615C18.1787 32.2988 18.5395 32.2361 18.8845 32.1576C19.2453 32.0792 19.5903 32.0008 19.9354 31.891C20.1079 31.844 20.2805 31.7969 20.453 31.7342C20.6255 31.6871 20.8451 31.6401 20.9706 31.5146C21.0176 31.4675 21.0177 31.3577 20.9235 31.342L20.9392 31.3734Z" fill="white"/>
<path d="M4.84686 37.9296C4.51748 37.7884 4.12537 37.757 3.7803 37.6943C3.41955 37.6316 3.0588 37.5688 2.71374 37.4904C2.36867 37.4277 2.00793 37.3492 1.66286 37.2708C1.5217 37.2394 1.38054 37.2081 1.23937 37.161C1.17663 37.1297 1.09821 37.114 1.03547 37.0669C0.972732 37.0355 0.894309 37.0042 0.83157 36.9728C0.753146 36.9258 0.643352 37.0042 0.706091 37.0983C0.753145 37.161 0.8002 37.2238 0.862939 37.2865C0.925678 37.3336 0.988417 37.3649 1.05116 37.3963C1.19232 37.459 1.33348 37.5061 1.47464 37.5375C1.83539 37.6316 2.19614 37.6943 2.55689 37.757C2.93333 37.8355 3.30976 37.8982 3.68619 37.9609C4.04694 38.0237 4.43906 38.1335 4.8155 38.1021C4.9096 38.1021 4.94097 37.9453 4.84686 37.9139V37.9296Z" fill="white"/>
<path d="M17.4731 37.7416C17.1124 37.7259 16.736 37.7729 16.3752 37.8043C16.0145 37.8357 15.6537 37.8671 15.2773 37.8827C14.5401 37.9298 13.8029 37.9768 13.0657 37.9925C11.5914 38.0396 10.1013 38.0553 8.62694 37.9925C8.21914 37.9925 7.79565 37.9612 7.38785 37.9455C6.98004 37.9298 6.55655 37.8827 6.14875 37.9141C6.03896 37.9141 6.03896 38.071 6.14875 38.1023C6.5095 38.1807 6.88593 38.1964 7.24668 38.2121C7.62312 38.2278 7.98387 38.2435 8.3603 38.2592C9.09748 38.2905 9.83467 38.3062 10.5718 38.3062C12.0462 38.3062 13.5363 38.2592 15.0106 38.1651C15.4341 38.1337 15.8419 38.1023 16.2654 38.071C16.6732 38.0396 17.0967 38.0239 17.5045 37.9141C17.5986 37.8827 17.5829 37.7102 17.4888 37.7102L17.4731 37.7416Z" fill="white"/>
<path d="M22.3503 36.9102C22.2562 36.9102 22.1778 36.9102 22.0993 36.9415C22.0209 36.9729 21.9268 36.9886 21.8484 37.0199C21.6759 37.067 21.519 37.1141 21.3465 37.1611C21.0014 37.2395 20.672 37.3023 20.327 37.365C19.9819 37.4278 19.6368 37.4591 19.2918 37.5062C18.9467 37.5375 18.6016 37.5689 18.2723 37.663C18.1938 37.6944 18.2095 37.8199 18.2879 37.8199C18.633 37.8669 19.0094 37.8199 19.3545 37.7728C19.6996 37.7414 20.0446 37.6944 20.3897 37.6473C20.7348 37.6003 21.0798 37.5219 21.4092 37.4434C21.5817 37.3964 21.7386 37.3493 21.9111 37.3023C21.9895 37.2709 22.0837 37.2552 22.1621 37.2238C22.2562 37.1925 22.3346 37.1297 22.413 37.0827C22.4915 37.0356 22.4444 36.9102 22.3503 36.9258V36.9102Z" fill="white"/>
<path d="M14.0069 1.0391C15.1676 2.82716 13.1599 4.61522 10.3994 6.40328C7.6546 8.19134 5.20778 9.28927 4.03143 7.50121C2.85507 5.71315 4.62745 3.53297 7.38796 1.74491C10.1328 -0.043152 12.8463 -0.748966 14.0069 1.0391Z" fill="#98DAEF"/>
<g style="mix-blend-mode:multiply">
<path d="M11.5441 2.34104C11.8108 2.74884 10.6658 3.59582 9.20709 4.55259C7.74841 5.49367 6.50931 6.19948 6.24267 5.776C5.97603 5.36819 7.05828 4.42711 8.51696 3.48602C9.97564 2.54494 11.2775 1.93323 11.5441 2.34104Z" fill="#54C5D8"/>
</g>
<path d="M7.27812 2.6548C7.15264 2.67048 7.04285 2.76459 6.93305 2.82733C6.82326 2.90576 6.71346 2.98418 6.60367 3.0626C6.38408 3.23514 6.18018 3.40767 5.99197 3.59588C5.78807 3.7841 5.59985 3.97232 5.41163 4.17622C5.31752 4.27033 5.22341 4.38012 5.14499 4.47423C5.09794 4.52128 5.06657 4.56834 5.0352 4.61539C5.01951 4.64676 5.00383 4.66245 4.98814 4.69382C4.95677 4.72519 4.95677 4.75656 4.94109 4.80361C4.89403 4.88203 5.00383 4.96046 5.06657 4.9134C5.09794 4.89772 5.12931 4.88203 5.14499 4.85066C5.17636 4.8193 5.19204 4.80361 5.22341 4.77224C5.27047 4.72519 5.31752 4.67813 5.34889 4.63108C5.443 4.53697 5.52142 4.44286 5.61553 4.34875C5.80375 4.16054 5.99197 3.97232 6.18018 3.7841C6.3684 3.61157 6.5723 3.43904 6.7762 3.26651C6.886 3.1724 6.99579 3.09397 7.0899 3.01555C7.18401 2.93713 7.2938 2.8587 7.35654 2.74891C7.38791 2.70185 7.34086 2.63912 7.2938 2.6548H7.27812Z" fill="white"/>
<path d="M8.81534 1.745C8.73692 1.69795 8.62713 1.745 8.5487 1.77637C8.47028 1.80774 8.40754 1.8548 8.3448 1.88617C8.26638 1.91754 8.18795 1.96459 8.12521 2.01165C8.04679 2.0587 7.96837 2.09007 7.92131 2.15281C7.88994 2.18418 7.87426 2.23123 7.88994 2.27829C7.88994 2.30965 7.95268 2.35671 7.99973 2.34102C8.09384 2.32534 8.17227 2.29397 8.25069 2.24692C8.32912 2.21555 8.39186 2.18418 8.47028 2.13712C8.5487 2.10575 8.62713 2.0587 8.70555 2.02733C8.73692 2.01165 8.78397 1.98028 8.81534 1.96459C8.83103 1.96459 8.8624 1.93322 8.8624 1.91754C8.8624 1.90185 8.89377 1.88617 8.89377 1.8548C8.89377 1.82343 8.89377 1.79206 8.8624 1.77637L8.81534 1.745Z" fill="white"/>
</svg>
