<svg width="34" height="40" viewBox="0 0 34 40" fill="none" xmlns="http://www.w3.org/2000/svg">
<path d="M10.1137 32.0593L10.2707 32.0907C9.59585 33.8483 9.10936 35.6687 8.76411 37.5205L8.37178 40H8.27762L8.21484 39.9529C8.48163 37.8344 8.85827 35.7943 9.48599 33.7541C9.65862 33.1892 9.84694 32.5771 10.098 32.0436L10.1137 32.0593Z" fill="#0D0C0F"/>
<path d="M26.1684 2.94843C26.6863 3.27799 27.1414 3.68601 27.5965 4.07834C30.1545 6.30677 32.1946 9.36694 32.9165 12.7096C33.1989 13.9807 33.3716 15.2519 33.3716 16.5544C33.3716 19.6774 32.4614 22.9102 30.7508 25.5309C29.2913 27.7751 27.2198 29.8152 24.8816 31.1177C24.1754 31.5257 23.4221 31.8396 22.6531 32.1221C21.8214 32.4516 20.974 32.7341 20.0951 32.9067C17.2861 33.4874 14.3357 33.3775 11.6051 32.5301C11.1657 32.3888 10.6635 32.2633 10.2555 32.0593L10.0986 32.0279C10.0044 31.9494 9.83179 31.9024 9.72194 31.8396L9.00005 31.51C8.46648 31.2432 7.93291 30.9451 7.41504 30.6312C7.61905 30.4272 7.83876 30.286 8.02707 30.0663C8.34094 30.2546 8.74896 30.3801 9.07852 30.5214C12.6879 32.0436 16.7525 31.7925 20.3305 30.3173C24.4421 28.6225 27.722 25.578 29.4326 21.4507C31.5668 16.2876 30.9548 10.591 28.2085 5.80459C27.8476 5.17686 27.4552 4.53344 27.0001 3.9528L26.498 3.37215C26.4038 3.2623 26.1998 3.10536 26.1527 2.97982V2.93274L26.1684 2.94843Z" fill="#EFB81C"/>
<path d="M2.66025 25.6878C2.04822 24.6835 1.45188 23.6477 1.02816 22.5492C0.525981 21.2623 0.243503 19.85 0.0865716 18.4846C-0.384224 14.0278 1.09094 9.57092 3.88432 6.10272C6.58355 2.76008 10.6167 0.547337 14.9009 0.0922347C18.1808 -0.253015 21.5392 0.374712 24.4581 1.91264C25.0387 2.22651 25.6665 2.54037 26.1843 2.96409V3.01117C26.2314 3.15241 26.4354 3.30934 26.5296 3.4035L27.0318 3.98414C27.4869 4.56479 27.8792 5.20821 28.2401 5.83594C31.0021 10.6381 31.6142 16.319 29.4642 21.482C27.7537 25.6094 24.4581 28.6538 20.3622 30.3487C16.7841 31.8239 12.7039 32.0749 9.11015 30.5527C8.7649 30.4115 8.37257 30.2859 8.05871 30.0976C7.87039 30.3173 7.63499 30.4585 7.44668 30.6626C7.25836 30.7096 5.28102 28.7951 5.26532 28.6224V28.5754C4.84161 28.1987 4.41789 27.8064 4.04125 27.3827C3.55477 26.8491 3.11536 26.2528 2.67595 25.6721L2.66025 25.6878Z" fill="#F9D723"/>
<path d="M20.5817 11.8151C20.8799 11.7994 21.1624 11.8622 21.4135 12.0191C21.6959 12.2074 21.8842 12.5213 21.947 12.8508C21.9941 13.1647 21.947 13.5256 21.7587 13.7767C21.539 14.0906 21.2094 14.2161 20.8485 14.2946C20.5974 14.3103 20.3463 14.2632 20.1266 14.1377C19.8284 13.965 19.6401 13.6983 19.546 13.3687C19.4675 13.0392 19.4989 12.6939 19.6872 12.3957C19.9069 12.0505 20.2051 11.8935 20.5974 11.8151H20.5817Z" fill="#10142D"/>
<path d="M11.982 8.9903C12.2487 8.9903 12.4684 8.95892 12.7195 9.08446C13.0177 9.21001 13.2374 9.44541 13.3473 9.74358C13.4728 10.0888 13.4728 10.4498 13.3159 10.7793C13.1276 11.1717 12.8137 11.3443 12.4214 11.4698C12.1389 11.4698 11.9192 11.4855 11.6367 11.36C11.3542 11.2187 11.1345 10.9676 11.0404 10.6695C10.9305 10.3242 10.9462 9.97897 11.1188 9.64942C11.3228 9.27278 11.6053 9.11585 11.982 8.9903Z" fill="#0D0C0F"/>
<path d="M8.51334 15.0636C8.59181 15.0636 8.67027 15.0636 8.73304 15.1264C8.8272 15.2519 8.85859 15.5344 8.88998 15.6756C8.96844 15.9424 9.0626 16.2092 9.17245 16.4446C9.67464 17.5274 10.4907 18.4847 11.4794 19.1595C13.4881 20.5405 16.1245 20.7602 18.3687 19.803C18.6668 19.6774 18.9493 19.5205 19.2318 19.3479C19.4044 19.238 19.5927 19.034 19.7967 19.0026C19.8909 19.0811 19.9223 19.0968 19.9537 19.2066L19.8438 19.3479C18.6198 20.2267 17.1132 20.7759 15.591 20.7759C13.5195 20.7759 11.652 20.0854 10.1925 18.5946C9.47062 17.857 8.3878 16.1935 8.40349 15.1107L8.51334 15.0322V15.0636Z" fill="#0D0C0F"/>
<path d="M16.0623 1.69286C16.69 1.66147 17.3334 1.66147 17.9612 1.72424C18.1495 1.73994 18.3535 1.72424 18.5261 1.80271C18.0867 1.88118 17.5688 1.80271 17.098 1.80271C15.717 1.89687 14.336 2.17935 13.0335 2.65014C8.78066 4.18807 5.234 7.56211 3.31943 11.6266L2.91141 12.5839C2.81725 12.8193 2.77017 13.1803 2.62893 13.3843V13.3529C2.61324 13.0233 2.78586 12.5682 2.86433 12.2544C3.42929 10.0573 4.5435 8.14276 6.03435 6.4322C8.60803 3.49757 12.2018 1.92826 16.0623 1.67716V1.69286Z" fill="white"/>
<path d="M6.30066 10.0887C6.47328 10.0887 6.69299 10.0574 6.84992 10.1044H6.897C7.05393 10.1672 7.19517 10.2143 7.32071 10.3084C7.69735 10.5595 7.93275 11.0303 8.01122 11.4697C8.15245 12.2544 7.99552 13.0548 7.54042 13.6982C7.19517 14.1847 6.78715 14.4828 6.19081 14.5927C5.86125 14.6084 5.56308 14.5927 5.26491 14.4358C4.91966 14.2317 4.65287 13.7923 4.55872 13.4157C4.3704 12.6781 4.49594 11.8778 4.88827 11.2186C5.23352 10.6537 5.68862 10.2614 6.33205 10.1044L6.30066 10.0887Z" fill="#F5A65C"/>
<path d="M23.8462 16.0366C24.0659 16.0366 24.3013 16.0052 24.521 16.0836H24.5838C24.8663 16.1935 25.0546 16.319 25.2586 16.5544C25.6509 17.0095 25.7608 17.653 25.7137 18.2336C25.6509 18.8456 25.3057 19.5048 24.8192 19.8971L24.7721 19.9285C24.4582 20.1796 24.1287 20.3051 23.7364 20.415C23.4853 20.4464 23.2028 20.462 22.9674 20.3836H22.9203C22.8261 20.3365 22.732 20.2894 22.6378 20.2266C22.2141 19.9599 22.0101 19.5361 21.9159 19.0497C21.7904 18.4062 21.9944 17.6216 22.371 17.088L22.4024 17.0409C22.7791 16.5074 23.2342 16.1935 23.8619 16.0209L23.8462 16.0366Z" fill="#F5A65C"/>
</svg>
