<svg width="52" height="52" viewBox="0 0 52 52" fill="none" xmlns="http://www.w3.org/2000/svg">
<path d="M9.80246 3.76953H6.78516V34.1485H44.6666V3.76953H41.6493" stroke="#153960" stroke-width="1.49911" stroke-linecap="round" stroke-linejoin="round"/>
<path d="M25.7262 3.76977C25.7262 2.11634 24.3607 0.749512 22.7089 0.749512H9.80273V31.1285H41.6496V0.749512H28.7435C27.0917 0.749512 25.7262 2.11634 25.7262 3.76977ZM25.7262 3.76977V34.1487" stroke="#153960" stroke-width="1.49911" stroke-linecap="round" stroke-linejoin="round"/>
<path d="M19.6916 28.1079H9.80273" stroke="#153960" stroke-width="1.49911" stroke-linecap="round" stroke-linejoin="round"/>
<path d="M41.6487 28.1079H28.7426C27.0908 28.1079 25.7253 29.4747 25.7253 31.1282C25.7253 29.4747 24.3598 28.1079 22.708 28.1079" stroke="#153960" stroke-width="1.49911" stroke-linecap="round" stroke-linejoin="round"/>
<path d="M41.6496 25.0879H28.7435C27.0917 25.0879 25.7262 26.4547 25.7262 28.1081C25.7262 26.4547 24.3607 25.0879 22.7089 25.0879H9.80273" stroke="#153960" stroke-width="1.49911" stroke-linecap="round" stroke-linejoin="round"/>
<path d="M44.6661 9.81055H50.7007V40.1895H11.2996L0.75 50.7494V9.81055H6.78461" stroke="#153960" stroke-width="1.49911" stroke-linecap="round" stroke-linejoin="round"/>
</svg>
