<svg width="52" height="52" viewBox="0 0 52 52" fill="none" xmlns="http://www.w3.org/2000/svg">
<path d="M23.5234 10.6919C25.3515 10.2289 27.1575 11.5737 27.2676 13.4477C27.2676 13.4918 27.2676 13.5579 27.2676 13.602C27.2676 15.3436 25.7699 16.8427 23.5895 16.6443" stroke="#153960" stroke-width="1.49913" stroke-linecap="round" stroke-linejoin="round"/>
<path d="M2.31348 13.4702C2.31348 13.4702 2.31348 13.5804 2.31348 13.6466C2.31348 15.5866 4.09746 17.0196 5.96954 16.6007" stroke="#153960" stroke-width="1.49913" stroke-linecap="round" stroke-linejoin="round"/>
<path d="M6.05763 10.6923C4.2296 10.2513 2.46765 11.5521 2.31348 13.4039" stroke="#153960" stroke-width="1.49913" stroke-linecap="round" stroke-linejoin="round"/>
<path d="M9.0752 12.4561V13.6686" stroke="#153960" stroke-width="1.49913" stroke-linecap="round" stroke-linejoin="round"/>
<path d="M20.4395 12.4561V13.6686" stroke="#153960" stroke-width="1.49913" stroke-linecap="round" stroke-linejoin="round"/>
<path d="M13.1279 13.625C13.5244 14.088 14.119 14.3746 14.7798 14.3746C15.4405 14.3746 16.0352 14.088 16.4316 13.625" stroke="#153960" stroke-width="1.49913" stroke-linecap="round" stroke-linejoin="round"/>
<path d="M40.5039 28.77H48.4768C49.6881 28.77 50.6792 29.7621 50.6792 30.9746V32.606C50.6792 33.8186 49.6881 34.8106 48.4768 34.8106H46.1422" stroke="#153960" stroke-width="1.49913" stroke-linecap="round" stroke-linejoin="round"/>
<path d="M5.28704 34.8326H2.95245C1.7411 34.8326 0.75 33.8405 0.75 32.628V30.9966C0.75 29.7841 1.7411 28.792 2.95245 28.792H26.7389" stroke="#153960" stroke-width="1.49913" stroke-linecap="round" stroke-linejoin="round"/>
<path d="M5.50684 28.7705C5.50684 25.4195 7.26879 22.5094 9.91173 20.856" stroke="#153960" stroke-width="1.49913" stroke-linecap="round" stroke-linejoin="round"/>
<path d="M24.0953 28.7705C24.0953 25.4195 22.3334 22.5094 19.6904 20.856" stroke="#153960" stroke-width="1.49913" stroke-linecap="round" stroke-linejoin="round"/>
<path d="M10.1768 1.74158C11.6083 1.10225 13.1501 0.749512 14.8019 0.749512C21.5194 0.749512 26.9814 6.76808 27.2898 13.448" stroke="#153960" stroke-width="1.49913" stroke-linecap="round" stroke-linejoin="round"/>
<path d="M2.31348 13.4703C2.31348 13.4703 2.31348 13.4262 2.31348 13.4042C2.5117 9.59019 4.38378 5.99669 7.20291 3.61572" stroke="#153960" stroke-width="1.49913" stroke-linecap="round" stroke-linejoin="round"/>
<path d="M47.7722 0.749512H33.9849C32.3551 0.749512 31.0557 2.07227 31.0557 3.68163V16.9974C31.0557 18.0777 32.3111 18.695 33.17 18.0336L35.9231 15.8951H47.7943C49.4241 15.8951 50.7235 14.5724 50.7235 12.963V3.70368C50.7235 2.07227 49.402 0.771558 47.7943 0.771558L47.7722 0.749512Z" stroke="#153960" stroke-width="1.49913" stroke-linecap="round" stroke-linejoin="round"/>
<path d="M34.7998 4.5415H46.9133" stroke="#153960" stroke-width="1.49913" stroke-linecap="round" stroke-linejoin="round"/>
<path d="M34.7998 8.3335H46.9133" stroke="#153960" stroke-width="1.49913" stroke-linecap="round" stroke-linejoin="round"/>
<path d="M34.7998 12.125H40.8565" stroke="#153960" stroke-width="1.49913" stroke-linecap="round" stroke-linejoin="round"/>
<path d="M42.4641 37.8094C42.6623 37.8535 42.8825 37.8756 43.0808 37.8756C44.7546 37.8756 46.0981 36.5087 46.0981 34.8553C46.0981 33.2018 44.7326 31.835 43.0808 31.835C42.8385 31.835 42.5962 31.857 42.376 31.9231" stroke="#153960" stroke-width="1.49913" stroke-linecap="round" stroke-linejoin="round"/>
<path d="M24.8882 31.9007C24.6679 31.8345 24.4256 31.8125 24.1834 31.8125C22.5095 31.8125 21.166 33.1794 21.166 34.8328C21.166 36.4863 22.5315 37.8531 24.1834 37.8531C24.4036 37.8531 24.6018 37.8311 24.8001 37.787" stroke="#153960" stroke-width="1.49913" stroke-linecap="round" stroke-linejoin="round"/>
<path d="M35.5924 50.7494H24.3379C24.3379 49.9558 24.426 49.2062 24.6242 48.4787C25.2849 45.8111 27.113 43.6065 29.5136 42.416" stroke="#153960" stroke-width="1.49913" stroke-linecap="round" stroke-linejoin="round"/>
<path d="M37.751 42.416C39.7112 43.386 41.2529 45.0174 42.1338 47.0016C42.6404 48.148 42.9267 49.4046 42.9267 50.7494H39.1385" stroke="#153960" stroke-width="1.49913" stroke-linecap="round" stroke-linejoin="round"/>
<path d="M23.5234 10.6923C22.8847 8.92858 21.7394 7.4074 20.2417 6.32715C17.9732 8.02469 15.1761 8.2672 13.5023 6.85625C11.7403 8.24515 9.51583 8.42152 8.28246 7.20899C7.29136 8.17901 6.5205 9.3695 6.03596 10.6923C5.68357 11.6843 5.48535 12.7425 5.48535 13.8448C5.48535 14.859 5.63952 15.7628 5.94787 16.6006C6.63062 18.5406 8.04019 19.9736 9.89024 20.8775C11.2998 21.5609 12.9737 21.9357 14.7797 21.9357C16.5857 21.9357 18.2595 21.583 19.6691 20.8775C21.4971 19.9957 22.9067 18.5627 23.5895 16.6667C23.8978 15.8069 24.074 14.881 24.074 13.8448C24.074 12.7425 23.8758 11.6843 23.5234 10.6923Z" stroke="#153960" stroke-width="1.49913" stroke-linecap="round" stroke-linejoin="round"/>
<path d="M46.1205 34.8325H46.1645V45.4587C46.1645 47.1342 44.821 48.479 43.1472 48.479H42.6406" stroke="#153960" stroke-width="1.49913" stroke-linecap="round" stroke-linejoin="round"/>
<path d="M21.1447 34.8325H5.28711V45.4587C5.28711 47.1342 6.6306 48.479 8.30446 48.479H24.6246" stroke="#153960" stroke-width="1.49913" stroke-linecap="round" stroke-linejoin="round"/>
<path d="M42.3759 31.9008C42.7283 32.8709 42.9265 33.9291 42.9265 35.0314C42.9265 36.0455 42.7724 36.9714 42.464 37.8092C41.6932 39.9917 39.9753 41.557 37.7508 42.4168C36.5174 42.8798 35.1079 43.1223 33.6322 43.1223C32.1566 43.1223 30.769 42.8798 29.5136 42.4168C27.2892 41.579 25.5713 40.0138 24.8004 37.8092C24.4921 36.9714 24.3379 36.0455 24.3379 35.0314C24.3379 33.9291 24.5361 32.8709 24.8885 31.9008C25.307 30.7324 25.9457 29.6742 26.7606 28.7923C28.4565 26.9184 30.9012 25.75 33.6322 25.75C36.3632 25.75 38.808 26.9184 40.5038 28.7923C41.3187 29.6962 41.9575 30.7544 42.3759 31.9008Z" stroke="#153960" stroke-width="1.49913" stroke-linecap="round" stroke-linejoin="round"/>
</svg>
